<ttFont>
<head>
    <!-- Most of this table will be recalculated by the compiler -->
    <tableVersion value="1.0"/>
    <fontRevision value="1.002"/>
    <checkSumAdjustment value="0x6b857904"/>
    <magicNumber value="0x5f0f3cf5"/>
    <flags value="00000000 00001111"/>
    <unitsPerEm value="1000"/>
    <created value="Sun Jun 13 08:13:04 2021"/>
    <modified value="Mon Jun 14 15:26:01 2021"/>
    <xMin value="-139"/>
    <yMin value="-265"/>
    <xMax value="1105"/>
    <yMax value="1261"/>
    <macStyle value="00000000 00000010"/>
    <lowestRecPPEM value="6"/>
    <fontDirectionHint value="2"/>
    <indexToLocFormat value="0"/>
    <glyphDataFormat value="0"/>
  </head>
    <TTGlyph name=".notdef" xMin="50" yMin="-265" xMax="450" yMax="1000">
      <contour>
        <pt x="50" y="-265" on="1"/>
        <pt x="50" y="1000" on="1"/>
        <pt x="450" y="1000" on="1"/>
        <pt x="450" y="-265" on="1"/>
      </contour>
      <contour>
        <pt x="100" y="-215" on="1"/>
        <pt x="400" y="-215" on="1"/>
        <pt x="400" y="950" on="1"/>
        <pt x="100" y="950" on="1"/>
      </contour>
    </TTGlyph>
    <TTGlyph name="A" xMin="-26" yMin="0" xMax="613" yMax="740">
      <contour>
        <pt x="-26" y="0" on="1"/>
        <pt x="393" y="740" on="1"/>
        <pt x="509" y="740" on="1"/>
        <pt x="613" y="0" on="1"/>
        <pt x="517" y="0" on="1"/>
        <pt x="493" y="177" on="1"/>
        <pt x="182" y="177" on="1"/>
        <pt x="83" y="0" on="1"/>
      </contour>
      <contour>
        <pt x="232" y="265" on="1"/>
        <pt x="481" y="265" on="1"/>
        <pt x="433" y="623" on="1"/>
      </contour>
    </TTGlyph>
    <TTGlyph name="AE" xMin="-26" yMin="0" xMax="1031" yMax="740">
      <contour>
        <pt x="-26" y="0" on="1"/>
        <pt x="512" y="740" on="1"/>
        <pt x="1031" y="740" on="1"/>
        <pt x="1013" y="654" on="1"/>
        <pt x="660" y="654" on="1"/>
        <pt x="610" y="420" on="1"/>
        <pt x="917" y="420" on="1"/>
        <pt x="899" y="334" on="1"/>
        <pt x="592" y="334" on="1"/>
        <pt x="539" y="86" on="1"/>
        <pt x="897" y="86" on="1"/>
        <pt x="879" y="0" on="1"/>
        <pt x="423" y="0" on="1"/>
        <pt x="461" y="177" on="1"/>
        <pt x="218" y="177" on="1"/>
        <pt x="89" y="0" on="1"/>
      </contour>
      <contour>
        <pt x="282" y="265" on="1"/>
        <pt x="479" y="265" on="1"/>
        <pt x="560" y="646" on="1"/>
      </contour>
    </TTGlyph>
    <TTGlyph name="Aacute" xMin="-26" yMin="0" xMax="626" yMax="1001">
      <contour>
        <pt x="516" y="820" on="1"/>
        <pt x="438" y="821" on="1"/>
        <pt x="531" y="1001" on="1"/>
        <pt x="626" y="1001" on="1"/>
      </contour>
      <contour>
        <pt x="-26" y="0" on="1"/>
        <pt x="393" y="740" on="1"/>
        <pt x="509" y="740" on="1"/>
        <pt x="613" y="0" on="1"/>
        <pt x="517" y="0" on="1"/>
        <pt x="493" y="177" on="1"/>
        <pt x="182" y="177" on="1"/>
        <pt x="83" y="0" on="1"/>
      </contour>
      <contour>
        <pt x="232" y="265" on="1"/>
        <pt x="481" y="265" on="1"/>
        <pt x="433" y="623" on="1"/>
      </contour>
    </TTGlyph>
    <TTGlyph name="Abreve" xMin="-26" yMin="0" xMax="659" yMax="957">
      <contour>
        <pt x="481" y="815" on="1"/>
        <pt x="435" y="815" on="0"/>
        <pt x="379" y="844" on="0"/>
        <pt x="350" y="886" on="0"/>
        <pt x="340" y="928" on="0"/>
        <pt x="339" y="957" on="0"/>
        <pt x="339" y="957" on="1"/>
        <pt x="410" y="957" on="1"/>
        <pt x="410" y="957" on="0"/>
        <pt x="409" y="933" on="0"/>
        <pt x="420" y="902" on="0"/>
        <pt x="451" y="878" on="0"/>
        <pt x="482" y="878" on="1"/>
        <pt x="514" y="878" on="0"/>
        <pt x="555" y="902" on="0"/>
        <pt x="578" y="933" on="0"/>
        <pt x="588" y="957" on="0"/>
        <pt x="588" y="957" on="1"/>
        <pt x="659" y="957" on="1"/>
        <pt x="659" y="957" on="0"/>
        <pt x="651" y="928" on="0"/>
        <pt x="629" y="886" on="0"/>
        <pt x="589" y="844" on="0"/>
        <pt x="526" y="815" on="0"/>
      </contour>
      <contour>
        <pt x="-26" y="0" on="1"/>
        <pt x="393" y="740" on="1"/>
        <pt x="509" y="740" on="1"/>
        <pt x="613" y="0" on="1"/>
        <pt x="517" y="0" on="1"/>
        <pt x="493" y="177" on="1"/>
        <pt x="182" y="177" on="1"/>
        <pt x="83" y="0" on="1"/>
      </contour>
      <contour>
        <pt x="232" y="265" on="1"/>
        <pt x="481" y="265" on="1"/>
        <pt x="433" y="623" on="1"/>
      </contour>
    </TTGlyph>
    <TTGlyph name="Acircumflex" xMin="-26" yMin="0" xMax="621" yMax="963">
      <contour>
        <pt x="298" y="816" on="1"/>
        <pt x="450" y="963" on="1"/>
        <pt x="531" y="963" on="1"/>
        <pt x="621" y="816" on="1"/>
        <pt x="541" y="816" on="1"/>
        <pt x="484" y="910" on="1"/>
        <pt x="390" y="816" on="1"/>
      </contour>
      <contour>
        <pt x="-26" y="0" on="1"/>
        <pt x="393" y="740" on="1"/>
        <pt x="509" y="740" on="1"/>
        <pt x="613" y="0" on="1"/>
        <pt x="517" y="0" on="1"/>
        <pt x="493" y="177" on="1"/>
        <pt x="182" y="177" on="1"/>
        <pt x="83" y="0" on="1"/>
      </contour>
      <contour>
        <pt x="232" y="265" on="1"/>
        <pt x="481" y="265" on="1"/>
        <pt x="433" y="623" on="1"/>
      </contour>
    </TTGlyph>
    <TTGlyph name="Adieresis" xMin="-26" yMin="0" xMax="640" yMax="944">
      <contour>
        <pt x="578" y="821" on="1"/>
        <pt x="551" y="821" on="0"/>
        <pt x="516" y="857" on="0"/>
        <pt x="516" y="882" on="1"/>
        <pt x="516" y="908" on="0"/>
        <pt x="551" y="944" on="0"/>
        <pt x="578" y="944" on="1"/>
        <pt x="604" y="944" on="0"/>
        <pt x="640" y="908" on="0"/>
        <pt x="640" y="882" on="1"/>
        <pt x="640" y="857" on="0"/>
        <pt x="604" y="821" on="0"/>
      </contour>
      <contour>
        <pt x="388" y="821" on="1"/>
        <pt x="361" y="821" on="0"/>
        <pt x="326" y="857" on="0"/>
        <pt x="326" y="882" on="1"/>
        <pt x="326" y="908" on="0"/>
        <pt x="361" y="944" on="0"/>
        <pt x="388" y="944" on="1"/>
        <pt x="414" y="944" on="0"/>
        <pt x="450" y="908" on="0"/>
        <pt x="450" y="882" on="1"/>
        <pt x="450" y="857" on="0"/>
        <pt x="414" y="821" on="0"/>
      </contour>
      <contour>
        <pt x="-26" y="0" on="1"/>
        <pt x="393" y="740" on="1"/>
        <pt x="509" y="740" on="1"/>
        <pt x="613" y="0" on="1"/>
        <pt x="517" y="0" on="1"/>
        <pt x="493" y="177" on="1"/>
        <pt x="182" y="177" on="1"/>
        <pt x="83" y="0" on="1"/>
      </contour>
      <contour>
        <pt x="232" y="265" on="1"/>
        <pt x="481" y="265" on="1"/>
        <pt x="433" y="623" on="1"/>
      </contour>
    </TTGlyph>
    <TTGlyph name="Agrave" xMin="-26" yMin="0" xMax="613" yMax="1001">
      <contour>
        <pt x="422" y="820" on="1"/>
        <pt x="339" y="1001" on="1"/>
        <pt x="432" y="1001" on="1"/>
        <pt x="498" y="821" on="1"/>
      </contour>
      <contour>
        <pt x="-26" y="0" on="1"/>
        <pt x="393" y="740" on="1"/>
        <pt x="509" y="740" on="1"/>
        <pt x="613" y="0" on="1"/>
        <pt x="517" y="0" on="1"/>
        <pt x="493" y="177" on="1"/>
        <pt x="182" y="177" on="1"/>
        <pt x="83" y="0" on="1"/>
      </contour>
      <contour>
        <pt x="232" y="265" on="1"/>
        <pt x="481" y="265" on="1"/>
        <pt x="433" y="623" on="1"/>
      </contour>
    </TTGlyph>
    <TTGlyph name="Amacron" xMin="-26" yMin="0" xMax="644" yMax="923">
      <contour>
        <pt x="324" y="851" on="1"/>
        <pt x="340" y="923" on="1"/>
        <pt x="644" y="923" on="1"/>
        <pt x="628" y="851" on="1"/>
      </contour>
      <contour>
        <pt x="-26" y="0" on="1"/>
        <pt x="393" y="740" on="1"/>
        <pt x="509" y="740" on="1"/>
        <pt x="613" y="0" on="1"/>
        <pt x="517" y="0" on="1"/>
        <pt x="493" y="177" on="1"/>
        <pt x="182" y="177" on="1"/>
        <pt x="83" y="0" on="1"/>
      </contour>
      <contour>
        <pt x="232" y="265" on="1"/>
        <pt x="481" y="265" on="1"/>
        <pt x="433" y="623" on="1"/>
      </contour>
    </TTGlyph>
    <TTGlyph name="Aogonek" xMin="-26" yMin="-167" xMax="613" yMax="740">
      <contour>
        <pt x="-26" y="0" on="1"/>
        <pt x="393" y="740" on="1"/>
        <pt x="509" y="740" on="1"/>
        <pt x="613" y="0" on="1"/>
        <pt x="556" y="0" on="1"/>
        <pt x="556" y="0" on="0"/>
        <pt x="535" y="-9" on="0"/>
        <pt x="507" y="-27" on="0"/>
        <pt x="486" y="-54" on="0"/>
        <pt x="486" y="-72" on="1"/>
        <pt x="486" y="-108" on="0"/>
        <pt x="536" y="-108" on="1"/>
        <pt x="550" y="-108" on="0"/>
        <pt x="573" y="-103" on="0"/>
        <pt x="573" y="-103" on="1"/>
        <pt x="561" y="-161" on="1"/>
        <pt x="561" y="-161" on="0"/>
        <pt x="535" y="-167" on="0"/>
        <pt x="514" y="-167" on="1"/>
        <pt x="465" y="-167" on="0"/>
        <pt x="413" y="-124" on="0"/>
        <pt x="413" y="-90" on="1"/>
        <pt x="413" y="-56" on="0"/>
        <pt x="453" y="-12" on="0"/>
        <pt x="501" y="12" on="0"/>
        <pt x="515" y="16" on="1"/>
        <pt x="493" y="177" on="1"/>
        <pt x="182" y="177" on="1"/>
        <pt x="83" y="0" on="1"/>
      </contour>
      <contour>
        <pt x="232" y="265" on="1"/>
        <pt x="481" y="265" on="1"/>
        <pt x="433" y="623" on="1"/>
      </contour>
    </TTGlyph>
    <TTGlyph name="Aring" xMin="-26" yMin="0" xMax="613" yMax="1068">
      <contour>
        <pt x="453" y="812" on="1"/>
        <pt x="418" y="812" on="0"/>
        <pt x="359" y="846" on="0"/>
        <pt x="324" y="905" on="0"/>
        <pt x="324" y="940" on="1"/>
        <pt x="324" y="976" on="0"/>
        <pt x="359" y="1034" on="0"/>
        <pt x="418" y="1068" on="0"/>
        <pt x="453" y="1068" on="1"/>
        <pt x="488" y="1068" on="0"/>
        <pt x="546" y="1034" on="0"/>
        <pt x="581" y="976" on="0"/>
        <pt x="581" y="940" on="1"/>
        <pt x="581" y="905" on="0"/>
        <pt x="546" y="846" on="0"/>
        <pt x="488" y="812" on="0"/>
      </contour>
      <contour>
        <pt x="453" y="880" on="1"/>
        <pt x="478" y="880" on="0"/>
        <pt x="513" y="915" on="0"/>
        <pt x="513" y="940" on="1"/>
        <pt x="513" y="965" on="0"/>
        <pt x="478" y="1000" on="0"/>
        <pt x="453" y="1000" on="1"/>
        <pt x="428" y="1000" on="0"/>
        <pt x="392" y="965" on="0"/>
        <pt x="392" y="940" on="1"/>
        <pt x="392" y="915" on="0"/>
        <pt x="428" y="880" on="0"/>
      </contour>
      <contour>
        <pt x="-26" y="0" on="1"/>
        <pt x="393" y="740" on="1"/>
        <pt x="509" y="740" on="1"/>
        <pt x="613" y="0" on="1"/>
        <pt x="517" y="0" on="1"/>
        <pt x="493" y="177" on="1"/>
        <pt x="182" y="177" on="1"/>
        <pt x="83" y="0" on="1"/>
      </contour>
      <contour>
        <pt x="232" y="265" on="1"/>
        <pt x="481" y="265" on="1"/>
        <pt x="433" y="623" on="1"/>
      </contour>
    </TTGlyph>
    <TTGlyph name="Atilde" xMin="-26" yMin="0" xMax="654" yMax="963">
      <contour>
        <pt x="551" y="826" on="1"/>
        <pt x="525" y="826" on="0"/>
        <pt x="489" y="847" on="0"/>
        <pt x="462" y="876" on="0"/>
        <pt x="438" y="897" on="0"/>
        <pt x="424" y="897" on="1"/>
        <pt x="408" y="897" on="0"/>
        <pt x="388" y="863" on="0"/>
        <pt x="383" y="832" on="1"/>
        <pt x="321" y="832" on="1"/>
        <pt x="332" y="891" on="0"/>
        <pt x="379" y="963" on="0"/>
        <pt x="425" y="963" on="1"/>
        <pt x="452" y="963" on="0"/>
        <pt x="488" y="942" on="0"/>
        <pt x="515" y="915" on="0"/>
        <pt x="538" y="894" on="0"/>
        <pt x="552" y="894" on="1"/>
        <pt x="569" y="894" on="0"/>
        <pt x="587" y="927" on="0"/>
        <pt x="592" y="958" on="1"/>
        <pt x="654" y="958" on="1"/>
        <pt x="643" y="900" on="0"/>
        <pt x="597" y="826" on="0"/>
      </contour>
      <contour>
        <pt x="-26" y="0" on="1"/>
        <pt x="393" y="740" on="1"/>
        <pt x="509" y="740" on="1"/>
        <pt x="613" y="0" on="1"/>
        <pt x="517" y="0" on="1"/>
        <pt x="493" y="177" on="1"/>
        <pt x="182" y="177" on="1"/>
        <pt x="83" y="0" on="1"/>
      </contour>
      <contour>
        <pt x="232" y="265" on="1"/>
        <pt x="481" y="265" on="1"/>
        <pt x="433" y="623" on="1"/>
      </contour>
    </TTGlyph>
    <TTGlyph name="B" xMin="29" yMin="0" xMax="637" yMax="740">
      <contour>
        <pt x="29" y="0" on="1"/>
        <pt x="186" y="740" on="1"/>
        <pt x="450" y="740" on="1"/>
        <pt x="514" y="740" on="0"/>
        <pt x="597" y="692" on="0"/>
        <pt x="637" y="617" on="0"/>
        <pt x="637" y="574" on="1"/>
        <pt x="637" y="517" on="0"/>
        <pt x="570" y="413" on="0"/>
        <pt x="507" y="390" on="1"/>
        <pt x="506" y="384" on="1"/>
        <pt x="558" y="366" on="0"/>
        <pt x="607" y="287" on="0"/>
        <pt x="607" y="239" on="1"/>
        <pt x="607" y="198" on="0"/>
        <pt x="572" y="114" on="0"/>
        <pt x="503" y="43" on="0"/>
        <pt x="404" y="0" on="0"/>
        <pt x="340" y="0" on="1"/>
      </contour>
      <contour>
        <pt x="438" y="655" on="1"/>
        <pt x="266" y="655" on="1"/>
        <pt x="216" y="419" on="1"/>
        <pt x="388" y="419" on="1"/>
        <pt x="439" y="419" on="0"/>
        <pt x="508" y="461" on="0"/>
        <pt x="543" y="526" on="0"/>
        <pt x="543" y="558" on="1"/>
        <pt x="543" y="596" on="0"/>
        <pt x="491" y="655" on="0"/>
      </contour>
      <contour>
        <pt x="379" y="340" on="1"/>
        <pt x="199" y="340" on="1"/>
        <pt x="145" y="85" on="1"/>
        <pt x="345" y="85" on="1"/>
        <pt x="396" y="85" on="0"/>
        <pt x="470" y="130" on="0"/>
        <pt x="510" y="200" on="0"/>
        <pt x="510" y="235" on="1"/>
        <pt x="510" y="276" on="0"/>
        <pt x="447" y="340" on="0"/>
      </contour>
    </TTGlyph>
    <TTGlyph name="C" xMin="58" yMin="-10" xMax="732" yMax="750">
      <contour>
        <pt x="363" y="-10" on="1"/>
        <pt x="284" y="-10" on="0"/>
        <pt x="169" y="43" on="0"/>
        <pt x="94" y="134" on="0"/>
        <pt x="58" y="251" on="0"/>
        <pt x="58" y="315" on="1"/>
        <pt x="58" y="392" on="0"/>
        <pt x="109" y="546" on="0"/>
        <pt x="209" y="673" on="0"/>
        <pt x="359" y="750" on="0"/>
        <pt x="458" y="750" on="1"/>
        <pt x="528" y="750" on="0"/>
        <pt x="624" y="713" on="0"/>
        <pt x="684" y="654" on="0"/>
        <pt x="716" y="589" on="0"/>
        <pt x="730" y="530" on="0"/>
        <pt x="732" y="493" on="0"/>
        <pt x="732" y="493" on="1"/>
        <pt x="634" y="493" on="1"/>
        <pt x="634" y="493" on="0"/>
        <pt x="632" y="527" on="0"/>
        <pt x="616" y="577" on="0"/>
        <pt x="579" y="628" on="0"/>
        <pt x="509" y="662" on="0"/>
        <pt x="453" y="662" on="1"/>
        <pt x="380" y="662" on="0"/>
        <pt x="270" y="602" on="0"/>
        <pt x="195" y="502" on="0"/>
        <pt x="157" y="382" on="0"/>
        <pt x="157" y="322" on="1"/>
        <pt x="157" y="258" on="0"/>
        <pt x="202" y="147" on="0"/>
        <pt x="296" y="79" on="0"/>
        <pt x="370" y="79" on="1"/>
        <pt x="424" y="79" on="0"/>
        <pt x="501" y="113" on="0"/>
        <pt x="554" y="163" on="0"/>
        <pt x="585" y="213" on="0"/>
        <pt x="598" y="247" on="0"/>
        <pt x="598" y="247" on="1"/>
        <pt x="697" y="247" on="1"/>
        <pt x="697" y="247" on="0"/>
        <pt x="685" y="210" on="0"/>
        <pt x="657" y="151" on="0"/>
        <pt x="607" y="86" on="0"/>
        <pt x="534" y="27" on="0"/>
        <pt x="431" y="-10" on="0"/>
      </contour>
    </TTGlyph>
    <TTGlyph name="Cacute" xMin="58" yMin="-10" xMax="732" yMax="1001">
      <contour>
        <pt x="539" y="820" on="1"/>
        <pt x="461" y="821" on="1"/>
        <pt x="554" y="1001" on="1"/>
        <pt x="649" y="1001" on="1"/>
      </contour>
      <contour>
        <pt x="363" y="-10" on="1"/>
        <pt x="284" y="-10" on="0"/>
        <pt x="169" y="43" on="0"/>
        <pt x="94" y="134" on="0"/>
        <pt x="58" y="251" on="0"/>
        <pt x="58" y="315" on="1"/>
        <pt x="58" y="392" on="0"/>
        <pt x="109" y="546" on="0"/>
        <pt x="209" y="673" on="0"/>
        <pt x="359" y="750" on="0"/>
        <pt x="458" y="750" on="1"/>
        <pt x="528" y="750" on="0"/>
        <pt x="624" y="713" on="0"/>
        <pt x="684" y="654" on="0"/>
        <pt x="716" y="589" on="0"/>
        <pt x="730" y="530" on="0"/>
        <pt x="732" y="493" on="0"/>
        <pt x="732" y="493" on="1"/>
        <pt x="634" y="493" on="1"/>
        <pt x="634" y="493" on="0"/>
        <pt x="632" y="527" on="0"/>
        <pt x="616" y="577" on="0"/>
        <pt x="579" y="628" on="0"/>
        <pt x="509" y="662" on="0"/>
        <pt x="453" y="662" on="1"/>
        <pt x="380" y="662" on="0"/>
        <pt x="270" y="602" on="0"/>
        <pt x="195" y="502" on="0"/>
        <pt x="157" y="382" on="0"/>
        <pt x="157" y="322" on="1"/>
        <pt x="157" y="258" on="0"/>
        <pt x="202" y="147" on="0"/>
        <pt x="296" y="79" on="0"/>
        <pt x="370" y="79" on="1"/>
        <pt x="424" y="79" on="0"/>
        <pt x="501" y="113" on="0"/>
        <pt x="554" y="163" on="0"/>
        <pt x="585" y="213" on="0"/>
        <pt x="598" y="247" on="0"/>
        <pt x="598" y="247" on="1"/>
        <pt x="697" y="247" on="1"/>
        <pt x="697" y="247" on="0"/>
        <pt x="685" y="210" on="0"/>
        <pt x="657" y="151" on="0"/>
        <pt x="607" y="86" on="0"/>
        <pt x="534" y="27" on="0"/>
        <pt x="431" y="-10" on="0"/>
      </contour>
    </TTGlyph>
    <TTGlyph name="Ccaron" xMin="58" yMin="-10" xMax="732" yMax="982">
      <contour>
        <pt x="447" y="815" on="1"/>
        <pt x="361" y="982" on="1"/>
        <pt x="441" y="982" on="1"/>
        <pt x="494" y="875" on="1"/>
        <pt x="592" y="982" on="1"/>
        <pt x="684" y="982" on="1"/>
        <pt x="528" y="815" on="1"/>
      </contour>
      <contour>
        <pt x="363" y="-10" on="1"/>
        <pt x="284" y="-10" on="0"/>
        <pt x="169" y="43" on="0"/>
        <pt x="94" y="134" on="0"/>
        <pt x="58" y="251" on="0"/>
        <pt x="58" y="315" on="1"/>
        <pt x="58" y="392" on="0"/>
        <pt x="109" y="546" on="0"/>
        <pt x="209" y="673" on="0"/>
        <pt x="359" y="750" on="0"/>
        <pt x="458" y="750" on="1"/>
        <pt x="528" y="750" on="0"/>
        <pt x="624" y="713" on="0"/>
        <pt x="684" y="654" on="0"/>
        <pt x="716" y="589" on="0"/>
        <pt x="730" y="530" on="0"/>
        <pt x="732" y="493" on="0"/>
        <pt x="732" y="493" on="1"/>
        <pt x="634" y="493" on="1"/>
        <pt x="634" y="493" on="0"/>
        <pt x="632" y="527" on="0"/>
        <pt x="616" y="577" on="0"/>
        <pt x="579" y="628" on="0"/>
        <pt x="509" y="662" on="0"/>
        <pt x="453" y="662" on="1"/>
        <pt x="380" y="662" on="0"/>
        <pt x="270" y="602" on="0"/>
        <pt x="195" y="502" on="0"/>
        <pt x="157" y="382" on="0"/>
        <pt x="157" y="322" on="1"/>
        <pt x="157" y="258" on="0"/>
        <pt x="202" y="147" on="0"/>
        <pt x="296" y="79" on="0"/>
        <pt x="370" y="79" on="1"/>
        <pt x="424" y="79" on="0"/>
        <pt x="501" y="113" on="0"/>
        <pt x="554" y="163" on="0"/>
        <pt x="585" y="213" on="0"/>
        <pt x="598" y="247" on="0"/>
        <pt x="598" y="247" on="1"/>
        <pt x="697" y="247" on="1"/>
        <pt x="697" y="247" on="0"/>
        <pt x="685" y="210" on="0"/>
        <pt x="657" y="151" on="0"/>
        <pt x="607" y="86" on="0"/>
        <pt x="534" y="27" on="0"/>
        <pt x="431" y="-10" on="0"/>
      </contour>
    </TTGlyph>
    <TTGlyph name="Ccedilla" xMin="58" yMin="-260" xMax="732" yMax="750">
      <contour>
        <pt x="287" y="-260" on="1"/>
        <pt x="256" y="-260" on="0"/>
        <pt x="208" y="-249" on="0"/>
        <pt x="208" y="-249" on="1"/>
        <pt x="218" y="-193" on="1"/>
        <pt x="218" y="-193" on="0"/>
        <pt x="241" y="-197" on="0"/>
        <pt x="274" y="-202" on="0"/>
        <pt x="288" y="-202" on="1"/>
        <pt x="329" y="-202" on="0"/>
        <pt x="359" y="-170" on="0"/>
        <pt x="359" y="-152" on="1"/>
        <pt x="359" y="-135" on="0"/>
        <pt x="332" y="-109" on="0"/>
        <pt x="304" y="-109" on="1"/>
        <pt x="282" y="-109" on="0"/>
        <pt x="255" y="-123" on="0"/>
        <pt x="256" y="-123" on="1"/>
        <pt x="228" y="-88" on="1"/>
        <pt x="298" y="-5" on="1"/>
        <pt x="216" y="9" on="0"/>
        <pt x="109" y="103" on="0"/>
        <pt x="58" y="239" on="0"/>
        <pt x="58" y="315" on="1"/>
        <pt x="58" y="392" on="0"/>
        <pt x="109" y="546" on="0"/>
        <pt x="209" y="673" on="0"/>
        <pt x="359" y="750" on="0"/>
        <pt x="458" y="750" on="1"/>
        <pt x="528" y="750" on="0"/>
        <pt x="624" y="713" on="0"/>
        <pt x="684" y="654" on="0"/>
        <pt x="716" y="589" on="0"/>
        <pt x="730" y="530" on="0"/>
        <pt x="732" y="493" on="0"/>
        <pt x="732" y="493" on="1"/>
        <pt x="634" y="493" on="1"/>
        <pt x="634" y="493" on="0"/>
        <pt x="632" y="527" on="0"/>
        <pt x="616" y="577" on="0"/>
        <pt x="579" y="628" on="0"/>
        <pt x="509" y="662" on="0"/>
        <pt x="453" y="662" on="1"/>
        <pt x="380" y="662" on="0"/>
        <pt x="270" y="602" on="0"/>
        <pt x="195" y="502" on="0"/>
        <pt x="157" y="382" on="0"/>
        <pt x="157" y="322" on="1"/>
        <pt x="157" y="258" on="0"/>
        <pt x="202" y="147" on="0"/>
        <pt x="296" y="79" on="0"/>
        <pt x="370" y="79" on="1"/>
        <pt x="424" y="79" on="0"/>
        <pt x="501" y="113" on="0"/>
        <pt x="554" y="163" on="0"/>
        <pt x="585" y="213" on="0"/>
        <pt x="598" y="247" on="0"/>
        <pt x="598" y="247" on="1"/>
        <pt x="697" y="247" on="1"/>
        <pt x="697" y="247" on="0"/>
        <pt x="685" y="210" on="0"/>
        <pt x="657" y="151" on="0"/>
        <pt x="608" y="86" on="0"/>
        <pt x="535" y="27" on="0"/>
        <pt x="434" y="-10" on="0"/>
        <pt x="367" y="-10" on="1"/>
        <pt x="324" y="-59" on="1"/>
        <pt x="330" y="-59" on="1"/>
        <pt x="380" y="-59" on="0"/>
        <pt x="431" y="-115" on="0"/>
        <pt x="431" y="-151" on="1"/>
        <pt x="431" y="-177" on="0"/>
        <pt x="402" y="-228" on="0"/>
        <pt x="338" y="-260" on="0"/>
      </contour>
    </TTGlyph>
    <TTGlyph name="Cdotaccent" xMin="58" yMin="-10" xMax="732" yMax="959">
      <contour>
        <pt x="510" y="836" on="1"/>
        <pt x="483" y="836" on="0"/>
        <pt x="448" y="872" on="0"/>
        <pt x="448" y="897" on="1"/>
        <pt x="448" y="923" on="0"/>
        <pt x="483" y="959" on="0"/>
        <pt x="510" y="959" on="1"/>
        <pt x="536" y="959" on="0"/>
        <pt x="572" y="923" on="0"/>
        <pt x="572" y="897" on="1"/>
        <pt x="572" y="872" on="0"/>
        <pt x="536" y="836" on="0"/>
      </contour>
      <contour>
        <pt x="363" y="-10" on="1"/>
        <pt x="284" y="-10" on="0"/>
        <pt x="169" y="43" on="0"/>
        <pt x="94" y="134" on="0"/>
        <pt x="58" y="251" on="0"/>
        <pt x="58" y="315" on="1"/>
        <pt x="58" y="392" on="0"/>
        <pt x="109" y="546" on="0"/>
        <pt x="209" y="673" on="0"/>
        <pt x="359" y="750" on="0"/>
        <pt x="458" y="750" on="1"/>
        <pt x="528" y="750" on="0"/>
        <pt x="624" y="713" on="0"/>
        <pt x="684" y="654" on="0"/>
        <pt x="716" y="589" on="0"/>
        <pt x="730" y="530" on="0"/>
        <pt x="732" y="493" on="0"/>
        <pt x="732" y="493" on="1"/>
        <pt x="634" y="493" on="1"/>
        <pt x="634" y="493" on="0"/>
        <pt x="632" y="527" on="0"/>
        <pt x="616" y="577" on="0"/>
        <pt x="579" y="628" on="0"/>
        <pt x="509" y="662" on="0"/>
        <pt x="453" y="662" on="1"/>
        <pt x="380" y="662" on="0"/>
        <pt x="270" y="602" on="0"/>
        <pt x="195" y="502" on="0"/>
        <pt x="157" y="382" on="0"/>
        <pt x="157" y="322" on="1"/>
        <pt x="157" y="258" on="0"/>
        <pt x="202" y="147" on="0"/>
        <pt x="296" y="79" on="0"/>
        <pt x="370" y="79" on="1"/>
        <pt x="424" y="79" on="0"/>
        <pt x="501" y="113" on="0"/>
        <pt x="554" y="163" on="0"/>
        <pt x="585" y="213" on="0"/>
        <pt x="598" y="247" on="0"/>
        <pt x="598" y="247" on="1"/>
        <pt x="697" y="247" on="1"/>
        <pt x="697" y="247" on="0"/>
        <pt x="685" y="210" on="0"/>
        <pt x="657" y="151" on="0"/>
        <pt x="607" y="86" on="0"/>
        <pt x="534" y="27" on="0"/>
        <pt x="431" y="-10" on="0"/>
      </contour>
    </TTGlyph>
    <TTGlyph name="D" xMin="29" yMin="0" xMax="677" yMax="740">
      <contour>
        <pt x="29" y="0" on="1"/>
        <pt x="186" y="740" on="1"/>
        <pt x="367" y="740" on="1"/>
        <pt x="447" y="740" on="0"/>
        <pt x="564" y="690" on="0"/>
        <pt x="640" y="603" on="0"/>
        <pt x="677" y="491" on="0"/>
        <pt x="677" y="430" on="1"/>
        <pt x="677" y="354" on="0"/>
        <pt x="622" y="202" on="0"/>
        <pt x="515" y="76" on="0"/>
        <pt x="360" y="0" on="0"/>
        <pt x="260" y="0" on="1"/>
      </contour>
      <contour>
        <pt x="355" y="654" on="1"/>
        <pt x="266" y="654" on="1"/>
        <pt x="145" y="86" on="1"/>
        <pt x="264" y="86" on="1"/>
        <pt x="338" y="86" on="0"/>
        <pt x="455" y="146" on="0"/>
        <pt x="536" y="246" on="0"/>
        <pt x="578" y="366" on="0"/>
        <pt x="578" y="425" on="1"/>
        <pt x="578" y="486" on="0"/>
        <pt x="531" y="590" on="0"/>
        <pt x="432" y="654" on="0"/>
      </contour>
    </TTGlyph>
    <TTGlyph name="Dcaron" xMin="29" yMin="0" xMax="677" yMax="982">
      <contour>
        <pt x="378" y="815" on="1"/>
        <pt x="292" y="982" on="1"/>
        <pt x="372" y="982" on="1"/>
        <pt x="425" y="875" on="1"/>
        <pt x="523" y="982" on="1"/>
        <pt x="615" y="982" on="1"/>
        <pt x="459" y="815" on="1"/>
      </contour>
      <contour>
        <pt x="29" y="0" on="1"/>
        <pt x="186" y="740" on="1"/>
        <pt x="367" y="740" on="1"/>
        <pt x="447" y="740" on="0"/>
        <pt x="564" y="690" on="0"/>
        <pt x="640" y="603" on="0"/>
        <pt x="677" y="491" on="0"/>
        <pt x="677" y="430" on="1"/>
        <pt x="677" y="354" on="0"/>
        <pt x="622" y="202" on="0"/>
        <pt x="515" y="76" on="0"/>
        <pt x="360" y="0" on="0"/>
        <pt x="260" y="0" on="1"/>
      </contour>
      <contour>
        <pt x="355" y="654" on="1"/>
        <pt x="266" y="654" on="1"/>
        <pt x="145" y="86" on="1"/>
        <pt x="264" y="86" on="1"/>
        <pt x="338" y="86" on="0"/>
        <pt x="455" y="146" on="0"/>
        <pt x="536" y="246" on="0"/>
        <pt x="578" y="366" on="0"/>
        <pt x="578" y="425" on="1"/>
        <pt x="578" y="486" on="0"/>
        <pt x="531" y="590" on="0"/>
        <pt x="432" y="654" on="0"/>
      </contour>
    </TTGlyph>
    <TTGlyph name="Dcroat" xMin="41" yMin="0" xMax="727" yMax="740">
      <contour>
        <pt x="79" y="0" on="1"/>
        <pt x="149" y="328" on="1"/>
        <pt x="41" y="328" on="1"/>
        <pt x="59" y="414" on="1"/>
        <pt x="167" y="414" on="1"/>
        <pt x="236" y="740" on="1"/>
        <pt x="417" y="740" on="1"/>
        <pt x="497" y="740" on="0"/>
        <pt x="614" y="690" on="0"/>
        <pt x="690" y="603" on="0"/>
        <pt x="727" y="491" on="0"/>
        <pt x="727" y="430" on="1"/>
        <pt x="727" y="354" on="0"/>
        <pt x="672" y="202" on="0"/>
        <pt x="565" y="76" on="0"/>
        <pt x="410" y="0" on="0"/>
        <pt x="310" y="0" on="1"/>
      </contour>
      <contour>
        <pt x="395" y="328" on="1"/>
        <pt x="247" y="328" on="1"/>
        <pt x="195" y="86" on="1"/>
        <pt x="314" y="86" on="1"/>
        <pt x="388" y="86" on="0"/>
        <pt x="505" y="146" on="0"/>
        <pt x="586" y="246" on="0"/>
        <pt x="628" y="366" on="0"/>
        <pt x="628" y="425" on="1"/>
        <pt x="628" y="486" on="0"/>
        <pt x="581" y="590" on="0"/>
        <pt x="482" y="654" on="0"/>
        <pt x="405" y="654" on="1"/>
        <pt x="316" y="654" on="1"/>
        <pt x="265" y="414" on="1"/>
        <pt x="413" y="414" on="1"/>
      </contour>
    </TTGlyph>
    <TTGlyph name="E" xMin="29" yMin="0" xMax="637" yMax="740">
      <contour>
        <pt x="29" y="0" on="1"/>
        <pt x="186" y="740" on="1"/>
        <pt x="637" y="740" on="1"/>
        <pt x="619" y="654" on="1"/>
        <pt x="266" y="654" on="1"/>
        <pt x="216" y="420" on="1"/>
        <pt x="523" y="420" on="1"/>
        <pt x="505" y="334" on="1"/>
        <pt x="198" y="334" on="1"/>
        <pt x="145" y="86" on="1"/>
        <pt x="503" y="86" on="1"/>
        <pt x="485" y="0" on="1"/>
      </contour>
    </TTGlyph>
    <TTGlyph name="Eacute" xMin="29" yMin="0" xMax="637" yMax="1001">
      <contour>
        <pt x="470" y="820" on="1"/>
        <pt x="392" y="821" on="1"/>
        <pt x="485" y="1001" on="1"/>
        <pt x="580" y="1001" on="1"/>
      </contour>
      <contour>
        <pt x="29" y="0" on="1"/>
        <pt x="186" y="740" on="1"/>
        <pt x="637" y="740" on="1"/>
        <pt x="619" y="654" on="1"/>
        <pt x="266" y="654" on="1"/>
        <pt x="216" y="420" on="1"/>
        <pt x="523" y="420" on="1"/>
        <pt x="505" y="334" on="1"/>
        <pt x="198" y="334" on="1"/>
        <pt x="145" y="86" on="1"/>
        <pt x="503" y="86" on="1"/>
        <pt x="485" y="0" on="1"/>
      </contour>
    </TTGlyph>
    <TTGlyph name="Ecaron" xMin="29" yMin="0" xMax="637" yMax="982">
      <contour>
        <pt x="378" y="815" on="1"/>
        <pt x="292" y="982" on="1"/>
        <pt x="372" y="982" on="1"/>
        <pt x="425" y="875" on="1"/>
        <pt x="523" y="982" on="1"/>
        <pt x="615" y="982" on="1"/>
        <pt x="459" y="815" on="1"/>
      </contour>
      <contour>
        <pt x="29" y="0" on="1"/>
        <pt x="186" y="740" on="1"/>
        <pt x="637" y="740" on="1"/>
        <pt x="619" y="654" on="1"/>
        <pt x="266" y="654" on="1"/>
        <pt x="216" y="420" on="1"/>
        <pt x="523" y="420" on="1"/>
        <pt x="505" y="334" on="1"/>
        <pt x="198" y="334" on="1"/>
        <pt x="145" y="86" on="1"/>
        <pt x="503" y="86" on="1"/>
        <pt x="485" y="0" on="1"/>
      </contour>
    </TTGlyph>
    <TTGlyph name="Ecircumflex" xMin="29" yMin="0" xMax="637" yMax="963">
      <contour>
        <pt x="252" y="816" on="1"/>
        <pt x="404" y="963" on="1"/>
        <pt x="485" y="963" on="1"/>
        <pt x="575" y="816" on="1"/>
        <pt x="495" y="816" on="1"/>
        <pt x="438" y="910" on="1"/>
        <pt x="344" y="816" on="1"/>
      </contour>
      <contour>
        <pt x="29" y="0" on="1"/>
        <pt x="186" y="740" on="1"/>
        <pt x="637" y="740" on="1"/>
        <pt x="619" y="654" on="1"/>
        <pt x="266" y="654" on="1"/>
        <pt x="216" y="420" on="1"/>
        <pt x="523" y="420" on="1"/>
        <pt x="505" y="334" on="1"/>
        <pt x="198" y="334" on="1"/>
        <pt x="145" y="86" on="1"/>
        <pt x="503" y="86" on="1"/>
        <pt x="485" y="0" on="1"/>
      </contour>
    </TTGlyph>
    <TTGlyph name="Edieresis" xMin="29" yMin="0" xMax="637" yMax="944">
      <contour>
        <pt x="532" y="821" on="1"/>
        <pt x="505" y="821" on="0"/>
        <pt x="470" y="857" on="0"/>
        <pt x="470" y="882" on="1"/>
        <pt x="470" y="908" on="0"/>
        <pt x="505" y="944" on="0"/>
        <pt x="532" y="944" on="1"/>
        <pt x="558" y="944" on="0"/>
        <pt x="594" y="908" on="0"/>
        <pt x="594" y="882" on="1"/>
        <pt x="594" y="857" on="0"/>
        <pt x="558" y="821" on="0"/>
      </contour>
      <contour>
        <pt x="342" y="821" on="1"/>
        <pt x="315" y="821" on="0"/>
        <pt x="280" y="857" on="0"/>
        <pt x="280" y="882" on="1"/>
        <pt x="280" y="908" on="0"/>
        <pt x="315" y="944" on="0"/>
        <pt x="342" y="944" on="1"/>
        <pt x="368" y="944" on="0"/>
        <pt x="404" y="908" on="0"/>
        <pt x="404" y="882" on="1"/>
        <pt x="404" y="857" on="0"/>
        <pt x="368" y="821" on="0"/>
      </contour>
      <contour>
        <pt x="29" y="0" on="1"/>
        <pt x="186" y="740" on="1"/>
        <pt x="637" y="740" on="1"/>
        <pt x="619" y="654" on="1"/>
        <pt x="266" y="654" on="1"/>
        <pt x="216" y="420" on="1"/>
        <pt x="523" y="420" on="1"/>
        <pt x="505" y="334" on="1"/>
        <pt x="198" y="334" on="1"/>
        <pt x="145" y="86" on="1"/>
        <pt x="503" y="86" on="1"/>
        <pt x="485" y="0" on="1"/>
      </contour>
    </TTGlyph>
    <TTGlyph name="Edotaccent" xMin="29" yMin="0" xMax="637" yMax="959">
      <contour>
        <pt x="441" y="836" on="1"/>
        <pt x="414" y="836" on="0"/>
        <pt x="379" y="872" on="0"/>
        <pt x="379" y="897" on="1"/>
        <pt x="379" y="923" on="0"/>
        <pt x="414" y="959" on="0"/>
        <pt x="441" y="959" on="1"/>
        <pt x="467" y="959" on="0"/>
        <pt x="503" y="923" on="0"/>
        <pt x="503" y="897" on="1"/>
        <pt x="503" y="872" on="0"/>
        <pt x="467" y="836" on="0"/>
      </contour>
      <contour>
        <pt x="29" y="0" on="1"/>
        <pt x="186" y="740" on="1"/>
        <pt x="637" y="740" on="1"/>
        <pt x="619" y="654" on="1"/>
        <pt x="266" y="654" on="1"/>
        <pt x="216" y="420" on="1"/>
        <pt x="523" y="420" on="1"/>
        <pt x="505" y="334" on="1"/>
        <pt x="198" y="334" on="1"/>
        <pt x="145" y="86" on="1"/>
        <pt x="503" y="86" on="1"/>
        <pt x="485" y="0" on="1"/>
      </contour>
    </TTGlyph>
    <TTGlyph name="Egrave" xMin="29" yMin="0" xMax="637" yMax="1001">
      <contour>
        <pt x="376" y="820" on="1"/>
        <pt x="293" y="1001" on="1"/>
        <pt x="386" y="1001" on="1"/>
        <pt x="452" y="821" on="1"/>
      </contour>
      <contour>
        <pt x="29" y="0" on="1"/>
        <pt x="186" y="740" on="1"/>
        <pt x="637" y="740" on="1"/>
        <pt x="619" y="654" on="1"/>
        <pt x="266" y="654" on="1"/>
        <pt x="216" y="420" on="1"/>
        <pt x="523" y="420" on="1"/>
        <pt x="505" y="334" on="1"/>
        <pt x="198" y="334" on="1"/>
        <pt x="145" y="86" on="1"/>
        <pt x="503" y="86" on="1"/>
        <pt x="485" y="0" on="1"/>
      </contour>
    </TTGlyph>
    <TTGlyph name="Emacron" xMin="29" yMin="0" xMax="637" yMax="923">
      <contour>
        <pt x="278" y="851" on="1"/>
        <pt x="294" y="923" on="1"/>
        <pt x="598" y="923" on="1"/>
        <pt x="582" y="851" on="1"/>
      </contour>
      <contour>
        <pt x="29" y="0" on="1"/>
        <pt x="186" y="740" on="1"/>
        <pt x="637" y="740" on="1"/>
        <pt x="619" y="654" on="1"/>
        <pt x="266" y="654" on="1"/>
        <pt x="216" y="420" on="1"/>
        <pt x="523" y="420" on="1"/>
        <pt x="505" y="334" on="1"/>
        <pt x="198" y="334" on="1"/>
        <pt x="145" y="86" on="1"/>
        <pt x="503" y="86" on="1"/>
        <pt x="485" y="0" on="1"/>
      </contour>
    </TTGlyph>
    <TTGlyph name="Eogonek" xMin="29" yMin="-167" xMax="637" yMax="740">
      <contour>
        <pt x="29" y="0" on="1"/>
        <pt x="186" y="740" on="1"/>
        <pt x="637" y="740" on="1"/>
        <pt x="619" y="654" on="1"/>
        <pt x="266" y="654" on="1"/>
        <pt x="216" y="420" on="1"/>
        <pt x="523" y="420" on="1"/>
        <pt x="505" y="334" on="1"/>
        <pt x="198" y="334" on="1"/>
        <pt x="145" y="86" on="1"/>
        <pt x="503" y="86" on="1"/>
        <pt x="485" y="0" on="1"/>
        <pt x="485" y="0" on="0"/>
        <pt x="464" y="-9" on="0"/>
        <pt x="436" y="-27" on="0"/>
        <pt x="415" y="-54" on="0"/>
        <pt x="415" y="-72" on="1"/>
        <pt x="415" y="-108" on="0"/>
        <pt x="465" y="-108" on="1"/>
        <pt x="479" y="-108" on="0"/>
        <pt x="502" y="-103" on="0"/>
        <pt x="502" y="-103" on="1"/>
        <pt x="490" y="-161" on="1"/>
        <pt x="490" y="-161" on="0"/>
        <pt x="464" y="-167" on="0"/>
        <pt x="443" y="-167" on="1"/>
        <pt x="394" y="-167" on="0"/>
        <pt x="342" y="-124" on="0"/>
        <pt x="342" y="-90" on="1"/>
        <pt x="342" y="-56" on="0"/>
        <pt x="383" y="-12" on="0"/>
        <pt x="406" y="0" on="1"/>
      </contour>
    </TTGlyph>
    <TTGlyph name="Eth" xMin="41" yMin="0" xMax="727" yMax="740">
      <contour>
        <pt x="79" y="0" on="1"/>
        <pt x="149" y="328" on="1"/>
        <pt x="41" y="328" on="1"/>
        <pt x="59" y="414" on="1"/>
        <pt x="167" y="414" on="1"/>
        <pt x="236" y="740" on="1"/>
        <pt x="417" y="740" on="1"/>
        <pt x="497" y="740" on="0"/>
        <pt x="614" y="690" on="0"/>
        <pt x="690" y="603" on="0"/>
        <pt x="727" y="491" on="0"/>
        <pt x="727" y="430" on="1"/>
        <pt x="727" y="354" on="0"/>
        <pt x="672" y="202" on="0"/>
        <pt x="565" y="76" on="0"/>
        <pt x="410" y="0" on="0"/>
        <pt x="310" y="0" on="1"/>
      </contour>
      <contour>
        <pt x="395" y="328" on="1"/>
        <pt x="247" y="328" on="1"/>
        <pt x="195" y="86" on="1"/>
        <pt x="314" y="86" on="1"/>
        <pt x="388" y="86" on="0"/>
        <pt x="505" y="146" on="0"/>
        <pt x="586" y="246" on="0"/>
        <pt x="628" y="366" on="0"/>
        <pt x="628" y="425" on="1"/>
        <pt x="628" y="486" on="0"/>
        <pt x="581" y="590" on="0"/>
        <pt x="482" y="654" on="0"/>
        <pt x="405" y="654" on="1"/>
        <pt x="316" y="654" on="1"/>
        <pt x="265" y="414" on="1"/>
        <pt x="413" y="414" on="1"/>
      </contour>
    </TTGlyph>
    <TTGlyph name="Euro" xMin="30" yMin="-10" xMax="747" yMax="750">
      <contour>
        <pt x="30" y="262" on="1"/>
        <pt x="45" y="334" on="1"/>
        <pt x="161" y="334" on="1"/>
        <pt x="161" y="371" on="0"/>
        <pt x="168" y="407" on="1"/>
        <pt x="61" y="407" on="1"/>
        <pt x="76" y="479" on="1"/>
        <pt x="187" y="479" on="1"/>
        <pt x="213" y="553" on="0"/>
        <pt x="318" y="676" on="0"/>
        <pt x="474" y="750" on="0"/>
        <pt x="577" y="750" on="1"/>
        <pt x="624" y="750" on="0"/>
        <pt x="701" y="738" on="0"/>
        <pt x="747" y="726" on="0"/>
        <pt x="747" y="726" on="1"/>
        <pt x="728" y="639" on="1"/>
        <pt x="728" y="639" on="0"/>
        <pt x="684" y="651" on="0"/>
        <pt x="615" y="663" on="0"/>
        <pt x="576" y="663" on="1"/>
        <pt x="503" y="663" on="0"/>
        <pt x="391" y="614" on="0"/>
        <pt x="312" y="530" on="0"/>
        <pt x="289" y="479" on="1"/>
        <pt x="545" y="479" on="1"/>
        <pt x="530" y="407" on="1"/>
        <pt x="266" y="407" on="1"/>
        <pt x="259" y="373" on="0"/>
        <pt x="259" y="338" on="1"/>
        <pt x="259" y="335" on="0"/>
        <pt x="259" y="334" on="1"/>
        <pt x="514" y="334" on="1"/>
        <pt x="499" y="262" on="1"/>
        <pt x="268" y="262" on="1"/>
        <pt x="280" y="210" on="0"/>
        <pt x="342" y="126" on="0"/>
        <pt x="439" y="76" on="0"/>
        <pt x="507" y="76" on="1"/>
        <pt x="547" y="76" on="0"/>
        <pt x="621" y="90" on="0"/>
        <pt x="669" y="104" on="0"/>
        <pt x="669" y="104" on="1"/>
        <pt x="650" y="15" on="1"/>
        <pt x="650" y="15" on="0"/>
        <pt x="611" y="3" on="0"/>
        <pt x="542" y="-10" on="0"/>
        <pt x="496" y="-10" on="1"/>
        <pt x="398" y="-10" on="0"/>
        <pt x="260" y="64" on="0"/>
        <pt x="179" y="188" on="0"/>
        <pt x="167" y="262" on="1"/>
      </contour>
    </TTGlyph>
    <TTGlyph name="F" xMin="29" yMin="0" xMax="645" yMax="740">
      <contour>
        <pt x="29" y="0" on="1"/>
        <pt x="186" y="740" on="1"/>
        <pt x="645" y="740" on="1"/>
        <pt x="627" y="654" on="1"/>
        <pt x="266" y="654" on="1"/>
        <pt x="214" y="410" on="1"/>
        <pt x="529" y="410" on="1"/>
        <pt x="511" y="324" on="1"/>
        <pt x="196" y="324" on="1"/>
        <pt x="127" y="0" on="1"/>
      </contour>
    </TTGlyph>
    <TTGlyph name="G" xMin="58" yMin="-10" xMax="732" yMax="750">
      <contour>
        <pt x="366" y="-10" on="1"/>
        <pt x="288" y="-10" on="0"/>
        <pt x="172" y="43" on="0"/>
        <pt x="96" y="134" on="0"/>
        <pt x="58" y="251" on="0"/>
        <pt x="58" y="316" on="1"/>
        <pt x="58" y="393" on="0"/>
        <pt x="109" y="546" on="0"/>
        <pt x="210" y="673" on="0"/>
        <pt x="359" y="750" on="0"/>
        <pt x="458" y="750" on="1"/>
        <pt x="528" y="750" on="0"/>
        <pt x="624" y="713" on="0"/>
        <pt x="684" y="654" on="0"/>
        <pt x="716" y="589" on="0"/>
        <pt x="730" y="530" on="0"/>
        <pt x="732" y="493" on="0"/>
        <pt x="732" y="493" on="1"/>
        <pt x="634" y="493" on="1"/>
        <pt x="634" y="493" on="0"/>
        <pt x="631" y="527" on="0"/>
        <pt x="616" y="577" on="0"/>
        <pt x="578" y="628" on="0"/>
        <pt x="508" y="662" on="0"/>
        <pt x="452" y="662" on="1"/>
        <pt x="380" y="662" on="0"/>
        <pt x="269" y="602" on="0"/>
        <pt x="195" y="502" on="0"/>
        <pt x="157" y="383" on="0"/>
        <pt x="157" y="323" on="1"/>
        <pt x="157" y="259" on="0"/>
        <pt x="203" y="147" on="0"/>
        <pt x="300" y="79" on="0"/>
        <pt x="374" y="79" on="1"/>
        <pt x="440" y="79" on="0"/>
        <pt x="540" y="139" on="0"/>
        <pt x="603" y="241" on="0"/>
        <pt x="615" y="304" on="1"/>
        <pt x="404" y="304" on="1"/>
        <pt x="421" y="383" on="1"/>
        <pt x="724" y="383" on="1"/>
        <pt x="717" y="330" on="1"/>
        <pt x="704" y="231" on="0"/>
        <pt x="613" y="78" on="0"/>
        <pt x="465" y="-10" on="0"/>
      </contour>
    </TTGlyph>
    <TTGlyph name="Gbreve" xMin="58" yMin="-10" xMax="732" yMax="967">
      <contour>
        <pt x="497" y="815" on="1"/>
        <pt x="449" y="815" on="0"/>
        <pt x="392" y="846" on="0"/>
        <pt x="364" y="891" on="0"/>
        <pt x="355" y="936" on="0"/>
        <pt x="356" y="967" on="0"/>
        <pt x="356" y="967" on="1"/>
        <pt x="427" y="967" on="1"/>
        <pt x="427" y="967" on="0"/>
        <pt x="426" y="940" on="0"/>
        <pt x="435" y="906" on="0"/>
        <pt x="465" y="879" on="0"/>
        <pt x="497" y="879" on="1"/>
        <pt x="530" y="879" on="0"/>
        <pt x="572" y="906" on="0"/>
        <pt x="596" y="940" on="0"/>
        <pt x="605" y="967" on="0"/>
        <pt x="605" y="967" on="1"/>
        <pt x="676" y="967" on="1"/>
        <pt x="676" y="967" on="0"/>
        <pt x="669" y="936" on="0"/>
        <pt x="649" y="891" on="0"/>
        <pt x="609" y="846" on="0"/>
        <pt x="545" y="815" on="0"/>
      </contour>
      <contour>
        <pt x="366" y="-10" on="1"/>
        <pt x="288" y="-10" on="0"/>
        <pt x="172" y="43" on="0"/>
        <pt x="96" y="134" on="0"/>
        <pt x="58" y="251" on="0"/>
        <pt x="58" y="316" on="1"/>
        <pt x="58" y="393" on="0"/>
        <pt x="109" y="546" on="0"/>
        <pt x="210" y="673" on="0"/>
        <pt x="359" y="750" on="0"/>
        <pt x="458" y="750" on="1"/>
        <pt x="528" y="750" on="0"/>
        <pt x="624" y="713" on="0"/>
        <pt x="684" y="654" on="0"/>
        <pt x="716" y="589" on="0"/>
        <pt x="730" y="530" on="0"/>
        <pt x="732" y="493" on="0"/>
        <pt x="732" y="493" on="1"/>
        <pt x="634" y="493" on="1"/>
        <pt x="634" y="493" on="0"/>
        <pt x="631" y="527" on="0"/>
        <pt x="616" y="577" on="0"/>
        <pt x="578" y="628" on="0"/>
        <pt x="508" y="662" on="0"/>
        <pt x="452" y="662" on="1"/>
        <pt x="380" y="662" on="0"/>
        <pt x="269" y="602" on="0"/>
        <pt x="195" y="502" on="0"/>
        <pt x="157" y="383" on="0"/>
        <pt x="157" y="323" on="1"/>
        <pt x="157" y="259" on="0"/>
        <pt x="203" y="147" on="0"/>
        <pt x="300" y="79" on="0"/>
        <pt x="374" y="79" on="1"/>
        <pt x="440" y="79" on="0"/>
        <pt x="540" y="139" on="0"/>
        <pt x="603" y="241" on="0"/>
        <pt x="615" y="304" on="1"/>
        <pt x="404" y="304" on="1"/>
        <pt x="421" y="383" on="1"/>
        <pt x="724" y="383" on="1"/>
        <pt x="717" y="330" on="1"/>
        <pt x="704" y="231" on="0"/>
        <pt x="613" y="78" on="0"/>
        <pt x="465" y="-10" on="0"/>
      </contour>
    </TTGlyph>
    <TTGlyph name="Gcaron" xMin="58" yMin="-10" xMax="732" yMax="982">
      <contour>
        <pt x="439" y="815" on="1"/>
        <pt x="353" y="982" on="1"/>
        <pt x="433" y="982" on="1"/>
        <pt x="486" y="875" on="1"/>
        <pt x="584" y="982" on="1"/>
        <pt x="676" y="982" on="1"/>
        <pt x="520" y="815" on="1"/>
      </contour>
      <contour>
        <pt x="366" y="-10" on="1"/>
        <pt x="288" y="-10" on="0"/>
        <pt x="172" y="43" on="0"/>
        <pt x="96" y="134" on="0"/>
        <pt x="58" y="251" on="0"/>
        <pt x="58" y="316" on="1"/>
        <pt x="58" y="393" on="0"/>
        <pt x="109" y="546" on="0"/>
        <pt x="210" y="673" on="0"/>
        <pt x="359" y="750" on="0"/>
        <pt x="458" y="750" on="1"/>
        <pt x="528" y="750" on="0"/>
        <pt x="624" y="713" on="0"/>
        <pt x="684" y="654" on="0"/>
        <pt x="716" y="589" on="0"/>
        <pt x="730" y="530" on="0"/>
        <pt x="732" y="493" on="0"/>
        <pt x="732" y="493" on="1"/>
        <pt x="634" y="493" on="1"/>
        <pt x="634" y="493" on="0"/>
        <pt x="631" y="527" on="0"/>
        <pt x="616" y="577" on="0"/>
        <pt x="578" y="628" on="0"/>
        <pt x="508" y="662" on="0"/>
        <pt x="452" y="662" on="1"/>
        <pt x="380" y="662" on="0"/>
        <pt x="269" y="602" on="0"/>
        <pt x="195" y="502" on="0"/>
        <pt x="157" y="383" on="0"/>
        <pt x="157" y="323" on="1"/>
        <pt x="157" y="259" on="0"/>
        <pt x="203" y="147" on="0"/>
        <pt x="300" y="79" on="0"/>
        <pt x="374" y="79" on="1"/>
        <pt x="440" y="79" on="0"/>
        <pt x="540" y="139" on="0"/>
        <pt x="603" y="241" on="0"/>
        <pt x="615" y="304" on="1"/>
        <pt x="404" y="304" on="1"/>
        <pt x="421" y="383" on="1"/>
        <pt x="724" y="383" on="1"/>
        <pt x="717" y="330" on="1"/>
        <pt x="704" y="231" on="0"/>
        <pt x="613" y="78" on="0"/>
        <pt x="465" y="-10" on="0"/>
      </contour>
    </TTGlyph>
    <TTGlyph name="Gdotaccent" xMin="58" yMin="-10" xMax="732" yMax="959">
      <contour>
        <pt x="502" y="836" on="1"/>
        <pt x="475" y="836" on="0"/>
        <pt x="440" y="872" on="0"/>
        <pt x="440" y="897" on="1"/>
        <pt x="440" y="923" on="0"/>
        <pt x="475" y="959" on="0"/>
        <pt x="502" y="959" on="1"/>
        <pt x="528" y="959" on="0"/>
        <pt x="564" y="923" on="0"/>
        <pt x="564" y="897" on="1"/>
        <pt x="564" y="872" on="0"/>
        <pt x="528" y="836" on="0"/>
      </contour>
      <contour>
        <pt x="366" y="-10" on="1"/>
        <pt x="288" y="-10" on="0"/>
        <pt x="172" y="43" on="0"/>
        <pt x="96" y="134" on="0"/>
        <pt x="58" y="251" on="0"/>
        <pt x="58" y="316" on="1"/>
        <pt x="58" y="393" on="0"/>
        <pt x="109" y="546" on="0"/>
        <pt x="210" y="673" on="0"/>
        <pt x="359" y="750" on="0"/>
        <pt x="458" y="750" on="1"/>
        <pt x="528" y="750" on="0"/>
        <pt x="624" y="713" on="0"/>
        <pt x="684" y="654" on="0"/>
        <pt x="716" y="589" on="0"/>
        <pt x="730" y="530" on="0"/>
        <pt x="732" y="493" on="0"/>
        <pt x="732" y="493" on="1"/>
        <pt x="634" y="493" on="1"/>
        <pt x="634" y="493" on="0"/>
        <pt x="631" y="527" on="0"/>
        <pt x="616" y="577" on="0"/>
        <pt x="578" y="628" on="0"/>
        <pt x="508" y="662" on="0"/>
        <pt x="452" y="662" on="1"/>
        <pt x="380" y="662" on="0"/>
        <pt x="269" y="602" on="0"/>
        <pt x="195" y="502" on="0"/>
        <pt x="157" y="383" on="0"/>
        <pt x="157" y="323" on="1"/>
        <pt x="157" y="259" on="0"/>
        <pt x="203" y="147" on="0"/>
        <pt x="300" y="79" on="0"/>
        <pt x="374" y="79" on="1"/>
        <pt x="440" y="79" on="0"/>
        <pt x="540" y="139" on="0"/>
        <pt x="603" y="241" on="0"/>
        <pt x="615" y="304" on="1"/>
        <pt x="404" y="304" on="1"/>
        <pt x="421" y="383" on="1"/>
        <pt x="724" y="383" on="1"/>
        <pt x="717" y="330" on="1"/>
        <pt x="704" y="231" on="0"/>
        <pt x="613" y="78" on="0"/>
        <pt x="465" y="-10" on="0"/>
      </contour>
    </TTGlyph>
    <TTGlyph name="H" xMin="29" yMin="0" xMax="725" yMax="740">
      <contour>
        <pt x="29" y="0" on="1"/>
        <pt x="186" y="740" on="1"/>
        <pt x="284" y="740" on="1"/>
        <pt x="216" y="419" on="1"/>
        <pt x="559" y="419" on="1"/>
        <pt x="627" y="740" on="1"/>
        <pt x="725" y="740" on="1"/>
        <pt x="568" y="0" on="1"/>
        <pt x="470" y="0" on="1"/>
        <pt x="540" y="331" on="1"/>
        <pt x="197" y="331" on="1"/>
        <pt x="127" y="0" on="1"/>
      </contour>
    </TTGlyph>
    <TTGlyph name="Hbar" xMin="56" yMin="0" xMax="835" yMax="740">
      <contour>
        <pt x="56" y="0" on="1"/>
        <pt x="179" y="579" on="1"/>
        <pt x="102" y="579" on="1"/>
        <pt x="120" y="667" on="1"/>
        <pt x="198" y="667" on="1"/>
        <pt x="213" y="740" on="1"/>
        <pt x="311" y="740" on="1"/>
        <pt x="296" y="667" on="1"/>
        <pt x="639" y="667" on="1"/>
        <pt x="654" y="740" on="1"/>
        <pt x="752" y="740" on="1"/>
        <pt x="737" y="667" on="1"/>
        <pt x="835" y="667" on="1"/>
        <pt x="816" y="579" on="1"/>
        <pt x="718" y="579" on="1"/>
        <pt x="595" y="0" on="1"/>
        <pt x="497" y="0" on="1"/>
        <pt x="567" y="331" on="1"/>
        <pt x="224" y="331" on="1"/>
        <pt x="154" y="0" on="1"/>
      </contour>
      <contour>
        <pt x="243" y="419" on="1"/>
        <pt x="586" y="419" on="1"/>
        <pt x="620" y="579" on="1"/>
        <pt x="277" y="579" on="1"/>
      </contour>
    </TTGlyph>
    <TTGlyph name="I" xMin="29" yMin="0" xMax="284" yMax="740">
      <contour>
        <pt x="29" y="0" on="1"/>
        <pt x="186" y="740" on="1"/>
        <pt x="284" y="740" on="1"/>
        <pt x="127" y="0" on="1"/>
      </contour>
    </TTGlyph>
    <TTGlyph name="Iacute" xMin="29" yMin="0" xMax="400" yMax="961">
      <contour>
        <pt x="290" y="780" on="1"/>
        <pt x="212" y="781" on="1"/>
        <pt x="305" y="961" on="1"/>
        <pt x="400" y="961" on="1"/>
      </contour>
      <contour>
        <pt x="29" y="0" on="1"/>
        <pt x="186" y="740" on="1"/>
        <pt x="284" y="740" on="1"/>
        <pt x="127" y="0" on="1"/>
      </contour>
    </TTGlyph>
    <TTGlyph name="Icircumflex" xMin="29" yMin="0" xMax="405" yMax="943">
      <contour>
        <pt x="82" y="776" on="1"/>
        <pt x="238" y="943" on="1"/>
        <pt x="319" y="943" on="1"/>
        <pt x="405" y="776" on="1"/>
        <pt x="325" y="776" on="1"/>
        <pt x="272" y="883" on="1"/>
        <pt x="174" y="776" on="1"/>
      </contour>
      <contour>
        <pt x="29" y="0" on="1"/>
        <pt x="186" y="740" on="1"/>
        <pt x="284" y="740" on="1"/>
        <pt x="127" y="0" on="1"/>
      </contour>
    </TTGlyph>
    <TTGlyph name="Idieresis" xMin="29" yMin="0" xMax="414" yMax="904">
      <contour>
        <pt x="352" y="781" on="1"/>
        <pt x="325" y="781" on="0"/>
        <pt x="290" y="817" on="0"/>
        <pt x="290" y="842" on="1"/>
        <pt x="290" y="868" on="0"/>
        <pt x="325" y="904" on="0"/>
        <pt x="352" y="904" on="1"/>
        <pt x="378" y="904" on="0"/>
        <pt x="414" y="868" on="0"/>
        <pt x="414" y="842" on="1"/>
        <pt x="414" y="817" on="0"/>
        <pt x="378" y="781" on="0"/>
      </contour>
      <contour>
        <pt x="162" y="781" on="1"/>
        <pt x="135" y="781" on="0"/>
        <pt x="100" y="817" on="0"/>
        <pt x="100" y="842" on="1"/>
        <pt x="100" y="868" on="0"/>
        <pt x="135" y="904" on="0"/>
        <pt x="162" y="904" on="1"/>
        <pt x="188" y="904" on="0"/>
        <pt x="224" y="868" on="0"/>
        <pt x="224" y="842" on="1"/>
        <pt x="224" y="817" on="0"/>
        <pt x="188" y="781" on="0"/>
      </contour>
      <contour>
        <pt x="29" y="0" on="1"/>
        <pt x="186" y="740" on="1"/>
        <pt x="284" y="740" on="1"/>
        <pt x="127" y="0" on="1"/>
      </contour>
    </TTGlyph>
    <TTGlyph name="Idotaccent" xMin="29" yMin="0" xMax="323" yMax="919">
      <contour>
        <pt x="261" y="796" on="1"/>
        <pt x="234" y="796" on="0"/>
        <pt x="199" y="832" on="0"/>
        <pt x="199" y="857" on="1"/>
        <pt x="199" y="883" on="0"/>
        <pt x="234" y="919" on="0"/>
        <pt x="261" y="919" on="1"/>
        <pt x="287" y="919" on="0"/>
        <pt x="323" y="883" on="0"/>
        <pt x="323" y="857" on="1"/>
        <pt x="323" y="832" on="0"/>
        <pt x="287" y="796" on="0"/>
      </contour>
      <contour>
        <pt x="29" y="0" on="1"/>
        <pt x="186" y="740" on="1"/>
        <pt x="284" y="740" on="1"/>
        <pt x="127" y="0" on="1"/>
      </contour>
    </TTGlyph>
    <TTGlyph name="Igrave" xMin="29" yMin="0" xMax="284" yMax="961">
      <contour>
        <pt x="196" y="780" on="1"/>
        <pt x="113" y="961" on="1"/>
        <pt x="206" y="961" on="1"/>
        <pt x="272" y="781" on="1"/>
      </contour>
      <contour>
        <pt x="29" y="0" on="1"/>
        <pt x="186" y="740" on="1"/>
        <pt x="284" y="740" on="1"/>
        <pt x="127" y="0" on="1"/>
      </contour>
    </TTGlyph>
    <TTGlyph name="Imacron" xMin="29" yMin="0" xMax="418" yMax="883">
      <contour>
        <pt x="98" y="811" on="1"/>
        <pt x="114" y="883" on="1"/>
        <pt x="418" y="883" on="1"/>
        <pt x="402" y="811" on="1"/>
      </contour>
      <contour>
        <pt x="29" y="0" on="1"/>
        <pt x="186" y="740" on="1"/>
        <pt x="284" y="740" on="1"/>
        <pt x="127" y="0" on="1"/>
      </contour>
    </TTGlyph>
    <TTGlyph name="Iogonek" xMin="-16" yMin="-167" xMax="284" yMax="740">
      <contour>
        <pt x="29" y="0" on="1"/>
        <pt x="186" y="740" on="1"/>
        <pt x="284" y="740" on="1"/>
        <pt x="127" y="0" on="1"/>
        <pt x="127" y="0" on="0"/>
        <pt x="106" y="-9" on="0"/>
        <pt x="78" y="-27" on="0"/>
        <pt x="57" y="-54" on="0"/>
        <pt x="57" y="-72" on="1"/>
        <pt x="57" y="-108" on="0"/>
        <pt x="107" y="-108" on="1"/>
        <pt x="121" y="-108" on="0"/>
        <pt x="144" y="-103" on="0"/>
        <pt x="144" y="-103" on="1"/>
        <pt x="132" y="-161" on="1"/>
        <pt x="132" y="-161" on="0"/>
        <pt x="106" y="-167" on="0"/>
        <pt x="85" y="-167" on="1"/>
        <pt x="36" y="-167" on="0"/>
        <pt x="-16" y="-124" on="0"/>
        <pt x="-16" y="-90" on="1"/>
        <pt x="-16" y="-56" on="0"/>
        <pt x="25" y="-12" on="0"/>
        <pt x="48" y="0" on="1"/>
      </contour>
    </TTGlyph>
    <TTGlyph name="Itilde" xMin="29" yMin="0" xMax="428" yMax="923">
      <contour>
        <pt x="325" y="786" on="1"/>
        <pt x="299" y="786" on="0"/>
        <pt x="263" y="807" on="0"/>
        <pt x="236" y="836" on="0"/>
        <pt x="212" y="857" on="0"/>
        <pt x="198" y="857" on="1"/>
        <pt x="182" y="857" on="0"/>
        <pt x="162" y="823" on="0"/>
        <pt x="157" y="792" on="1"/>
        <pt x="95" y="792" on="1"/>
        <pt x="106" y="851" on="0"/>
        <pt x="153" y="923" on="0"/>
        <pt x="199" y="923" on="1"/>
        <pt x="226" y="923" on="0"/>
        <pt x="262" y="902" on="0"/>
        <pt x="289" y="875" on="0"/>
        <pt x="312" y="854" on="0"/>
        <pt x="326" y="854" on="1"/>
        <pt x="343" y="854" on="0"/>
        <pt x="361" y="887" on="0"/>
        <pt x="366" y="918" on="1"/>
        <pt x="428" y="918" on="1"/>
        <pt x="417" y="860" on="0"/>
        <pt x="371" y="786" on="0"/>
      </contour>
      <contour>
        <pt x="29" y="0" on="1"/>
        <pt x="186" y="740" on="1"/>
        <pt x="284" y="740" on="1"/>
        <pt x="127" y="0" on="1"/>
      </contour>
    </TTGlyph>
    <TTGlyph name="J" xMin="-8" yMin="-10" xMax="495" yMax="740">
      <contour>
        <pt x="85" y="-10" on="1"/>
        <pt x="47" y="-10" on="0"/>
        <pt x="-8" y="2" on="0"/>
        <pt x="-8" y="2" on="1"/>
        <pt x="10" y="89" on="1"/>
        <pt x="10" y="89" on="0"/>
        <pt x="35" y="84" on="0"/>
        <pt x="73" y="79" on="0"/>
        <pt x="91" y="79" on="1"/>
        <pt x="152" y="79" on="0"/>
        <pt x="234" y="123" on="0"/>
        <pt x="282" y="200" on="0"/>
        <pt x="292" y="248" on="1"/>
        <pt x="397" y="740" on="1"/>
        <pt x="495" y="740" on="1"/>
        <pt x="390" y="248" on="1"/>
        <pt x="374" y="170" on="0"/>
        <pt x="300" y="54" on="0"/>
        <pt x="177" y="-10" on="0"/>
      </contour>
    </TTGlyph>
    <TTGlyph name="K" xMin="29" yMin="0" xMax="716" yMax="740">
      <contour>
        <pt x="29" y="0" on="1"/>
        <pt x="186" y="740" on="1"/>
        <pt x="284" y="740" on="1"/>
        <pt x="216" y="421" on="1"/>
        <pt x="580" y="739" on="1"/>
        <pt x="716" y="739" on="1"/>
        <pt x="290" y="372" on="1"/>
        <pt x="571" y="0" on="1"/>
        <pt x="454" y="0" on="1"/>
        <pt x="199" y="340" on="1"/>
        <pt x="127" y="0" on="1"/>
      </contour>
    </TTGlyph>
    <TTGlyph name="L" xMin="29" yMin="0" xMax="497" yMax="740">
      <contour>
        <pt x="29" y="0" on="1"/>
        <pt x="186" y="740" on="1"/>
        <pt x="284" y="740" on="1"/>
        <pt x="145" y="86" on="1"/>
        <pt x="497" y="86" on="1"/>
        <pt x="479" y="0" on="1"/>
      </contour>
    </TTGlyph>
    <TTGlyph name="Lacute" xMin="29" yMin="0" xMax="497" yMax="1001">
      <contour>
        <pt x="300" y="820" on="1"/>
        <pt x="222" y="821" on="1"/>
        <pt x="315" y="1001" on="1"/>
        <pt x="410" y="1001" on="1"/>
      </contour>
      <contour>
        <pt x="29" y="0" on="1"/>
        <pt x="186" y="740" on="1"/>
        <pt x="284" y="740" on="1"/>
        <pt x="145" y="86" on="1"/>
        <pt x="497" y="86" on="1"/>
        <pt x="479" y="0" on="1"/>
      </contour>
    </TTGlyph>
    <TTGlyph name="Lcaron" xMin="29" yMin="0" xMax="497" yMax="982">
      <contour>
        <pt x="208" y="815" on="1"/>
        <pt x="122" y="982" on="1"/>
        <pt x="202" y="982" on="1"/>
        <pt x="255" y="875" on="1"/>
        <pt x="353" y="982" on="1"/>
        <pt x="445" y="982" on="1"/>
        <pt x="289" y="815" on="1"/>
      </contour>
      <contour>
        <pt x="29" y="0" on="1"/>
        <pt x="186" y="740" on="1"/>
        <pt x="284" y="740" on="1"/>
        <pt x="145" y="86" on="1"/>
        <pt x="497" y="86" on="1"/>
        <pt x="479" y="0" on="1"/>
      </contour>
    </TTGlyph>
    <TTGlyph name="Lslash" xMin="24" yMin="0" xMax="551" yMax="740">
      <contour>
        <pt x="83" y="0" on="1"/>
        <pt x="153" y="331" on="1"/>
        <pt x="24" y="295" on="1"/>
        <pt x="41" y="382" on="1"/>
        <pt x="172" y="418" on="1"/>
        <pt x="240" y="740" on="1"/>
        <pt x="338" y="740" on="1"/>
        <pt x="276" y="447" on="1"/>
        <pt x="425" y="488" on="1"/>
        <pt x="408" y="401" on="1"/>
        <pt x="257" y="359" on="1"/>
        <pt x="199" y="86" on="1"/>
        <pt x="551" y="86" on="1"/>
        <pt x="533" y="0" on="1"/>
      </contour>
    </TTGlyph>
    <TTGlyph name="M" xMin="29" yMin="0" xMax="879" yMax="740">
      <contour>
        <pt x="29" y="0" on="1"/>
        <pt x="186" y="740" on="1"/>
        <pt x="315" y="740" on="1"/>
        <pt x="439" y="300" on="1"/>
        <pt x="750" y="740" on="1"/>
        <pt x="879" y="740" on="1"/>
        <pt x="722" y="0" on="1"/>
        <pt x="624" y="0" on="1"/>
        <pt x="747" y="578" on="1"/>
        <pt x="469" y="190" on="1"/>
        <pt x="374" y="190" on="1"/>
        <pt x="255" y="605" on="1"/>
        <pt x="127" y="0" on="1"/>
      </contour>
    </TTGlyph>
    <TTGlyph name="N" xMin="29" yMin="0" xMax="758" yMax="740">
      <contour>
        <pt x="29" y="0" on="1"/>
        <pt x="186" y="740" on="1"/>
        <pt x="274" y="740" on="1"/>
        <pt x="541" y="177" on="1"/>
        <pt x="660" y="740" on="1"/>
        <pt x="758" y="740" on="1"/>
        <pt x="601" y="0" on="1"/>
        <pt x="513" y="0" on="1"/>
        <pt x="247" y="562" on="1"/>
        <pt x="127" y="0" on="1"/>
      </contour>
    </TTGlyph>
    <TTGlyph name="Nacute" xMin="29" yMin="0" xMax="758" yMax="1001">
      <contour>
        <pt x="533" y="820" on="1"/>
        <pt x="455" y="821" on="1"/>
        <pt x="548" y="1001" on="1"/>
        <pt x="643" y="1001" on="1"/>
      </contour>
      <contour>
        <pt x="29" y="0" on="1"/>
        <pt x="186" y="740" on="1"/>
        <pt x="274" y="740" on="1"/>
        <pt x="541" y="177" on="1"/>
        <pt x="660" y="740" on="1"/>
        <pt x="758" y="740" on="1"/>
        <pt x="601" y="0" on="1"/>
        <pt x="513" y="0" on="1"/>
        <pt x="247" y="562" on="1"/>
        <pt x="127" y="0" on="1"/>
      </contour>
    </TTGlyph>
    <TTGlyph name="Ncaron" xMin="29" yMin="0" xMax="758" yMax="982">
      <contour>
        <pt x="441" y="815" on="1"/>
        <pt x="355" y="982" on="1"/>
        <pt x="435" y="982" on="1"/>
        <pt x="488" y="875" on="1"/>
        <pt x="586" y="982" on="1"/>
        <pt x="678" y="982" on="1"/>
        <pt x="522" y="815" on="1"/>
      </contour>
      <contour>
        <pt x="29" y="0" on="1"/>
        <pt x="186" y="740" on="1"/>
        <pt x="274" y="740" on="1"/>
        <pt x="541" y="177" on="1"/>
        <pt x="660" y="740" on="1"/>
        <pt x="758" y="740" on="1"/>
        <pt x="601" y="0" on="1"/>
        <pt x="513" y="0" on="1"/>
        <pt x="247" y="562" on="1"/>
        <pt x="127" y="0" on="1"/>
      </contour>
    </TTGlyph>
    <TTGlyph name="Ntilde" xMin="29" yMin="0" xMax="758" yMax="963">
      <contour>
        <pt x="568" y="826" on="1"/>
        <pt x="542" y="826" on="0"/>
        <pt x="506" y="847" on="0"/>
        <pt x="479" y="876" on="0"/>
        <pt x="455" y="897" on="0"/>
        <pt x="441" y="897" on="1"/>
        <pt x="425" y="897" on="0"/>
        <pt x="405" y="863" on="0"/>
        <pt x="400" y="832" on="1"/>
        <pt x="338" y="832" on="1"/>
        <pt x="349" y="891" on="0"/>
        <pt x="396" y="963" on="0"/>
        <pt x="442" y="963" on="1"/>
        <pt x="469" y="963" on="0"/>
        <pt x="505" y="942" on="0"/>
        <pt x="532" y="915" on="0"/>
        <pt x="555" y="894" on="0"/>
        <pt x="569" y="894" on="1"/>
        <pt x="586" y="894" on="0"/>
        <pt x="604" y="927" on="0"/>
        <pt x="609" y="958" on="1"/>
        <pt x="671" y="958" on="1"/>
        <pt x="660" y="900" on="0"/>
        <pt x="614" y="826" on="0"/>
      </contour>
      <contour>
        <pt x="29" y="0" on="1"/>
        <pt x="186" y="740" on="1"/>
        <pt x="274" y="740" on="1"/>
        <pt x="541" y="177" on="1"/>
        <pt x="660" y="740" on="1"/>
        <pt x="758" y="740" on="1"/>
        <pt x="601" y="0" on="1"/>
        <pt x="513" y="0" on="1"/>
        <pt x="247" y="562" on="1"/>
        <pt x="127" y="0" on="1"/>
      </contour>
    </TTGlyph>
    <TTGlyph name="O" xMin="58" yMin="-10" xMax="762" yMax="750">
      <contour>
        <pt x="365" y="-10" on="1"/>
        <pt x="286" y="-10" on="0"/>
        <pt x="171" y="43" on="0"/>
        <pt x="95" y="134" on="0"/>
        <pt x="58" y="250" on="0"/>
        <pt x="58" y="314" on="1"/>
        <pt x="58" y="392" on="0"/>
        <pt x="111" y="546" on="0"/>
        <pt x="213" y="673" on="0"/>
        <pt x="361" y="750" on="0"/>
        <pt x="456" y="750" on="1"/>
        <pt x="535" y="750" on="0"/>
        <pt x="650" y="697" on="0"/>
        <pt x="725" y="606" on="0"/>
        <pt x="762" y="489" on="0"/>
        <pt x="762" y="426" on="1"/>
        <pt x="762" y="348" on="0"/>
        <pt x="710" y="194" on="0"/>
        <pt x="608" y="67" on="0"/>
        <pt x="460" y="-10" on="0"/>
      </contour>
      <contour>
        <pt x="368" y="79" on="1"/>
        <pt x="439" y="79" on="0"/>
        <pt x="548" y="140" on="0"/>
        <pt x="624" y="242" on="0"/>
        <pt x="663" y="364" on="0"/>
        <pt x="663" y="424" on="1"/>
        <pt x="663" y="487" on="0"/>
        <pt x="618" y="595" on="0"/>
        <pt x="526" y="661" on="0"/>
        <pt x="453" y="661" on="1"/>
        <pt x="383" y="661" on="0"/>
        <pt x="273" y="600" on="0"/>
        <pt x="197" y="498" on="0"/>
        <pt x="158" y="376" on="0"/>
        <pt x="158" y="316" on="1"/>
        <pt x="158" y="253" on="0"/>
        <pt x="203" y="145" on="0"/>
        <pt x="296" y="79" on="0"/>
      </contour>
    </TTGlyph>
    <TTGlyph name="OE" xMin="56" yMin="0" xMax="981" yMax="740">
      <contour>
        <pt x="981" y="740" on="1"/>
        <pt x="963" y="654" on="1"/>
        <pt x="600" y="654" on="1"/>
        <pt x="550" y="420" on="1"/>
        <pt x="867" y="420" on="1"/>
        <pt x="849" y="334" on="1"/>
        <pt x="532" y="334" on="1"/>
        <pt x="479" y="86" on="1"/>
        <pt x="847" y="86" on="1"/>
        <pt x="829" y="0" on="1"/>
        <pt x="363" y="0" on="1"/>
        <pt x="284" y="1" on="0"/>
        <pt x="168" y="51" on="0"/>
        <pt x="93" y="138" on="0"/>
        <pt x="56" y="249" on="0"/>
        <pt x="56" y="310" on="1"/>
        <pt x="56" y="386" on="0"/>
        <pt x="111" y="538" on="0"/>
        <pt x="218" y="664" on="0"/>
        <pt x="373" y="740" on="0"/>
        <pt x="473" y="740" on="1"/>
      </contour>
      <contour>
        <pt x="155" y="315" on="1"/>
        <pt x="155" y="255" on="0"/>
        <pt x="202" y="150" on="0"/>
        <pt x="301" y="86" on="0"/>
        <pt x="378" y="86" on="1"/>
        <pt x="381" y="86" on="1"/>
        <pt x="502" y="654" on="1"/>
        <pt x="469" y="654" on="1"/>
        <pt x="395" y="654" on="0"/>
        <pt x="278" y="594" on="0"/>
        <pt x="197" y="494" on="0"/>
        <pt x="155" y="374" on="0"/>
      </contour>
    </TTGlyph>
    <TTGlyph name="Oacute" xMin="58" yMin="-10" xMax="762" yMax="1001">
      <contour>
        <pt x="528" y="820" on="1"/>
        <pt x="450" y="821" on="1"/>
        <pt x="543" y="1001" on="1"/>
        <pt x="638" y="1001" on="1"/>
      </contour>
      <contour>
        <pt x="365" y="-10" on="1"/>
        <pt x="286" y="-10" on="0"/>
        <pt x="171" y="43" on="0"/>
        <pt x="95" y="134" on="0"/>
        <pt x="58" y="250" on="0"/>
        <pt x="58" y="314" on="1"/>
        <pt x="58" y="392" on="0"/>
        <pt x="111" y="546" on="0"/>
        <pt x="213" y="673" on="0"/>
        <pt x="361" y="750" on="0"/>
        <pt x="456" y="750" on="1"/>
        <pt x="535" y="750" on="0"/>
        <pt x="650" y="697" on="0"/>
        <pt x="725" y="606" on="0"/>
        <pt x="762" y="489" on="0"/>
        <pt x="762" y="426" on="1"/>
        <pt x="762" y="348" on="0"/>
        <pt x="710" y="194" on="0"/>
        <pt x="608" y="67" on="0"/>
        <pt x="460" y="-10" on="0"/>
      </contour>
      <contour>
        <pt x="368" y="79" on="1"/>
        <pt x="439" y="79" on="0"/>
        <pt x="548" y="140" on="0"/>
        <pt x="624" y="242" on="0"/>
        <pt x="663" y="364" on="0"/>
        <pt x="663" y="424" on="1"/>
        <pt x="663" y="487" on="0"/>
        <pt x="618" y="595" on="0"/>
        <pt x="526" y="661" on="0"/>
        <pt x="453" y="661" on="1"/>
        <pt x="383" y="661" on="0"/>
        <pt x="273" y="600" on="0"/>
        <pt x="197" y="498" on="0"/>
        <pt x="158" y="376" on="0"/>
        <pt x="158" y="316" on="1"/>
        <pt x="158" y="253" on="0"/>
        <pt x="203" y="145" on="0"/>
        <pt x="296" y="79" on="0"/>
      </contour>
    </TTGlyph>
    <TTGlyph name="Ocircumflex" xMin="58" yMin="-10" xMax="762" yMax="963">
      <contour>
        <pt x="310" y="816" on="1"/>
        <pt x="462" y="963" on="1"/>
        <pt x="543" y="963" on="1"/>
        <pt x="633" y="816" on="1"/>
        <pt x="553" y="816" on="1"/>
        <pt x="496" y="910" on="1"/>
        <pt x="402" y="816" on="1"/>
      </contour>
      <contour>
        <pt x="365" y="-10" on="1"/>
        <pt x="286" y="-10" on="0"/>
        <pt x="171" y="43" on="0"/>
        <pt x="95" y="134" on="0"/>
        <pt x="58" y="250" on="0"/>
        <pt x="58" y="314" on="1"/>
        <pt x="58" y="392" on="0"/>
        <pt x="111" y="546" on="0"/>
        <pt x="213" y="673" on="0"/>
        <pt x="361" y="750" on="0"/>
        <pt x="456" y="750" on="1"/>
        <pt x="535" y="750" on="0"/>
        <pt x="650" y="697" on="0"/>
        <pt x="725" y="606" on="0"/>
        <pt x="762" y="489" on="0"/>
        <pt x="762" y="426" on="1"/>
        <pt x="762" y="348" on="0"/>
        <pt x="710" y="194" on="0"/>
        <pt x="608" y="67" on="0"/>
        <pt x="460" y="-10" on="0"/>
      </contour>
      <contour>
        <pt x="368" y="79" on="1"/>
        <pt x="439" y="79" on="0"/>
        <pt x="548" y="140" on="0"/>
        <pt x="624" y="242" on="0"/>
        <pt x="663" y="364" on="0"/>
        <pt x="663" y="424" on="1"/>
        <pt x="663" y="487" on="0"/>
        <pt x="618" y="595" on="0"/>
        <pt x="526" y="661" on="0"/>
        <pt x="453" y="661" on="1"/>
        <pt x="383" y="661" on="0"/>
        <pt x="273" y="600" on="0"/>
        <pt x="197" y="498" on="0"/>
        <pt x="158" y="376" on="0"/>
        <pt x="158" y="316" on="1"/>
        <pt x="158" y="253" on="0"/>
        <pt x="203" y="145" on="0"/>
        <pt x="296" y="79" on="0"/>
      </contour>
    </TTGlyph>
    <TTGlyph name="Odieresis" xMin="58" yMin="-10" xMax="762" yMax="944">
      <contour>
        <pt x="590" y="821" on="1"/>
        <pt x="563" y="821" on="0"/>
        <pt x="528" y="857" on="0"/>
        <pt x="528" y="882" on="1"/>
        <pt x="528" y="908" on="0"/>
        <pt x="563" y="944" on="0"/>
        <pt x="590" y="944" on="1"/>
        <pt x="616" y="944" on="0"/>
        <pt x="652" y="908" on="0"/>
        <pt x="652" y="882" on="1"/>
        <pt x="652" y="857" on="0"/>
        <pt x="616" y="821" on="0"/>
      </contour>
      <contour>
        <pt x="400" y="821" on="1"/>
        <pt x="373" y="821" on="0"/>
        <pt x="338" y="857" on="0"/>
        <pt x="338" y="882" on="1"/>
        <pt x="338" y="908" on="0"/>
        <pt x="373" y="944" on="0"/>
        <pt x="400" y="944" on="1"/>
        <pt x="426" y="944" on="0"/>
        <pt x="462" y="908" on="0"/>
        <pt x="462" y="882" on="1"/>
        <pt x="462" y="857" on="0"/>
        <pt x="426" y="821" on="0"/>
      </contour>
      <contour>
        <pt x="365" y="-10" on="1"/>
        <pt x="286" y="-10" on="0"/>
        <pt x="171" y="43" on="0"/>
        <pt x="95" y="134" on="0"/>
        <pt x="58" y="250" on="0"/>
        <pt x="58" y="314" on="1"/>
        <pt x="58" y="392" on="0"/>
        <pt x="111" y="546" on="0"/>
        <pt x="213" y="673" on="0"/>
        <pt x="361" y="750" on="0"/>
        <pt x="456" y="750" on="1"/>
        <pt x="535" y="750" on="0"/>
        <pt x="650" y="697" on="0"/>
        <pt x="725" y="606" on="0"/>
        <pt x="762" y="489" on="0"/>
        <pt x="762" y="426" on="1"/>
        <pt x="762" y="348" on="0"/>
        <pt x="710" y="194" on="0"/>
        <pt x="608" y="67" on="0"/>
        <pt x="460" y="-10" on="0"/>
      </contour>
      <contour>
        <pt x="368" y="79" on="1"/>
        <pt x="439" y="79" on="0"/>
        <pt x="548" y="140" on="0"/>
        <pt x="624" y="242" on="0"/>
        <pt x="663" y="364" on="0"/>
        <pt x="663" y="424" on="1"/>
        <pt x="663" y="487" on="0"/>
        <pt x="618" y="595" on="0"/>
        <pt x="526" y="661" on="0"/>
        <pt x="453" y="661" on="1"/>
        <pt x="383" y="661" on="0"/>
        <pt x="273" y="600" on="0"/>
        <pt x="197" y="498" on="0"/>
        <pt x="158" y="376" on="0"/>
        <pt x="158" y="316" on="1"/>
        <pt x="158" y="253" on="0"/>
        <pt x="203" y="145" on="0"/>
        <pt x="296" y="79" on="0"/>
      </contour>
    </TTGlyph>
    <TTGlyph name="Ograve" xMin="58" yMin="-10" xMax="762" yMax="1001">
      <contour>
        <pt x="434" y="820" on="1"/>
        <pt x="351" y="1001" on="1"/>
        <pt x="444" y="1001" on="1"/>
        <pt x="510" y="821" on="1"/>
      </contour>
      <contour>
        <pt x="365" y="-10" on="1"/>
        <pt x="286" y="-10" on="0"/>
        <pt x="171" y="43" on="0"/>
        <pt x="95" y="134" on="0"/>
        <pt x="58" y="250" on="0"/>
        <pt x="58" y="314" on="1"/>
        <pt x="58" y="392" on="0"/>
        <pt x="111" y="546" on="0"/>
        <pt x="213" y="673" on="0"/>
        <pt x="361" y="750" on="0"/>
        <pt x="456" y="750" on="1"/>
        <pt x="535" y="750" on="0"/>
        <pt x="650" y="697" on="0"/>
        <pt x="725" y="606" on="0"/>
        <pt x="762" y="489" on="0"/>
        <pt x="762" y="426" on="1"/>
        <pt x="762" y="348" on="0"/>
        <pt x="710" y="194" on="0"/>
        <pt x="608" y="67" on="0"/>
        <pt x="460" y="-10" on="0"/>
      </contour>
      <contour>
        <pt x="368" y="79" on="1"/>
        <pt x="439" y="79" on="0"/>
        <pt x="548" y="140" on="0"/>
        <pt x="624" y="242" on="0"/>
        <pt x="663" y="364" on="0"/>
        <pt x="663" y="424" on="1"/>
        <pt x="663" y="487" on="0"/>
        <pt x="618" y="595" on="0"/>
        <pt x="526" y="661" on="0"/>
        <pt x="453" y="661" on="1"/>
        <pt x="383" y="661" on="0"/>
        <pt x="273" y="600" on="0"/>
        <pt x="197" y="498" on="0"/>
        <pt x="158" y="376" on="0"/>
        <pt x="158" y="316" on="1"/>
        <pt x="158" y="253" on="0"/>
        <pt x="203" y="145" on="0"/>
        <pt x="296" y="79" on="0"/>
      </contour>
    </TTGlyph>
    <TTGlyph name="Ohorn" xMin="58" yMin="-10" xMax="787" yMax="851">
      <contour>
        <pt x="365" y="-10" on="1"/>
        <pt x="286" y="-10" on="0"/>
        <pt x="171" y="43" on="0"/>
        <pt x="95" y="134" on="0"/>
        <pt x="58" y="250" on="0"/>
        <pt x="58" y="314" on="1"/>
        <pt x="58" y="392" on="0"/>
        <pt x="111" y="546" on="0"/>
        <pt x="213" y="673" on="0"/>
        <pt x="361" y="750" on="0"/>
        <pt x="456" y="750" on="1"/>
        <pt x="458" y="750" on="1"/>
        <pt x="458" y="750" on="1"/>
        <pt x="634" y="750" on="1"/>
        <pt x="658" y="750" on="0"/>
        <pt x="682" y="769" on="0"/>
        <pt x="686" y="791" on="1"/>
        <pt x="698" y="851" on="1"/>
        <pt x="787" y="851" on="1"/>
        <pt x="770" y="774" on="1"/>
        <pt x="761" y="732" on="0"/>
        <pt x="710" y="687" on="0"/>
        <pt x="666" y="687" on="1"/>
        <pt x="652" y="687" on="1"/>
        <pt x="708" y="641" on="0"/>
        <pt x="762" y="503" on="0"/>
        <pt x="762" y="426" on="1"/>
        <pt x="762" y="348" on="0"/>
        <pt x="710" y="194" on="0"/>
        <pt x="608" y="67" on="0"/>
        <pt x="460" y="-10" on="0"/>
      </contour>
      <contour>
        <pt x="368" y="79" on="1"/>
        <pt x="439" y="79" on="0"/>
        <pt x="548" y="140" on="0"/>
        <pt x="624" y="242" on="0"/>
        <pt x="663" y="364" on="0"/>
        <pt x="663" y="424" on="1"/>
        <pt x="663" y="487" on="0"/>
        <pt x="618" y="595" on="0"/>
        <pt x="526" y="661" on="0"/>
        <pt x="453" y="661" on="1"/>
        <pt x="383" y="661" on="0"/>
        <pt x="273" y="600" on="0"/>
        <pt x="197" y="498" on="0"/>
        <pt x="158" y="376" on="0"/>
        <pt x="158" y="316" on="1"/>
        <pt x="158" y="253" on="0"/>
        <pt x="203" y="145" on="0"/>
        <pt x="296" y="79" on="0"/>
      </contour>
    </TTGlyph>
    <TTGlyph name="Ohungarumlaut" xMin="58" yMin="-10" xMax="762" yMax="1001">
      <contour>
        <pt x="441" y="820" on="1"/>
        <pt x="356" y="821" on="1"/>
        <pt x="458" y="1001" on="1"/>
        <pt x="560" y="1001" on="1"/>
      </contour>
      <contour>
        <pt x="605" y="820" on="1"/>
        <pt x="518" y="821" on="1"/>
        <pt x="630" y="1001" on="1"/>
        <pt x="734" y="1001" on="1"/>
      </contour>
      <contour>
        <pt x="365" y="-10" on="1"/>
        <pt x="286" y="-10" on="0"/>
        <pt x="171" y="43" on="0"/>
        <pt x="95" y="134" on="0"/>
        <pt x="58" y="250" on="0"/>
        <pt x="58" y="314" on="1"/>
        <pt x="58" y="392" on="0"/>
        <pt x="111" y="546" on="0"/>
        <pt x="213" y="673" on="0"/>
        <pt x="361" y="750" on="0"/>
        <pt x="456" y="750" on="1"/>
        <pt x="535" y="750" on="0"/>
        <pt x="650" y="697" on="0"/>
        <pt x="725" y="606" on="0"/>
        <pt x="762" y="489" on="0"/>
        <pt x="762" y="426" on="1"/>
        <pt x="762" y="348" on="0"/>
        <pt x="710" y="194" on="0"/>
        <pt x="608" y="67" on="0"/>
        <pt x="460" y="-10" on="0"/>
      </contour>
      <contour>
        <pt x="368" y="79" on="1"/>
        <pt x="439" y="79" on="0"/>
        <pt x="548" y="140" on="0"/>
        <pt x="624" y="242" on="0"/>
        <pt x="663" y="364" on="0"/>
        <pt x="663" y="424" on="1"/>
        <pt x="663" y="487" on="0"/>
        <pt x="618" y="595" on="0"/>
        <pt x="526" y="661" on="0"/>
        <pt x="453" y="661" on="1"/>
        <pt x="383" y="661" on="0"/>
        <pt x="273" y="600" on="0"/>
        <pt x="197" y="498" on="0"/>
        <pt x="158" y="376" on="0"/>
        <pt x="158" y="316" on="1"/>
        <pt x="158" y="253" on="0"/>
        <pt x="203" y="145" on="0"/>
        <pt x="296" y="79" on="0"/>
      </contour>
    </TTGlyph>
    <TTGlyph name="Omacron" xMin="58" yMin="-10" xMax="762" yMax="923">
      <contour>
        <pt x="336" y="851" on="1"/>
        <pt x="352" y="923" on="1"/>
        <pt x="656" y="923" on="1"/>
        <pt x="640" y="851" on="1"/>
      </contour>
      <contour>
        <pt x="365" y="-10" on="1"/>
        <pt x="286" y="-10" on="0"/>
        <pt x="171" y="43" on="0"/>
        <pt x="95" y="134" on="0"/>
        <pt x="58" y="250" on="0"/>
        <pt x="58" y="314" on="1"/>
        <pt x="58" y="392" on="0"/>
        <pt x="111" y="546" on="0"/>
        <pt x="213" y="673" on="0"/>
        <pt x="361" y="750" on="0"/>
        <pt x="456" y="750" on="1"/>
        <pt x="535" y="750" on="0"/>
        <pt x="650" y="697" on="0"/>
        <pt x="725" y="606" on="0"/>
        <pt x="762" y="489" on="0"/>
        <pt x="762" y="426" on="1"/>
        <pt x="762" y="348" on="0"/>
        <pt x="710" y="194" on="0"/>
        <pt x="608" y="67" on="0"/>
        <pt x="460" y="-10" on="0"/>
      </contour>
      <contour>
        <pt x="368" y="79" on="1"/>
        <pt x="439" y="79" on="0"/>
        <pt x="548" y="140" on="0"/>
        <pt x="624" y="242" on="0"/>
        <pt x="663" y="364" on="0"/>
        <pt x="663" y="424" on="1"/>
        <pt x="663" y="487" on="0"/>
        <pt x="618" y="595" on="0"/>
        <pt x="526" y="661" on="0"/>
        <pt x="453" y="661" on="1"/>
        <pt x="383" y="661" on="0"/>
        <pt x="273" y="600" on="0"/>
        <pt x="197" y="498" on="0"/>
        <pt x="158" y="376" on="0"/>
        <pt x="158" y="316" on="1"/>
        <pt x="158" y="253" on="0"/>
        <pt x="203" y="145" on="0"/>
        <pt x="296" y="79" on="0"/>
      </contour>
    </TTGlyph>
    <TTGlyph name="Oslash" xMin="17" yMin="-24" xMax="803" yMax="763">
      <contour>
        <pt x="17" y="-24" on="1"/>
        <pt x="123" y="100" on="1"/>
        <pt x="90" y="144" on="0"/>
        <pt x="58" y="254" on="0"/>
        <pt x="58" y="314" on="1"/>
        <pt x="58" y="392" on="0"/>
        <pt x="111" y="546" on="0"/>
        <pt x="213" y="673" on="0"/>
        <pt x="361" y="750" on="0"/>
        <pt x="456" y="750" on="1"/>
        <pt x="511" y="750" on="0"/>
        <pt x="600" y="723" on="0"/>
        <pt x="634" y="700" on="1"/>
        <pt x="688" y="763" on="1"/>
        <pt x="803" y="763" on="1"/>
        <pt x="697" y="639" on="1"/>
        <pt x="730" y="595" on="0"/>
        <pt x="762" y="485" on="0"/>
        <pt x="762" y="426" on="1"/>
        <pt x="762" y="348" on="0"/>
        <pt x="710" y="194" on="0"/>
        <pt x="608" y="67" on="0"/>
        <pt x="460" y="-10" on="0"/>
        <pt x="365" y="-10" on="1"/>
        <pt x="310" y="-10" on="0"/>
        <pt x="221" y="16" on="0"/>
        <pt x="186" y="40" on="1"/>
        <pt x="132" y="-24" on="1"/>
      </contour>
      <contour>
        <pt x="158" y="316" on="1"/>
        <pt x="158" y="278" on="0"/>
        <pt x="174" y="208" on="0"/>
        <pt x="190" y="179" on="1"/>
        <pt x="572" y="627" on="1"/>
        <pt x="549" y="643" on="0"/>
        <pt x="489" y="661" on="0"/>
        <pt x="453" y="661" on="1"/>
        <pt x="383" y="661" on="0"/>
        <pt x="273" y="600" on="0"/>
        <pt x="197" y="498" on="0"/>
        <pt x="158" y="376" on="0"/>
      </contour>
      <contour>
        <pt x="368" y="79" on="1"/>
        <pt x="439" y="79" on="0"/>
        <pt x="548" y="140" on="0"/>
        <pt x="624" y="242" on="0"/>
        <pt x="663" y="364" on="0"/>
        <pt x="663" y="424" on="1"/>
        <pt x="663" y="461" on="0"/>
        <pt x="647" y="532" on="0"/>
        <pt x="631" y="561" on="1"/>
        <pt x="249" y="113" on="1"/>
        <pt x="272" y="97" on="0"/>
        <pt x="332" y="79" on="0"/>
      </contour>
    </TTGlyph>
    <TTGlyph name="Otilde" xMin="58" yMin="-10" xMax="762" yMax="963">
      <contour>
        <pt x="563" y="826" on="1"/>
        <pt x="537" y="826" on="0"/>
        <pt x="501" y="847" on="0"/>
        <pt x="474" y="876" on="0"/>
        <pt x="450" y="897" on="0"/>
        <pt x="436" y="897" on="1"/>
        <pt x="420" y="897" on="0"/>
        <pt x="400" y="863" on="0"/>
        <pt x="395" y="832" on="1"/>
        <pt x="333" y="832" on="1"/>
        <pt x="344" y="891" on="0"/>
        <pt x="391" y="963" on="0"/>
        <pt x="437" y="963" on="1"/>
        <pt x="464" y="963" on="0"/>
        <pt x="500" y="942" on="0"/>
        <pt x="527" y="915" on="0"/>
        <pt x="550" y="894" on="0"/>
        <pt x="564" y="894" on="1"/>
        <pt x="581" y="894" on="0"/>
        <pt x="599" y="927" on="0"/>
        <pt x="604" y="958" on="1"/>
        <pt x="666" y="958" on="1"/>
        <pt x="655" y="900" on="0"/>
        <pt x="609" y="826" on="0"/>
      </contour>
      <contour>
        <pt x="365" y="-10" on="1"/>
        <pt x="286" y="-10" on="0"/>
        <pt x="171" y="43" on="0"/>
        <pt x="95" y="134" on="0"/>
        <pt x="58" y="250" on="0"/>
        <pt x="58" y="314" on="1"/>
        <pt x="58" y="392" on="0"/>
        <pt x="111" y="546" on="0"/>
        <pt x="213" y="673" on="0"/>
        <pt x="361" y="750" on="0"/>
        <pt x="456" y="750" on="1"/>
        <pt x="535" y="750" on="0"/>
        <pt x="650" y="697" on="0"/>
        <pt x="725" y="606" on="0"/>
        <pt x="762" y="489" on="0"/>
        <pt x="762" y="426" on="1"/>
        <pt x="762" y="348" on="0"/>
        <pt x="710" y="194" on="0"/>
        <pt x="608" y="67" on="0"/>
        <pt x="460" y="-10" on="0"/>
      </contour>
      <contour>
        <pt x="368" y="79" on="1"/>
        <pt x="439" y="79" on="0"/>
        <pt x="548" y="140" on="0"/>
        <pt x="624" y="242" on="0"/>
        <pt x="663" y="364" on="0"/>
        <pt x="663" y="424" on="1"/>
        <pt x="663" y="487" on="0"/>
        <pt x="618" y="595" on="0"/>
        <pt x="526" y="661" on="0"/>
        <pt x="453" y="661" on="1"/>
        <pt x="383" y="661" on="0"/>
        <pt x="273" y="600" on="0"/>
        <pt x="197" y="498" on="0"/>
        <pt x="158" y="376" on="0"/>
        <pt x="158" y="316" on="1"/>
        <pt x="158" y="253" on="0"/>
        <pt x="203" y="145" on="0"/>
        <pt x="296" y="79" on="0"/>
      </contour>
    </TTGlyph>
    <TTGlyph name="P" xMin="29" yMin="0" xMax="650" yMax="740">
      <contour>
        <pt x="29" y="0" on="1"/>
        <pt x="186" y="740" on="1"/>
        <pt x="411" y="740" on="1"/>
        <pt x="492" y="740" on="0"/>
        <pt x="598" y="679" on="0"/>
        <pt x="650" y="580" on="0"/>
        <pt x="650" y="524" on="1"/>
        <pt x="650" y="476" on="0"/>
        <pt x="612" y="381" on="0"/>
        <pt x="538" y="303" on="0"/>
        <pt x="429" y="256" on="0"/>
        <pt x="358" y="256" on="1"/>
        <pt x="181" y="256" on="1"/>
        <pt x="127" y="0" on="1"/>
      </contour>
      <contour>
        <pt x="403" y="654" on="1"/>
        <pt x="266" y="654" on="1"/>
        <pt x="200" y="342" on="1"/>
        <pt x="366" y="342" on="1"/>
        <pt x="426" y="342" on="0"/>
        <pt x="508" y="395" on="0"/>
        <pt x="551" y="476" on="0"/>
        <pt x="551" y="517" on="1"/>
        <pt x="551" y="553" on="0"/>
        <pt x="519" y="615" on="0"/>
        <pt x="454" y="654" on="0"/>
      </contour>
    </TTGlyph>
    <TTGlyph name="Q" xMin="58" yMin="-10" xMax="762" yMax="750">
      <contour>
        <pt x="365" y="-10" on="1"/>
        <pt x="286" y="-10" on="0"/>
        <pt x="171" y="43" on="0"/>
        <pt x="95" y="134" on="0"/>
        <pt x="58" y="250" on="0"/>
        <pt x="58" y="314" on="1"/>
        <pt x="58" y="392" on="0"/>
        <pt x="111" y="546" on="0"/>
        <pt x="213" y="673" on="0"/>
        <pt x="361" y="750" on="0"/>
        <pt x="456" y="750" on="1"/>
        <pt x="535" y="750" on="0"/>
        <pt x="650" y="697" on="0"/>
        <pt x="725" y="606" on="0"/>
        <pt x="762" y="489" on="0"/>
        <pt x="762" y="426" on="1"/>
        <pt x="762" y="343" on="0"/>
        <pt x="701" y="176" on="0"/>
        <pt x="643" y="112" on="1"/>
        <pt x="732" y="0" on="1"/>
        <pt x="610" y="0" on="1"/>
        <pt x="570" y="50" on="1"/>
        <pt x="528" y="22" on="0"/>
        <pt x="425" y="-10" on="0"/>
      </contour>
      <contour>
        <pt x="368" y="79" on="1"/>
        <pt x="410" y="79" on="0"/>
        <pt x="482" y="102" on="0"/>
        <pt x="513" y="122" on="1"/>
        <pt x="403" y="260" on="1"/>
        <pt x="478" y="320" on="1"/>
        <pt x="583" y="187" on="1"/>
        <pt x="622" y="237" on="0"/>
        <pt x="663" y="363" on="0"/>
        <pt x="663" y="424" on="1"/>
        <pt x="663" y="487" on="0"/>
        <pt x="618" y="595" on="0"/>
        <pt x="526" y="661" on="0"/>
        <pt x="453" y="661" on="1"/>
        <pt x="383" y="661" on="0"/>
        <pt x="273" y="600" on="0"/>
        <pt x="197" y="498" on="0"/>
        <pt x="158" y="376" on="0"/>
        <pt x="158" y="316" on="1"/>
        <pt x="158" y="253" on="0"/>
        <pt x="203" y="145" on="0"/>
        <pt x="296" y="79" on="0"/>
      </contour>
    </TTGlyph>
    <TTGlyph name="R" xMin="29" yMin="0" xMax="618" yMax="740">
      <contour>
        <pt x="29" y="0" on="1"/>
        <pt x="186" y="740" on="1"/>
        <pt x="394" y="740" on="1"/>
        <pt x="471" y="740" on="0"/>
        <pt x="570" y="684" on="0"/>
        <pt x="618" y="595" on="0"/>
        <pt x="618" y="545" on="1"/>
        <pt x="618" y="494" on="0"/>
        <pt x="570" y="397" on="0"/>
        <pt x="477" y="326" on="0"/>
        <pt x="409" y="315" on="1"/>
        <pt x="526" y="0" on="1"/>
        <pt x="424" y="0" on="1"/>
        <pt x="311" y="311" on="1"/>
        <pt x="193" y="311" on="1"/>
        <pt x="127" y="0" on="1"/>
      </contour>
      <contour>
        <pt x="393" y="654" on="1"/>
        <pt x="266" y="654" on="1"/>
        <pt x="211" y="395" on="1"/>
        <pt x="358" y="395" on="1"/>
        <pt x="410" y="395" on="0"/>
        <pt x="482" y="439" on="0"/>
        <pt x="519" y="507" on="0"/>
        <pt x="519" y="542" on="1"/>
        <pt x="519" y="586" on="0"/>
        <pt x="458" y="654" on="0"/>
      </contour>
    </TTGlyph>
    <TTGlyph name="Racute" xMin="29" yMin="0" xMax="618" yMax="1001">
      <contour>
        <pt x="444" y="820" on="1"/>
        <pt x="366" y="821" on="1"/>
        <pt x="459" y="1001" on="1"/>
        <pt x="554" y="1001" on="1"/>
      </contour>
      <contour>
        <pt x="29" y="0" on="1"/>
        <pt x="186" y="740" on="1"/>
        <pt x="394" y="740" on="1"/>
        <pt x="471" y="740" on="0"/>
        <pt x="570" y="684" on="0"/>
        <pt x="618" y="595" on="0"/>
        <pt x="618" y="545" on="1"/>
        <pt x="618" y="494" on="0"/>
        <pt x="570" y="397" on="0"/>
        <pt x="477" y="326" on="0"/>
        <pt x="409" y="315" on="1"/>
        <pt x="526" y="0" on="1"/>
        <pt x="424" y="0" on="1"/>
        <pt x="311" y="311" on="1"/>
        <pt x="193" y="311" on="1"/>
        <pt x="127" y="0" on="1"/>
      </contour>
      <contour>
        <pt x="393" y="654" on="1"/>
        <pt x="266" y="654" on="1"/>
        <pt x="211" y="395" on="1"/>
        <pt x="358" y="395" on="1"/>
        <pt x="410" y="395" on="0"/>
        <pt x="482" y="439" on="0"/>
        <pt x="519" y="507" on="0"/>
        <pt x="519" y="542" on="1"/>
        <pt x="519" y="586" on="0"/>
        <pt x="458" y="654" on="0"/>
      </contour>
    </TTGlyph>
    <TTGlyph name="Rcaron" xMin="29" yMin="0" xMax="618" yMax="982">
      <contour>
        <pt x="352" y="815" on="1"/>
        <pt x="266" y="982" on="1"/>
        <pt x="346" y="982" on="1"/>
        <pt x="399" y="875" on="1"/>
        <pt x="497" y="982" on="1"/>
        <pt x="589" y="982" on="1"/>
        <pt x="433" y="815" on="1"/>
      </contour>
      <contour>
        <pt x="29" y="0" on="1"/>
        <pt x="186" y="740" on="1"/>
        <pt x="394" y="740" on="1"/>
        <pt x="471" y="740" on="0"/>
        <pt x="570" y="684" on="0"/>
        <pt x="618" y="595" on="0"/>
        <pt x="618" y="545" on="1"/>
        <pt x="618" y="494" on="0"/>
        <pt x="570" y="397" on="0"/>
        <pt x="477" y="326" on="0"/>
        <pt x="409" y="315" on="1"/>
        <pt x="526" y="0" on="1"/>
        <pt x="424" y="0" on="1"/>
        <pt x="311" y="311" on="1"/>
        <pt x="193" y="311" on="1"/>
        <pt x="127" y="0" on="1"/>
      </contour>
      <contour>
        <pt x="393" y="654" on="1"/>
        <pt x="266" y="654" on="1"/>
        <pt x="211" y="395" on="1"/>
        <pt x="358" y="395" on="1"/>
        <pt x="410" y="395" on="0"/>
        <pt x="482" y="439" on="0"/>
        <pt x="519" y="507" on="0"/>
        <pt x="519" y="542" on="1"/>
        <pt x="519" y="586" on="0"/>
        <pt x="458" y="654" on="0"/>
      </contour>
    </TTGlyph>
    <TTGlyph name="S" xMin="41" yMin="-10" xMax="647" yMax="750">
      <contour>
        <pt x="315" y="-10" on="1"/>
        <pt x="243" y="-10" on="0"/>
        <pt x="147" y="23" on="0"/>
        <pt x="87" y="76" on="0"/>
        <pt x="55" y="135" on="0"/>
        <pt x="42" y="188" on="0"/>
        <pt x="41" y="221" on="0"/>
        <pt x="41" y="221" on="1"/>
        <pt x="140" y="221" on="1"/>
        <pt x="140" y="221" on="0"/>
        <pt x="142" y="192" on="0"/>
        <pt x="157" y="148" on="0"/>
        <pt x="193" y="104" on="0"/>
        <pt x="260" y="75" on="0"/>
        <pt x="315" y="75" on="1"/>
        <pt x="361" y="75" on="0"/>
        <pt x="437" y="106" on="0"/>
        <pt x="484" y="163" on="0"/>
        <pt x="484" y="202" on="1"/>
        <pt x="484" y="246" on="0"/>
        <pt x="421" y="297" on="0"/>
        <pt x="376" y="316" on="1"/>
        <pt x="291" y="353" on="1"/>
        <pt x="252" y="370" on="0"/>
        <pt x="186" y="417" on="0"/>
        <pt x="146" y="490" on="0"/>
        <pt x="146" y="542" on="1"/>
        <pt x="146" y="596" on="0"/>
        <pt x="206" y="691" on="0"/>
        <pt x="319" y="750" on="0"/>
        <pt x="400" y="750" on="1"/>
        <pt x="464" y="750" on="0"/>
        <pt x="551" y="719" on="0"/>
        <pt x="605" y="671" on="0"/>
        <pt x="634" y="617" on="0"/>
        <pt x="646" y="569" on="0"/>
        <pt x="647" y="538" on="0"/>
        <pt x="647" y="538" on="1"/>
        <pt x="552" y="538" on="1"/>
        <pt x="552" y="538" on="0"/>
        <pt x="548" y="564" on="0"/>
        <pt x="534" y="603" on="0"/>
        <pt x="501" y="641" on="0"/>
        <pt x="444" y="667" on="0"/>
        <pt x="400" y="667" on="1"/>
        <pt x="327" y="667" on="0"/>
        <pt x="244" y="598" on="0"/>
        <pt x="244" y="548" on="1"/>
        <pt x="244" y="508" on="0"/>
        <pt x="294" y="457" on="0"/>
        <pt x="333" y="440" on="1"/>
        <pt x="413" y="405" on="1"/>
        <pt x="454" y="387" on="0"/>
        <pt x="531" y="339" on="0"/>
        <pt x="582" y="264" on="0"/>
        <pt x="582" y="204" on="1"/>
        <pt x="582" y="144" on="0"/>
        <pt x="512" y="47" on="0"/>
        <pt x="392" y="-10" on="0"/>
      </contour>
    </TTGlyph>
    <TTGlyph name="Sacute" xMin="40" yMin="-10" xMax="646" yMax="1001">
      <contour>
        <pt x="486" y="820" on="1"/>
        <pt x="408" y="821" on="1"/>
        <pt x="501" y="1001" on="1"/>
        <pt x="596" y="1001" on="1"/>
      </contour>
      <contour>
        <pt x="314" y="-10" on="1"/>
        <pt x="242" y="-10" on="0"/>
        <pt x="146" y="23" on="0"/>
        <pt x="86" y="76" on="0"/>
        <pt x="54" y="135" on="0"/>
        <pt x="41" y="188" on="0"/>
        <pt x="40" y="221" on="0"/>
        <pt x="40" y="221" on="1"/>
        <pt x="139" y="221" on="1"/>
        <pt x="139" y="221" on="0"/>
        <pt x="141" y="192" on="0"/>
        <pt x="156" y="148" on="0"/>
        <pt x="192" y="104" on="0"/>
        <pt x="259" y="75" on="0"/>
        <pt x="314" y="75" on="1"/>
        <pt x="360" y="75" on="0"/>
        <pt x="436" y="106" on="0"/>
        <pt x="483" y="163" on="0"/>
        <pt x="483" y="202" on="1"/>
        <pt x="483" y="246" on="0"/>
        <pt x="420" y="297" on="0"/>
        <pt x="375" y="316" on="1"/>
        <pt x="290" y="353" on="1"/>
        <pt x="251" y="370" on="0"/>
        <pt x="185" y="417" on="0"/>
        <pt x="145" y="490" on="0"/>
        <pt x="145" y="542" on="1"/>
        <pt x="145" y="596" on="0"/>
        <pt x="205" y="691" on="0"/>
        <pt x="318" y="750" on="0"/>
        <pt x="399" y="750" on="1"/>
        <pt x="463" y="750" on="0"/>
        <pt x="550" y="719" on="0"/>
        <pt x="604" y="671" on="0"/>
        <pt x="633" y="617" on="0"/>
        <pt x="645" y="569" on="0"/>
        <pt x="646" y="538" on="0"/>
        <pt x="646" y="538" on="1"/>
        <pt x="551" y="538" on="1"/>
        <pt x="551" y="538" on="0"/>
        <pt x="547" y="564" on="0"/>
        <pt x="533" y="603" on="0"/>
        <pt x="500" y="641" on="0"/>
        <pt x="443" y="667" on="0"/>
        <pt x="399" y="667" on="1"/>
        <pt x="326" y="667" on="0"/>
        <pt x="243" y="598" on="0"/>
        <pt x="243" y="548" on="1"/>
        <pt x="243" y="508" on="0"/>
        <pt x="293" y="457" on="0"/>
        <pt x="332" y="440" on="1"/>
        <pt x="412" y="405" on="1"/>
        <pt x="453" y="387" on="0"/>
        <pt x="530" y="339" on="0"/>
        <pt x="581" y="264" on="0"/>
        <pt x="581" y="204" on="1"/>
        <pt x="581" y="144" on="0"/>
        <pt x="511" y="47" on="0"/>
        <pt x="391" y="-10" on="0"/>
      </contour>
    </TTGlyph>
    <TTGlyph name="Scaron" xMin="40" yMin="-10" xMax="646" yMax="982">
      <contour>
        <pt x="394" y="815" on="1"/>
        <pt x="308" y="982" on="1"/>
        <pt x="388" y="982" on="1"/>
        <pt x="441" y="875" on="1"/>
        <pt x="539" y="982" on="1"/>
        <pt x="631" y="982" on="1"/>
        <pt x="475" y="815" on="1"/>
      </contour>
      <contour>
        <pt x="314" y="-10" on="1"/>
        <pt x="242" y="-10" on="0"/>
        <pt x="146" y="23" on="0"/>
        <pt x="86" y="76" on="0"/>
        <pt x="54" y="135" on="0"/>
        <pt x="41" y="188" on="0"/>
        <pt x="40" y="221" on="0"/>
        <pt x="40" y="221" on="1"/>
        <pt x="139" y="221" on="1"/>
        <pt x="139" y="221" on="0"/>
        <pt x="141" y="192" on="0"/>
        <pt x="156" y="148" on="0"/>
        <pt x="192" y="104" on="0"/>
        <pt x="259" y="75" on="0"/>
        <pt x="314" y="75" on="1"/>
        <pt x="360" y="75" on="0"/>
        <pt x="436" y="106" on="0"/>
        <pt x="483" y="163" on="0"/>
        <pt x="483" y="202" on="1"/>
        <pt x="483" y="246" on="0"/>
        <pt x="420" y="297" on="0"/>
        <pt x="375" y="316" on="1"/>
        <pt x="290" y="353" on="1"/>
        <pt x="251" y="370" on="0"/>
        <pt x="185" y="417" on="0"/>
        <pt x="145" y="490" on="0"/>
        <pt x="145" y="542" on="1"/>
        <pt x="145" y="596" on="0"/>
        <pt x="205" y="691" on="0"/>
        <pt x="318" y="750" on="0"/>
        <pt x="399" y="750" on="1"/>
        <pt x="463" y="750" on="0"/>
        <pt x="550" y="719" on="0"/>
        <pt x="604" y="671" on="0"/>
        <pt x="633" y="617" on="0"/>
        <pt x="645" y="569" on="0"/>
        <pt x="646" y="538" on="0"/>
        <pt x="646" y="538" on="1"/>
        <pt x="551" y="538" on="1"/>
        <pt x="551" y="538" on="0"/>
        <pt x="547" y="564" on="0"/>
        <pt x="533" y="603" on="0"/>
        <pt x="500" y="641" on="0"/>
        <pt x="443" y="667" on="0"/>
        <pt x="399" y="667" on="1"/>
        <pt x="326" y="667" on="0"/>
        <pt x="243" y="598" on="0"/>
        <pt x="243" y="548" on="1"/>
        <pt x="243" y="508" on="0"/>
        <pt x="293" y="457" on="0"/>
        <pt x="332" y="440" on="1"/>
        <pt x="412" y="405" on="1"/>
        <pt x="453" y="387" on="0"/>
        <pt x="530" y="339" on="0"/>
        <pt x="581" y="264" on="0"/>
        <pt x="581" y="204" on="1"/>
        <pt x="581" y="144" on="0"/>
        <pt x="511" y="47" on="0"/>
        <pt x="391" y="-10" on="0"/>
      </contour>
    </TTGlyph>
    <TTGlyph name="Scedilla" xMin="40" yMin="-260" xMax="646" yMax="750">
      <contour>
        <pt x="314" y="-10" on="1"/>
        <pt x="309" y="-10" on="0"/>
        <pt x="305" y="-10" on="1"/>
        <pt x="262" y="-59" on="1"/>
        <pt x="268" y="-59" on="1"/>
        <pt x="318" y="-59" on="0"/>
        <pt x="369" y="-115" on="0"/>
        <pt x="369" y="-151" on="1"/>
        <pt x="369" y="-177" on="0"/>
        <pt x="340" y="-228" on="0"/>
        <pt x="276" y="-260" on="0"/>
        <pt x="225" y="-260" on="1"/>
        <pt x="194" y="-260" on="0"/>
        <pt x="146" y="-249" on="0"/>
        <pt x="146" y="-249" on="1"/>
        <pt x="156" y="-193" on="1"/>
        <pt x="156" y="-193" on="0"/>
        <pt x="179" y="-197" on="0"/>
        <pt x="212" y="-202" on="0"/>
        <pt x="226" y="-202" on="1"/>
        <pt x="267" y="-202" on="0"/>
        <pt x="297" y="-170" on="0"/>
        <pt x="297" y="-152" on="1"/>
        <pt x="297" y="-135" on="0"/>
        <pt x="270" y="-109" on="0"/>
        <pt x="242" y="-109" on="1"/>
        <pt x="220" y="-109" on="0"/>
        <pt x="193" y="-123" on="0"/>
        <pt x="194" y="-123" on="1"/>
        <pt x="166" y="-88" on="1"/>
        <pt x="237" y="-4" on="1"/>
        <pt x="175" y="8" on="0"/>
        <pt x="99" y="60" on="0"/>
        <pt x="58" y="123" on="0"/>
        <pt x="42" y="182" on="0"/>
        <pt x="40" y="221" on="0"/>
        <pt x="40" y="221" on="1"/>
        <pt x="139" y="221" on="1"/>
        <pt x="139" y="221" on="0"/>
        <pt x="141" y="192" on="0"/>
        <pt x="156" y="148" on="0"/>
        <pt x="192" y="104" on="0"/>
        <pt x="259" y="75" on="0"/>
        <pt x="314" y="75" on="1"/>
        <pt x="360" y="75" on="0"/>
        <pt x="436" y="106" on="0"/>
        <pt x="483" y="163" on="0"/>
        <pt x="483" y="202" on="1"/>
        <pt x="483" y="246" on="0"/>
        <pt x="420" y="297" on="0"/>
        <pt x="375" y="316" on="1"/>
        <pt x="290" y="353" on="1"/>
        <pt x="251" y="370" on="0"/>
        <pt x="185" y="417" on="0"/>
        <pt x="145" y="490" on="0"/>
        <pt x="145" y="542" on="1"/>
        <pt x="145" y="596" on="0"/>
        <pt x="205" y="691" on="0"/>
        <pt x="318" y="750" on="0"/>
        <pt x="399" y="750" on="1"/>
        <pt x="463" y="750" on="0"/>
        <pt x="550" y="719" on="0"/>
        <pt x="604" y="671" on="0"/>
        <pt x="633" y="617" on="0"/>
        <pt x="645" y="569" on="0"/>
        <pt x="646" y="538" on="0"/>
        <pt x="646" y="538" on="1"/>
        <pt x="551" y="538" on="1"/>
        <pt x="551" y="538" on="0"/>
        <pt x="547" y="564" on="0"/>
        <pt x="533" y="603" on="0"/>
        <pt x="500" y="641" on="0"/>
        <pt x="443" y="667" on="0"/>
        <pt x="399" y="667" on="1"/>
        <pt x="326" y="667" on="0"/>
        <pt x="243" y="598" on="0"/>
        <pt x="243" y="548" on="1"/>
        <pt x="243" y="508" on="0"/>
        <pt x="293" y="457" on="0"/>
        <pt x="332" y="440" on="1"/>
        <pt x="412" y="405" on="1"/>
        <pt x="453" y="387" on="0"/>
        <pt x="530" y="339" on="0"/>
        <pt x="581" y="264" on="0"/>
        <pt x="581" y="204" on="1"/>
        <pt x="581" y="144" on="0"/>
        <pt x="511" y="47" on="0"/>
        <pt x="391" y="-10" on="0"/>
      </contour>
    </TTGlyph>
    <TTGlyph name="T" xMin="121" yMin="0" xMax="719" yMax="740">
      <contour>
        <pt x="222" y="0" on="1"/>
        <pt x="361" y="654" on="1"/>
        <pt x="121" y="654" on="1"/>
        <pt x="139" y="740" on="1"/>
        <pt x="719" y="740" on="1"/>
        <pt x="701" y="654" on="1"/>
        <pt x="459" y="654" on="1"/>
        <pt x="320" y="0" on="1"/>
      </contour>
    </TTGlyph>
    <TTGlyph name="Tbar" xMin="115" yMin="0" xMax="699" yMax="740">
      <contour>
        <pt x="212" y="0" on="1"/>
        <pt x="281" y="326" on="1"/>
        <pt x="115" y="326" on="1"/>
        <pt x="134" y="414" on="1"/>
        <pt x="300" y="414" on="1"/>
        <pt x="351" y="654" on="1"/>
        <pt x="121" y="654" on="1"/>
        <pt x="139" y="740" on="1"/>
        <pt x="699" y="740" on="1"/>
        <pt x="681" y="654" on="1"/>
        <pt x="449" y="654" on="1"/>
        <pt x="398" y="414" on="1"/>
        <pt x="585" y="414" on="1"/>
        <pt x="566" y="326" on="1"/>
        <pt x="379" y="326" on="1"/>
        <pt x="310" y="0" on="1"/>
      </contour>
    </TTGlyph>
    <TTGlyph name="Tcaron" xMin="121" yMin="0" xMax="699" yMax="982">
      <contour>
        <pt x="387" y="815" on="1"/>
        <pt x="301" y="982" on="1"/>
        <pt x="381" y="982" on="1"/>
        <pt x="434" y="875" on="1"/>
        <pt x="532" y="982" on="1"/>
        <pt x="624" y="982" on="1"/>
        <pt x="468" y="815" on="1"/>
      </contour>
      <contour>
        <pt x="212" y="0" on="1"/>
        <pt x="351" y="654" on="1"/>
        <pt x="121" y="654" on="1"/>
        <pt x="139" y="740" on="1"/>
        <pt x="699" y="740" on="1"/>
        <pt x="681" y="654" on="1"/>
        <pt x="449" y="654" on="1"/>
        <pt x="310" y="0" on="1"/>
      </contour>
    </TTGlyph>
    <TTGlyph name="Thorn" xMin="29" yMin="0" xMax="629" yMax="740">
      <contour>
        <pt x="29" y="0" on="1"/>
        <pt x="186" y="740" on="1"/>
        <pt x="284" y="740" on="1"/>
        <pt x="257" y="612" on="1"/>
        <pt x="390" y="612" on="1"/>
        <pt x="471" y="612" on="0"/>
        <pt x="577" y="551" on="0"/>
        <pt x="629" y="452" on="0"/>
        <pt x="629" y="396" on="1"/>
        <pt x="629" y="348" on="0"/>
        <pt x="591" y="253" on="0"/>
        <pt x="517" y="175" on="0"/>
        <pt x="408" y="128" on="0"/>
        <pt x="337" y="128" on="1"/>
        <pt x="154" y="128" on="1"/>
        <pt x="127" y="0" on="1"/>
      </contour>
      <contour>
        <pt x="382" y="526" on="1"/>
        <pt x="239" y="526" on="1"/>
        <pt x="172" y="214" on="1"/>
        <pt x="345" y="214" on="1"/>
        <pt x="405" y="214" on="0"/>
        <pt x="487" y="267" on="0"/>
        <pt x="530" y="348" on="0"/>
        <pt x="530" y="389" on="1"/>
        <pt x="530" y="425" on="0"/>
        <pt x="498" y="487" on="0"/>
        <pt x="433" y="526" on="0"/>
      </contour>
    </TTGlyph>
    <TTGlyph name="U" xMin="69" yMin="-10" xMax="751" yMax="740">
      <contour>
        <pt x="317" y="-10" on="1"/>
        <pt x="234" y="-10" on="0"/>
        <pt x="117" y="58" on="0"/>
        <pt x="69" y="191" on="0"/>
        <pt x="89" y="286" on="1"/>
        <pt x="186" y="740" on="1"/>
        <pt x="284" y="740" on="1"/>
        <pt x="185" y="274" on="1"/>
        <pt x="167" y="189" on="0"/>
        <pt x="236" y="83" on="0"/>
        <pt x="329" y="83" on="1"/>
        <pt x="387" y="83" on="0"/>
        <pt x="479" y="131" on="0"/>
        <pt x="542" y="218" on="0"/>
        <pt x="554" y="274" on="1"/>
        <pt x="653" y="740" on="1"/>
        <pt x="751" y="740" on="1"/>
        <pt x="652" y="274" on="1"/>
        <pt x="624" y="140" on="0"/>
        <pt x="445" y="-10" on="0"/>
      </contour>
    </TTGlyph>
    <TTGlyph name="Uacute" xMin="69" yMin="-10" xMax="751" yMax="1001">
      <contour>
        <pt x="527" y="820" on="1"/>
        <pt x="449" y="821" on="1"/>
        <pt x="542" y="1001" on="1"/>
        <pt x="637" y="1001" on="1"/>
      </contour>
      <contour>
        <pt x="317" y="-10" on="1"/>
        <pt x="234" y="-10" on="0"/>
        <pt x="117" y="58" on="0"/>
        <pt x="69" y="191" on="0"/>
        <pt x="89" y="286" on="1"/>
        <pt x="186" y="740" on="1"/>
        <pt x="284" y="740" on="1"/>
        <pt x="185" y="274" on="1"/>
        <pt x="167" y="189" on="0"/>
        <pt x="236" y="83" on="0"/>
        <pt x="329" y="83" on="1"/>
        <pt x="387" y="83" on="0"/>
        <pt x="479" y="131" on="0"/>
        <pt x="542" y="218" on="0"/>
        <pt x="554" y="274" on="1"/>
        <pt x="653" y="740" on="1"/>
        <pt x="751" y="740" on="1"/>
        <pt x="652" y="274" on="1"/>
        <pt x="624" y="140" on="0"/>
        <pt x="445" y="-10" on="0"/>
      </contour>
    </TTGlyph>
    <TTGlyph name="Ucircumflex" xMin="69" yMin="-10" xMax="751" yMax="983">
      <contour>
        <pt x="319" y="816" on="1"/>
        <pt x="475" y="983" on="1"/>
        <pt x="556" y="983" on="1"/>
        <pt x="642" y="816" on="1"/>
        <pt x="562" y="816" on="1"/>
        <pt x="509" y="923" on="1"/>
        <pt x="411" y="816" on="1"/>
      </contour>
      <contour>
        <pt x="317" y="-10" on="1"/>
        <pt x="234" y="-10" on="0"/>
        <pt x="117" y="58" on="0"/>
        <pt x="69" y="191" on="0"/>
        <pt x="89" y="286" on="1"/>
        <pt x="186" y="740" on="1"/>
        <pt x="284" y="740" on="1"/>
        <pt x="185" y="274" on="1"/>
        <pt x="167" y="189" on="0"/>
        <pt x="236" y="83" on="0"/>
        <pt x="329" y="83" on="1"/>
        <pt x="387" y="83" on="0"/>
        <pt x="479" y="131" on="0"/>
        <pt x="542" y="218" on="0"/>
        <pt x="554" y="274" on="1"/>
        <pt x="653" y="740" on="1"/>
        <pt x="751" y="740" on="1"/>
        <pt x="652" y="274" on="1"/>
        <pt x="624" y="140" on="0"/>
        <pt x="445" y="-10" on="0"/>
      </contour>
    </TTGlyph>
    <TTGlyph name="Udieresis" xMin="69" yMin="-10" xMax="751" yMax="944">
      <contour>
        <pt x="589" y="821" on="1"/>
        <pt x="562" y="821" on="0"/>
        <pt x="527" y="857" on="0"/>
        <pt x="527" y="882" on="1"/>
        <pt x="527" y="908" on="0"/>
        <pt x="562" y="944" on="0"/>
        <pt x="589" y="944" on="1"/>
        <pt x="615" y="944" on="0"/>
        <pt x="651" y="908" on="0"/>
        <pt x="651" y="882" on="1"/>
        <pt x="651" y="857" on="0"/>
        <pt x="615" y="821" on="0"/>
      </contour>
      <contour>
        <pt x="399" y="821" on="1"/>
        <pt x="372" y="821" on="0"/>
        <pt x="337" y="857" on="0"/>
        <pt x="337" y="882" on="1"/>
        <pt x="337" y="908" on="0"/>
        <pt x="372" y="944" on="0"/>
        <pt x="399" y="944" on="1"/>
        <pt x="425" y="944" on="0"/>
        <pt x="461" y="908" on="0"/>
        <pt x="461" y="882" on="1"/>
        <pt x="461" y="857" on="0"/>
        <pt x="425" y="821" on="0"/>
      </contour>
      <contour>
        <pt x="317" y="-10" on="1"/>
        <pt x="234" y="-10" on="0"/>
        <pt x="117" y="58" on="0"/>
        <pt x="69" y="191" on="0"/>
        <pt x="89" y="286" on="1"/>
        <pt x="186" y="740" on="1"/>
        <pt x="284" y="740" on="1"/>
        <pt x="185" y="274" on="1"/>
        <pt x="167" y="189" on="0"/>
        <pt x="236" y="83" on="0"/>
        <pt x="329" y="83" on="1"/>
        <pt x="387" y="83" on="0"/>
        <pt x="479" y="131" on="0"/>
        <pt x="542" y="218" on="0"/>
        <pt x="554" y="274" on="1"/>
        <pt x="653" y="740" on="1"/>
        <pt x="751" y="740" on="1"/>
        <pt x="652" y="274" on="1"/>
        <pt x="624" y="140" on="0"/>
        <pt x="445" y="-10" on="0"/>
      </contour>
    </TTGlyph>
    <TTGlyph name="Ugrave" xMin="69" yMin="-10" xMax="751" yMax="1001">
      <contour>
        <pt x="433" y="820" on="1"/>
        <pt x="350" y="1001" on="1"/>
        <pt x="443" y="1001" on="1"/>
        <pt x="509" y="821" on="1"/>
      </contour>
      <contour>
        <pt x="317" y="-10" on="1"/>
        <pt x="234" y="-10" on="0"/>
        <pt x="117" y="58" on="0"/>
        <pt x="69" y="191" on="0"/>
        <pt x="89" y="286" on="1"/>
        <pt x="186" y="740" on="1"/>
        <pt x="284" y="740" on="1"/>
        <pt x="185" y="274" on="1"/>
        <pt x="167" y="189" on="0"/>
        <pt x="236" y="83" on="0"/>
        <pt x="329" y="83" on="1"/>
        <pt x="387" y="83" on="0"/>
        <pt x="479" y="131" on="0"/>
        <pt x="542" y="218" on="0"/>
        <pt x="554" y="274" on="1"/>
        <pt x="653" y="740" on="1"/>
        <pt x="751" y="740" on="1"/>
        <pt x="652" y="274" on="1"/>
        <pt x="624" y="140" on="0"/>
        <pt x="445" y="-10" on="0"/>
      </contour>
    </TTGlyph>
    <TTGlyph name="Uhorn" xMin="69" yMin="-10" xMax="879" yMax="841">
      <contour>
        <pt x="317" y="-10" on="1"/>
        <pt x="234" y="-10" on="0"/>
        <pt x="117" y="58" on="0"/>
        <pt x="69" y="191" on="0"/>
        <pt x="89" y="286" on="1"/>
        <pt x="186" y="740" on="1"/>
        <pt x="284" y="740" on="1"/>
        <pt x="185" y="274" on="1"/>
        <pt x="167" y="189" on="0"/>
        <pt x="236" y="83" on="0"/>
        <pt x="329" y="83" on="1"/>
        <pt x="387" y="83" on="0"/>
        <pt x="479" y="131" on="0"/>
        <pt x="542" y="218" on="0"/>
        <pt x="554" y="274" on="1"/>
        <pt x="653" y="740" on="1"/>
        <pt x="726" y="740" on="1"/>
        <pt x="750" y="740" on="0"/>
        <pt x="774" y="759" on="0"/>
        <pt x="778" y="781" on="1"/>
        <pt x="790" y="841" on="1"/>
        <pt x="879" y="841" on="1"/>
        <pt x="862" y="764" on="1"/>
        <pt x="853" y="722" on="0"/>
        <pt x="802" y="677" on="0"/>
        <pt x="758" y="677" on="1"/>
        <pt x="738" y="677" on="1"/>
        <pt x="652" y="274" on="1"/>
        <pt x="624" y="140" on="0"/>
        <pt x="445" y="-10" on="0"/>
      </contour>
    </TTGlyph>
    <TTGlyph name="Uhungarumlaut" xMin="69" yMin="-10" xMax="751" yMax="1001">
      <contour>
        <pt x="440" y="820" on="1"/>
        <pt x="355" y="821" on="1"/>
        <pt x="457" y="1001" on="1"/>
        <pt x="559" y="1001" on="1"/>
      </contour>
      <contour>
        <pt x="604" y="820" on="1"/>
        <pt x="517" y="821" on="1"/>
        <pt x="629" y="1001" on="1"/>
        <pt x="733" y="1001" on="1"/>
      </contour>
      <contour>
        <pt x="317" y="-10" on="1"/>
        <pt x="234" y="-10" on="0"/>
        <pt x="117" y="58" on="0"/>
        <pt x="69" y="191" on="0"/>
        <pt x="89" y="286" on="1"/>
        <pt x="186" y="740" on="1"/>
        <pt x="284" y="740" on="1"/>
        <pt x="185" y="274" on="1"/>
        <pt x="167" y="189" on="0"/>
        <pt x="236" y="83" on="0"/>
        <pt x="329" y="83" on="1"/>
        <pt x="387" y="83" on="0"/>
        <pt x="479" y="131" on="0"/>
        <pt x="542" y="218" on="0"/>
        <pt x="554" y="274" on="1"/>
        <pt x="653" y="740" on="1"/>
        <pt x="751" y="740" on="1"/>
        <pt x="652" y="274" on="1"/>
        <pt x="624" y="140" on="0"/>
        <pt x="445" y="-10" on="0"/>
      </contour>
    </TTGlyph>
    <TTGlyph name="Umacron" xMin="69" yMin="-10" xMax="751" yMax="923">
      <contour>
        <pt x="335" y="851" on="1"/>
        <pt x="351" y="923" on="1"/>
        <pt x="655" y="923" on="1"/>
        <pt x="639" y="851" on="1"/>
      </contour>
      <contour>
        <pt x="317" y="-10" on="1"/>
        <pt x="234" y="-10" on="0"/>
        <pt x="117" y="58" on="0"/>
        <pt x="69" y="191" on="0"/>
        <pt x="89" y="286" on="1"/>
        <pt x="186" y="740" on="1"/>
        <pt x="284" y="740" on="1"/>
        <pt x="185" y="274" on="1"/>
        <pt x="167" y="189" on="0"/>
        <pt x="236" y="83" on="0"/>
        <pt x="329" y="83" on="1"/>
        <pt x="387" y="83" on="0"/>
        <pt x="479" y="131" on="0"/>
        <pt x="542" y="218" on="0"/>
        <pt x="554" y="274" on="1"/>
        <pt x="653" y="740" on="1"/>
        <pt x="751" y="740" on="1"/>
        <pt x="652" y="274" on="1"/>
        <pt x="624" y="140" on="0"/>
        <pt x="445" y="-10" on="0"/>
      </contour>
    </TTGlyph>
    <TTGlyph name="Uogonek" xMin="70" yMin="-173" xMax="751" yMax="740">
      <contour>
        <pt x="316" y="-173" on="1"/>
        <pt x="267" y="-173" on="0"/>
        <pt x="215" y="-130" on="0"/>
        <pt x="215" y="-96" on="1"/>
        <pt x="215" y="-63" on="0"/>
        <pt x="254" y="-20" on="0"/>
        <pt x="276" y="-8" on="1"/>
        <pt x="205" y="0" on="0"/>
        <pt x="108" y="73" on="0"/>
        <pt x="70" y="199" on="0"/>
        <pt x="89" y="286" on="1"/>
        <pt x="186" y="740" on="1"/>
        <pt x="284" y="740" on="1"/>
        <pt x="185" y="274" on="1"/>
        <pt x="167" y="189" on="0"/>
        <pt x="236" y="83" on="0"/>
        <pt x="329" y="83" on="1"/>
        <pt x="387" y="83" on="0"/>
        <pt x="479" y="131" on="0"/>
        <pt x="542" y="218" on="0"/>
        <pt x="554" y="274" on="1"/>
        <pt x="653" y="740" on="1"/>
        <pt x="751" y="740" on="1"/>
        <pt x="652" y="274" on="1"/>
        <pt x="625" y="149" on="0"/>
        <pt x="467" y="2" on="0"/>
        <pt x="352" y="-8" on="1"/>
        <pt x="343" y="-12" on="0"/>
        <pt x="313" y="-30" on="0"/>
        <pt x="288" y="-59" on="0"/>
        <pt x="288" y="-78" on="1"/>
        <pt x="288" y="-114" on="0"/>
        <pt x="338" y="-114" on="1"/>
        <pt x="352" y="-114" on="0"/>
        <pt x="375" y="-109" on="0"/>
        <pt x="375" y="-109" on="1"/>
        <pt x="363" y="-167" on="1"/>
        <pt x="363" y="-167" on="0"/>
        <pt x="337" y="-173" on="0"/>
      </contour>
    </TTGlyph>
    <TTGlyph name="Uring" xMin="69" yMin="-10" xMax="751" yMax="1068">
      <contour>
        <pt x="464" y="812" on="1"/>
        <pt x="429" y="812" on="0"/>
        <pt x="370" y="846" on="0"/>
        <pt x="335" y="905" on="0"/>
        <pt x="335" y="940" on="1"/>
        <pt x="335" y="976" on="0"/>
        <pt x="370" y="1034" on="0"/>
        <pt x="429" y="1068" on="0"/>
        <pt x="464" y="1068" on="1"/>
        <pt x="499" y="1068" on="0"/>
        <pt x="557" y="1034" on="0"/>
        <pt x="592" y="976" on="0"/>
        <pt x="592" y="940" on="1"/>
        <pt x="592" y="905" on="0"/>
        <pt x="557" y="846" on="0"/>
        <pt x="499" y="812" on="0"/>
      </contour>
      <contour>
        <pt x="464" y="880" on="1"/>
        <pt x="489" y="880" on="0"/>
        <pt x="524" y="915" on="0"/>
        <pt x="524" y="940" on="1"/>
        <pt x="524" y="965" on="0"/>
        <pt x="489" y="1000" on="0"/>
        <pt x="464" y="1000" on="1"/>
        <pt x="439" y="1000" on="0"/>
        <pt x="403" y="965" on="0"/>
        <pt x="403" y="940" on="1"/>
        <pt x="403" y="915" on="0"/>
        <pt x="439" y="880" on="0"/>
      </contour>
      <contour>
        <pt x="317" y="-10" on="1"/>
        <pt x="234" y="-10" on="0"/>
        <pt x="117" y="58" on="0"/>
        <pt x="69" y="191" on="0"/>
        <pt x="89" y="286" on="1"/>
        <pt x="186" y="740" on="1"/>
        <pt x="284" y="740" on="1"/>
        <pt x="185" y="274" on="1"/>
        <pt x="167" y="189" on="0"/>
        <pt x="236" y="83" on="0"/>
        <pt x="329" y="83" on="1"/>
        <pt x="387" y="83" on="0"/>
        <pt x="479" y="131" on="0"/>
        <pt x="542" y="218" on="0"/>
        <pt x="554" y="274" on="1"/>
        <pt x="653" y="740" on="1"/>
        <pt x="751" y="740" on="1"/>
        <pt x="652" y="274" on="1"/>
        <pt x="624" y="140" on="0"/>
        <pt x="445" y="-10" on="0"/>
      </contour>
    </TTGlyph>
    <TTGlyph name="Utilde" xMin="69" yMin="-10" xMax="751" yMax="963">
      <contour>
        <pt x="562" y="826" on="1"/>
        <pt x="536" y="826" on="0"/>
        <pt x="500" y="847" on="0"/>
        <pt x="473" y="876" on="0"/>
        <pt x="449" y="897" on="0"/>
        <pt x="435" y="897" on="1"/>
        <pt x="419" y="897" on="0"/>
        <pt x="399" y="863" on="0"/>
        <pt x="394" y="832" on="1"/>
        <pt x="332" y="832" on="1"/>
        <pt x="343" y="891" on="0"/>
        <pt x="390" y="963" on="0"/>
        <pt x="436" y="963" on="1"/>
        <pt x="463" y="963" on="0"/>
        <pt x="499" y="942" on="0"/>
        <pt x="526" y="915" on="0"/>
        <pt x="549" y="894" on="0"/>
        <pt x="563" y="894" on="1"/>
        <pt x="580" y="894" on="0"/>
        <pt x="598" y="927" on="0"/>
        <pt x="603" y="958" on="1"/>
        <pt x="665" y="958" on="1"/>
        <pt x="654" y="900" on="0"/>
        <pt x="608" y="826" on="0"/>
      </contour>
      <contour>
        <pt x="317" y="-10" on="1"/>
        <pt x="234" y="-10" on="0"/>
        <pt x="117" y="58" on="0"/>
        <pt x="69" y="191" on="0"/>
        <pt x="89" y="286" on="1"/>
        <pt x="186" y="740" on="1"/>
        <pt x="284" y="740" on="1"/>
        <pt x="185" y="274" on="1"/>
        <pt x="167" y="189" on="0"/>
        <pt x="236" y="83" on="0"/>
        <pt x="329" y="83" on="1"/>
        <pt x="387" y="83" on="0"/>
        <pt x="479" y="131" on="0"/>
        <pt x="542" y="218" on="0"/>
        <pt x="554" y="274" on="1"/>
        <pt x="653" y="740" on="1"/>
        <pt x="751" y="740" on="1"/>
        <pt x="652" y="274" on="1"/>
        <pt x="624" y="140" on="0"/>
        <pt x="445" y="-10" on="0"/>
      </contour>
    </TTGlyph>
    <TTGlyph name="V" xMin="109" yMin="0" xMax="748" yMax="740">
      <contour>
        <pt x="213" y="0" on="1"/>
        <pt x="109" y="740" on="1"/>
        <pt x="205" y="740" on="1"/>
        <pt x="289" y="117" on="1"/>
        <pt x="639" y="740" on="1"/>
        <pt x="748" y="740" on="1"/>
        <pt x="329" y="0" on="1"/>
      </contour>
    </TTGlyph>
    <TTGlyph name="W" xMin="119" yMin="0" xMax="1038" yMax="740">
      <contour>
        <pt x="159" y="0" on="1"/>
        <pt x="119" y="740" on="1"/>
        <pt x="214" y="740" on="1"/>
        <pt x="242" y="140" on="1"/>
        <pt x="528" y="740" on="1"/>
        <pt x="623" y="740" on="1"/>
        <pt x="657" y="142" on="1"/>
        <pt x="933" y="740" on="1"/>
        <pt x="1038" y="740" on="1"/>
        <pt x="687" y="0" on="1"/>
        <pt x="576" y="0" on="1"/>
        <pt x="544" y="578" on="1"/>
        <pt x="269" y="0" on="1"/>
      </contour>
    </TTGlyph>
    <TTGlyph name="Wacute" xMin="109" yMin="0" xMax="1028" yMax="1001">
      <contour>
        <pt x="632" y="820" on="1"/>
        <pt x="554" y="821" on="1"/>
        <pt x="647" y="1001" on="1"/>
        <pt x="742" y="1001" on="1"/>
      </contour>
      <contour>
        <pt x="149" y="0" on="1"/>
        <pt x="109" y="740" on="1"/>
        <pt x="204" y="740" on="1"/>
        <pt x="232" y="140" on="1"/>
        <pt x="518" y="740" on="1"/>
        <pt x="613" y="740" on="1"/>
        <pt x="647" y="142" on="1"/>
        <pt x="923" y="740" on="1"/>
        <pt x="1028" y="740" on="1"/>
        <pt x="677" y="0" on="1"/>
        <pt x="566" y="0" on="1"/>
        <pt x="534" y="578" on="1"/>
        <pt x="259" y="0" on="1"/>
      </contour>
    </TTGlyph>
    <TTGlyph name="Wcircumflex" xMin="109" yMin="0" xMax="1028" yMax="983">
      <contour>
        <pt x="424" y="816" on="1"/>
        <pt x="580" y="983" on="1"/>
        <pt x="661" y="983" on="1"/>
        <pt x="747" y="816" on="1"/>
        <pt x="667" y="816" on="1"/>
        <pt x="614" y="923" on="1"/>
        <pt x="516" y="816" on="1"/>
      </contour>
      <contour>
        <pt x="149" y="0" on="1"/>
        <pt x="109" y="740" on="1"/>
        <pt x="204" y="740" on="1"/>
        <pt x="232" y="140" on="1"/>
        <pt x="518" y="740" on="1"/>
        <pt x="613" y="740" on="1"/>
        <pt x="647" y="142" on="1"/>
        <pt x="923" y="740" on="1"/>
        <pt x="1028" y="740" on="1"/>
        <pt x="677" y="0" on="1"/>
        <pt x="566" y="0" on="1"/>
        <pt x="534" y="578" on="1"/>
        <pt x="259" y="0" on="1"/>
      </contour>
    </TTGlyph>
    <TTGlyph name="Wdieresis" xMin="109" yMin="0" xMax="1028" yMax="944">
      <contour>
        <pt x="694" y="821" on="1"/>
        <pt x="667" y="821" on="0"/>
        <pt x="632" y="857" on="0"/>
        <pt x="632" y="882" on="1"/>
        <pt x="632" y="908" on="0"/>
        <pt x="667" y="944" on="0"/>
        <pt x="694" y="944" on="1"/>
        <pt x="720" y="944" on="0"/>
        <pt x="756" y="908" on="0"/>
        <pt x="756" y="882" on="1"/>
        <pt x="756" y="857" on="0"/>
        <pt x="720" y="821" on="0"/>
      </contour>
      <contour>
        <pt x="504" y="821" on="1"/>
        <pt x="477" y="821" on="0"/>
        <pt x="442" y="857" on="0"/>
        <pt x="442" y="882" on="1"/>
        <pt x="442" y="908" on="0"/>
        <pt x="477" y="944" on="0"/>
        <pt x="504" y="944" on="1"/>
        <pt x="530" y="944" on="0"/>
        <pt x="566" y="908" on="0"/>
        <pt x="566" y="882" on="1"/>
        <pt x="566" y="857" on="0"/>
        <pt x="530" y="821" on="0"/>
      </contour>
      <contour>
        <pt x="149" y="0" on="1"/>
        <pt x="109" y="740" on="1"/>
        <pt x="204" y="740" on="1"/>
        <pt x="232" y="140" on="1"/>
        <pt x="518" y="740" on="1"/>
        <pt x="613" y="740" on="1"/>
        <pt x="647" y="142" on="1"/>
        <pt x="923" y="740" on="1"/>
        <pt x="1028" y="740" on="1"/>
        <pt x="677" y="0" on="1"/>
        <pt x="566" y="0" on="1"/>
        <pt x="534" y="578" on="1"/>
        <pt x="259" y="0" on="1"/>
      </contour>
    </TTGlyph>
    <TTGlyph name="Wgrave" xMin="109" yMin="0" xMax="1028" yMax="1001">
      <contour>
        <pt x="538" y="820" on="1"/>
        <pt x="455" y="1001" on="1"/>
        <pt x="548" y="1001" on="1"/>
        <pt x="614" y="821" on="1"/>
      </contour>
      <contour>
        <pt x="149" y="0" on="1"/>
        <pt x="109" y="740" on="1"/>
        <pt x="204" y="740" on="1"/>
        <pt x="232" y="140" on="1"/>
        <pt x="518" y="740" on="1"/>
        <pt x="613" y="740" on="1"/>
        <pt x="647" y="142" on="1"/>
        <pt x="923" y="740" on="1"/>
        <pt x="1028" y="740" on="1"/>
        <pt x="677" y="0" on="1"/>
        <pt x="566" y="0" on="1"/>
        <pt x="534" y="578" on="1"/>
        <pt x="259" y="0" on="1"/>
      </contour>
    </TTGlyph>
    <TTGlyph name="X" xMin="-11" yMin="0" xMax="768" yMax="740">
      <contour>
        <pt x="-11" y="0" on="1"/>
        <pt x="320" y="387" on="1"/>
        <pt x="167" y="740" on="1"/>
        <pt x="273" y="740" on="1"/>
        <pt x="395" y="449" on="1"/>
        <pt x="641" y="740" on="1"/>
        <pt x="768" y="740" on="1"/>
        <pt x="441" y="360" on="1"/>
        <pt x="598" y="0" on="1"/>
        <pt x="492" y="0" on="1"/>
        <pt x="367" y="297" on="1"/>
        <pt x="116" y="0" on="1"/>
      </contour>
    </TTGlyph>
    <TTGlyph name="Y" xMin="92" yMin="0" xMax="707" yMax="740">
      <contour>
        <pt x="193" y="0" on="1"/>
        <pt x="249" y="265" on="1"/>
        <pt x="92" y="740" on="1"/>
        <pt x="191" y="740" on="1"/>
        <pt x="313" y="366" on="1"/>
        <pt x="590" y="740" on="1"/>
        <pt x="707" y="740" on="1"/>
        <pt x="346" y="262" on="1"/>
        <pt x="291" y="0" on="1"/>
      </contour>
    </TTGlyph>
    <TTGlyph name="Yacute" xMin="92" yMin="0" xMax="707" yMax="1001">
      <contour>
        <pt x="457" y="820" on="1"/>
        <pt x="379" y="821" on="1"/>
        <pt x="472" y="1001" on="1"/>
        <pt x="567" y="1001" on="1"/>
      </contour>
      <contour>
        <pt x="193" y="0" on="1"/>
        <pt x="249" y="265" on="1"/>
        <pt x="92" y="740" on="1"/>
        <pt x="191" y="740" on="1"/>
        <pt x="313" y="366" on="1"/>
        <pt x="590" y="740" on="1"/>
        <pt x="707" y="740" on="1"/>
        <pt x="346" y="262" on="1"/>
        <pt x="291" y="0" on="1"/>
      </contour>
    </TTGlyph>
    <TTGlyph name="Ycircumflex" xMin="92" yMin="0" xMax="707" yMax="983">
      <contour>
        <pt x="249" y="816" on="1"/>
        <pt x="405" y="983" on="1"/>
        <pt x="486" y="983" on="1"/>
        <pt x="572" y="816" on="1"/>
        <pt x="492" y="816" on="1"/>
        <pt x="439" y="923" on="1"/>
        <pt x="341" y="816" on="1"/>
      </contour>
      <contour>
        <pt x="193" y="0" on="1"/>
        <pt x="249" y="265" on="1"/>
        <pt x="92" y="740" on="1"/>
        <pt x="191" y="740" on="1"/>
        <pt x="313" y="366" on="1"/>
        <pt x="590" y="740" on="1"/>
        <pt x="707" y="740" on="1"/>
        <pt x="346" y="262" on="1"/>
        <pt x="291" y="0" on="1"/>
      </contour>
    </TTGlyph>
    <TTGlyph name="Ydieresis" xMin="92" yMin="0" xMax="707" yMax="944">
      <contour>
        <pt x="519" y="821" on="1"/>
        <pt x="492" y="821" on="0"/>
        <pt x="457" y="857" on="0"/>
        <pt x="457" y="882" on="1"/>
        <pt x="457" y="908" on="0"/>
        <pt x="492" y="944" on="0"/>
        <pt x="519" y="944" on="1"/>
        <pt x="545" y="944" on="0"/>
        <pt x="581" y="908" on="0"/>
        <pt x="581" y="882" on="1"/>
        <pt x="581" y="857" on="0"/>
        <pt x="545" y="821" on="0"/>
      </contour>
      <contour>
        <pt x="329" y="821" on="1"/>
        <pt x="302" y="821" on="0"/>
        <pt x="267" y="857" on="0"/>
        <pt x="267" y="882" on="1"/>
        <pt x="267" y="908" on="0"/>
        <pt x="302" y="944" on="0"/>
        <pt x="329" y="944" on="1"/>
        <pt x="355" y="944" on="0"/>
        <pt x="391" y="908" on="0"/>
        <pt x="391" y="882" on="1"/>
        <pt x="391" y="857" on="0"/>
        <pt x="355" y="821" on="0"/>
      </contour>
      <contour>
        <pt x="193" y="0" on="1"/>
        <pt x="249" y="265" on="1"/>
        <pt x="92" y="740" on="1"/>
        <pt x="191" y="740" on="1"/>
        <pt x="313" y="366" on="1"/>
        <pt x="590" y="740" on="1"/>
        <pt x="707" y="740" on="1"/>
        <pt x="346" y="262" on="1"/>
        <pt x="291" y="0" on="1"/>
      </contour>
    </TTGlyph>
    <TTGlyph name="Ygrave" xMin="92" yMin="0" xMax="707" yMax="1001">
      <contour>
        <pt x="363" y="820" on="1"/>
        <pt x="280" y="1001" on="1"/>
        <pt x="373" y="1001" on="1"/>
        <pt x="439" y="821" on="1"/>
      </contour>
      <contour>
        <pt x="193" y="0" on="1"/>
        <pt x="249" y="265" on="1"/>
        <pt x="92" y="740" on="1"/>
        <pt x="191" y="740" on="1"/>
        <pt x="313" y="366" on="1"/>
        <pt x="590" y="740" on="1"/>
        <pt x="707" y="740" on="1"/>
        <pt x="346" y="262" on="1"/>
        <pt x="291" y="0" on="1"/>
      </contour>
    </TTGlyph>
    <TTGlyph name="Z" xMin="-11" yMin="0" xMax="666" yMax="740">
      <contour>
        <pt x="-11" y="0" on="1"/>
        <pt x="5" y="75" on="1"/>
        <pt x="519" y="654" on="1"/>
        <pt x="127" y="654" on="1"/>
        <pt x="146" y="740" on="1"/>
        <pt x="666" y="740" on="1"/>
        <pt x="650" y="665" on="1"/>
        <pt x="135" y="86" on="1"/>
        <pt x="528" y="86" on="1"/>
        <pt x="509" y="0" on="1"/>
      </contour>
    </TTGlyph>
    <TTGlyph name="Zacute" xMin="-11" yMin="0" xMax="666" yMax="1001">
      <contour>
        <pt x="466" y="820" on="1"/>
        <pt x="388" y="821" on="1"/>
        <pt x="481" y="1001" on="1"/>
        <pt x="576" y="1001" on="1"/>
      </contour>
      <contour>
        <pt x="-11" y="0" on="1"/>
        <pt x="5" y="75" on="1"/>
        <pt x="519" y="654" on="1"/>
        <pt x="127" y="654" on="1"/>
        <pt x="146" y="740" on="1"/>
        <pt x="666" y="740" on="1"/>
        <pt x="650" y="665" on="1"/>
        <pt x="135" y="86" on="1"/>
        <pt x="528" y="86" on="1"/>
        <pt x="509" y="0" on="1"/>
      </contour>
    </TTGlyph>
    <TTGlyph name="Zcaron" xMin="-11" yMin="0" xMax="666" yMax="982">
      <contour>
        <pt x="374" y="815" on="1"/>
        <pt x="288" y="982" on="1"/>
        <pt x="368" y="982" on="1"/>
        <pt x="421" y="875" on="1"/>
        <pt x="519" y="982" on="1"/>
        <pt x="611" y="982" on="1"/>
        <pt x="455" y="815" on="1"/>
      </contour>
      <contour>
        <pt x="-11" y="0" on="1"/>
        <pt x="5" y="75" on="1"/>
        <pt x="519" y="654" on="1"/>
        <pt x="127" y="654" on="1"/>
        <pt x="146" y="740" on="1"/>
        <pt x="666" y="740" on="1"/>
        <pt x="650" y="665" on="1"/>
        <pt x="135" y="86" on="1"/>
        <pt x="528" y="86" on="1"/>
        <pt x="509" y="0" on="1"/>
      </contour>
    </TTGlyph>
    <TTGlyph name="Zdotaccent" xMin="-11" yMin="0" xMax="666" yMax="959">
      <contour>
        <pt x="437" y="836" on="1"/>
        <pt x="410" y="836" on="0"/>
        <pt x="375" y="872" on="0"/>
        <pt x="375" y="897" on="1"/>
        <pt x="375" y="923" on="0"/>
        <pt x="410" y="959" on="0"/>
        <pt x="437" y="959" on="1"/>
        <pt x="463" y="959" on="0"/>
        <pt x="499" y="923" on="0"/>
        <pt x="499" y="897" on="1"/>
        <pt x="499" y="872" on="0"/>
        <pt x="463" y="836" on="0"/>
      </contour>
      <contour>
        <pt x="-11" y="0" on="1"/>
        <pt x="5" y="75" on="1"/>
        <pt x="519" y="654" on="1"/>
        <pt x="127" y="654" on="1"/>
        <pt x="146" y="740" on="1"/>
        <pt x="666" y="740" on="1"/>
        <pt x="650" y="665" on="1"/>
        <pt x="135" y="86" on="1"/>
        <pt x="528" y="86" on="1"/>
        <pt x="509" y="0" on="1"/>
      </contour>
    </TTGlyph>
    <TTGlyph name="a" xMin="49" yMin="-10" xMax="623" yMax="540">
      <contour>
        <pt x="330" y="540" on="1"/>
        <pt x="383" y="540" on="0"/>
        <pt x="453" y="507" on="0"/>
        <pt x="493" y="460" on="0"/>
        <pt x="501" y="438" on="1"/>
        <pt x="507" y="438" on="1"/>
        <pt x="527" y="530" on="1"/>
        <pt x="623" y="530" on="1"/>
        <pt x="509" y="0" on="1"/>
        <pt x="413" y="0" on="1"/>
        <pt x="429" y="75" on="1"/>
        <pt x="424" y="75" on="1"/>
        <pt x="424" y="75" on="0"/>
        <pt x="405" y="49" on="0"/>
        <pt x="364" y="16" on="0"/>
        <pt x="300" y="-10" on="0"/>
        <pt x="255" y="-10" on="1"/>
        <pt x="187" y="-10" on="0"/>
        <pt x="95" y="56" on="0"/>
        <pt x="49" y="163" on="0"/>
        <pt x="49" y="224" on="1"/>
        <pt x="49" y="280" on="0"/>
        <pt x="86" y="392" on="0"/>
        <pt x="158" y="484" on="0"/>
        <pt x="263" y="540" on="0"/>
      </contour>
      <contour>
        <pt x="335" y="459" on="1"/>
        <pt x="290" y="459" on="0"/>
        <pt x="218" y="417" on="0"/>
        <pt x="168" y="348" on="0"/>
        <pt x="142" y="265" on="0"/>
        <pt x="142" y="224" on="1"/>
        <pt x="142" y="184" on="0"/>
        <pt x="170" y="114" on="0"/>
        <pt x="228" y="71" on="0"/>
        <pt x="274" y="71" on="1"/>
        <pt x="319" y="71" on="0"/>
        <pt x="390" y="113" on="0"/>
        <pt x="440" y="182" on="0"/>
        <pt x="466" y="265" on="0"/>
        <pt x="466" y="306" on="1"/>
        <pt x="466" y="347" on="0"/>
        <pt x="438" y="417" on="0"/>
        <pt x="381" y="459" on="0"/>
      </contour>
    </TTGlyph>
    <TTGlyph name="a.ss01" xMin="31" yMin="-10" xMax="524" yMax="540">
      <contour>
        <pt x="354" y="64" on="1"/>
        <pt x="354" y="64" on="0"/>
        <pt x="336" y="42" on="0"/>
        <pt x="298" y="12" on="0"/>
        <pt x="238" y="-10" on="0"/>
        <pt x="196" y="-10" on="1"/>
        <pt x="118" y="-10" on="0"/>
        <pt x="31" y="74" on="0"/>
        <pt x="31" y="136" on="1"/>
        <pt x="31" y="179" on="0"/>
        <pt x="76" y="254" on="0"/>
        <pt x="173" y="303" on="0"/>
        <pt x="250" y="306" on="1"/>
        <pt x="415" y="312" on="1"/>
        <pt x="419" y="333" on="1"/>
        <pt x="425" y="362" on="0"/>
        <pt x="415" y="420" on="0"/>
        <pt x="367" y="460" on="0"/>
        <pt x="316" y="460" on="1"/>
        <pt x="273" y="460" on="0"/>
        <pt x="221" y="432" on="0"/>
        <pt x="194" y="396" on="0"/>
        <pt x="185" y="368" on="0"/>
        <pt x="185" y="368" on="1"/>
        <pt x="93" y="368" on="1"/>
        <pt x="93" y="368" on="0"/>
        <pt x="103" y="403" on="0"/>
        <pt x="131" y="454" on="0"/>
        <pt x="181" y="505" on="0"/>
        <pt x="261" y="540" on="0"/>
        <pt x="319" y="540" on="1"/>
        <pt x="393" y="540" on="0"/>
        <pt x="487" y="479" on="0"/>
        <pt x="524" y="379" on="0"/>
        <pt x="511" y="320" on="1"/>
        <pt x="443" y="0" on="1"/>
        <pt x="348" y="0" on="1"/>
        <pt x="362" y="64" on="1"/>
      </contour>
      <contour>
        <pt x="125" y="142" on="1"/>
        <pt x="125" y="101" on="0"/>
        <pt x="186" y="65" on="0"/>
        <pt x="223" y="65" on="1"/>
        <pt x="264" y="65" on="0"/>
        <pt x="336" y="103" on="0"/>
        <pt x="386" y="171" on="0"/>
        <pt x="395" y="215" on="1"/>
        <pt x="400" y="238" on="1"/>
        <pt x="251" y="231" on="1"/>
        <pt x="188" y="228" on="0"/>
        <pt x="125" y="180" on="0"/>
      </contour>
    </TTGlyph>
    <TTGlyph name="aacute" xMin="49" yMin="-10" xMax="623" yMax="791">
      <contour>
        <pt x="430" y="610" on="1"/>
        <pt x="352" y="611" on="1"/>
        <pt x="445" y="791" on="1"/>
        <pt x="540" y="791" on="1"/>
      </contour>
      <contour>
        <pt x="330" y="540" on="1"/>
        <pt x="383" y="540" on="0"/>
        <pt x="453" y="507" on="0"/>
        <pt x="493" y="460" on="0"/>
        <pt x="501" y="438" on="1"/>
        <pt x="507" y="438" on="1"/>
        <pt x="527" y="530" on="1"/>
        <pt x="623" y="530" on="1"/>
        <pt x="509" y="0" on="1"/>
        <pt x="413" y="0" on="1"/>
        <pt x="429" y="75" on="1"/>
        <pt x="424" y="75" on="1"/>
        <pt x="424" y="75" on="0"/>
        <pt x="405" y="49" on="0"/>
        <pt x="364" y="16" on="0"/>
        <pt x="300" y="-10" on="0"/>
        <pt x="255" y="-10" on="1"/>
        <pt x="187" y="-10" on="0"/>
        <pt x="95" y="56" on="0"/>
        <pt x="49" y="163" on="0"/>
        <pt x="49" y="224" on="1"/>
        <pt x="49" y="280" on="0"/>
        <pt x="86" y="392" on="0"/>
        <pt x="158" y="484" on="0"/>
        <pt x="263" y="540" on="0"/>
      </contour>
      <contour>
        <pt x="335" y="459" on="1"/>
        <pt x="290" y="459" on="0"/>
        <pt x="218" y="417" on="0"/>
        <pt x="168" y="348" on="0"/>
        <pt x="142" y="265" on="0"/>
        <pt x="142" y="224" on="1"/>
        <pt x="142" y="184" on="0"/>
        <pt x="170" y="114" on="0"/>
        <pt x="228" y="71" on="0"/>
        <pt x="274" y="71" on="1"/>
        <pt x="319" y="71" on="0"/>
        <pt x="390" y="113" on="0"/>
        <pt x="440" y="182" on="0"/>
        <pt x="466" y="265" on="0"/>
        <pt x="466" y="306" on="1"/>
        <pt x="466" y="347" on="0"/>
        <pt x="438" y="417" on="0"/>
        <pt x="381" y="459" on="0"/>
      </contour>
    </TTGlyph>
    <TTGlyph name="aacute.ss01" xMin="29" yMin="-10" xMax="522" yMax="791">
      <contour>
        <pt x="395" y="610" on="1"/>
        <pt x="317" y="611" on="1"/>
        <pt x="410" y="791" on="1"/>
        <pt x="505" y="791" on="1"/>
      </contour>
      <contour>
        <pt x="352" y="64" on="1"/>
        <pt x="352" y="64" on="0"/>
        <pt x="334" y="42" on="0"/>
        <pt x="296" y="12" on="0"/>
        <pt x="236" y="-10" on="0"/>
        <pt x="194" y="-10" on="1"/>
        <pt x="116" y="-10" on="0"/>
        <pt x="29" y="74" on="0"/>
        <pt x="29" y="136" on="1"/>
        <pt x="29" y="179" on="0"/>
        <pt x="74" y="254" on="0"/>
        <pt x="171" y="303" on="0"/>
        <pt x="248" y="306" on="1"/>
        <pt x="413" y="312" on="1"/>
        <pt x="417" y="333" on="1"/>
        <pt x="423" y="362" on="0"/>
        <pt x="413" y="420" on="0"/>
        <pt x="365" y="460" on="0"/>
        <pt x="314" y="460" on="1"/>
        <pt x="271" y="460" on="0"/>
        <pt x="219" y="432" on="0"/>
        <pt x="192" y="396" on="0"/>
        <pt x="183" y="368" on="0"/>
        <pt x="183" y="368" on="1"/>
        <pt x="91" y="368" on="1"/>
        <pt x="91" y="368" on="0"/>
        <pt x="101" y="403" on="0"/>
        <pt x="129" y="454" on="0"/>
        <pt x="179" y="505" on="0"/>
        <pt x="259" y="540" on="0"/>
        <pt x="317" y="540" on="1"/>
        <pt x="391" y="540" on="0"/>
        <pt x="485" y="479" on="0"/>
        <pt x="522" y="379" on="0"/>
        <pt x="509" y="320" on="1"/>
        <pt x="441" y="0" on="1"/>
        <pt x="346" y="0" on="1"/>
        <pt x="360" y="64" on="1"/>
      </contour>
      <contour>
        <pt x="123" y="142" on="1"/>
        <pt x="123" y="101" on="0"/>
        <pt x="184" y="65" on="0"/>
        <pt x="221" y="65" on="1"/>
        <pt x="262" y="65" on="0"/>
        <pt x="334" y="103" on="0"/>
        <pt x="384" y="171" on="0"/>
        <pt x="393" y="215" on="1"/>
        <pt x="398" y="238" on="1"/>
        <pt x="249" y="231" on="1"/>
        <pt x="186" y="228" on="0"/>
        <pt x="123" y="180" on="0"/>
      </contour>
    </TTGlyph>
    <TTGlyph name="abreve" xMin="49" yMin="-10" xMax="623" yMax="757">
      <contour>
        <pt x="396" y="605" on="1"/>
        <pt x="348" y="605" on="0"/>
        <pt x="291" y="636" on="0"/>
        <pt x="263" y="681" on="0"/>
        <pt x="254" y="726" on="0"/>
        <pt x="255" y="757" on="0"/>
        <pt x="255" y="757" on="1"/>
        <pt x="326" y="757" on="1"/>
        <pt x="326" y="757" on="0"/>
        <pt x="325" y="730" on="0"/>
        <pt x="334" y="696" on="0"/>
        <pt x="364" y="669" on="0"/>
        <pt x="396" y="669" on="1"/>
        <pt x="429" y="669" on="0"/>
        <pt x="471" y="696" on="0"/>
        <pt x="495" y="730" on="0"/>
        <pt x="504" y="757" on="0"/>
        <pt x="504" y="757" on="1"/>
        <pt x="575" y="757" on="1"/>
        <pt x="575" y="757" on="0"/>
        <pt x="568" y="726" on="0"/>
        <pt x="548" y="681" on="0"/>
        <pt x="508" y="636" on="0"/>
        <pt x="444" y="605" on="0"/>
      </contour>
      <contour>
        <pt x="330" y="540" on="1"/>
        <pt x="383" y="540" on="0"/>
        <pt x="453" y="507" on="0"/>
        <pt x="493" y="460" on="0"/>
        <pt x="501" y="438" on="1"/>
        <pt x="507" y="438" on="1"/>
        <pt x="527" y="530" on="1"/>
        <pt x="623" y="530" on="1"/>
        <pt x="509" y="0" on="1"/>
        <pt x="413" y="0" on="1"/>
        <pt x="429" y="75" on="1"/>
        <pt x="424" y="75" on="1"/>
        <pt x="424" y="75" on="0"/>
        <pt x="405" y="49" on="0"/>
        <pt x="364" y="16" on="0"/>
        <pt x="300" y="-10" on="0"/>
        <pt x="255" y="-10" on="1"/>
        <pt x="187" y="-10" on="0"/>
        <pt x="95" y="56" on="0"/>
        <pt x="49" y="163" on="0"/>
        <pt x="49" y="224" on="1"/>
        <pt x="49" y="280" on="0"/>
        <pt x="86" y="392" on="0"/>
        <pt x="158" y="484" on="0"/>
        <pt x="263" y="540" on="0"/>
      </contour>
      <contour>
        <pt x="335" y="459" on="1"/>
        <pt x="290" y="459" on="0"/>
        <pt x="218" y="417" on="0"/>
        <pt x="168" y="348" on="0"/>
        <pt x="142" y="265" on="0"/>
        <pt x="142" y="224" on="1"/>
        <pt x="142" y="184" on="0"/>
        <pt x="170" y="114" on="0"/>
        <pt x="228" y="71" on="0"/>
        <pt x="274" y="71" on="1"/>
        <pt x="319" y="71" on="0"/>
        <pt x="390" y="113" on="0"/>
        <pt x="440" y="182" on="0"/>
        <pt x="466" y="265" on="0"/>
        <pt x="466" y="306" on="1"/>
        <pt x="466" y="347" on="0"/>
        <pt x="438" y="417" on="0"/>
        <pt x="381" y="459" on="0"/>
      </contour>
    </TTGlyph>
    <TTGlyph name="abreve.ss01" xMin="29" yMin="-10" xMax="540" yMax="757">
      <contour>
        <pt x="361" y="605" on="1"/>
        <pt x="313" y="605" on="0"/>
        <pt x="256" y="636" on="0"/>
        <pt x="228" y="681" on="0"/>
        <pt x="219" y="726" on="0"/>
        <pt x="220" y="757" on="0"/>
        <pt x="220" y="757" on="1"/>
        <pt x="291" y="757" on="1"/>
        <pt x="291" y="757" on="0"/>
        <pt x="290" y="730" on="0"/>
        <pt x="299" y="696" on="0"/>
        <pt x="329" y="669" on="0"/>
        <pt x="361" y="669" on="1"/>
        <pt x="394" y="669" on="0"/>
        <pt x="436" y="696" on="0"/>
        <pt x="460" y="730" on="0"/>
        <pt x="469" y="757" on="0"/>
        <pt x="469" y="757" on="1"/>
        <pt x="540" y="757" on="1"/>
        <pt x="540" y="757" on="0"/>
        <pt x="533" y="726" on="0"/>
        <pt x="513" y="681" on="0"/>
        <pt x="473" y="636" on="0"/>
        <pt x="409" y="605" on="0"/>
      </contour>
      <contour>
        <pt x="352" y="64" on="1"/>
        <pt x="352" y="64" on="0"/>
        <pt x="334" y="42" on="0"/>
        <pt x="296" y="12" on="0"/>
        <pt x="236" y="-10" on="0"/>
        <pt x="194" y="-10" on="1"/>
        <pt x="116" y="-10" on="0"/>
        <pt x="29" y="74" on="0"/>
        <pt x="29" y="136" on="1"/>
        <pt x="29" y="179" on="0"/>
        <pt x="74" y="254" on="0"/>
        <pt x="171" y="303" on="0"/>
        <pt x="248" y="306" on="1"/>
        <pt x="413" y="312" on="1"/>
        <pt x="417" y="333" on="1"/>
        <pt x="423" y="362" on="0"/>
        <pt x="413" y="420" on="0"/>
        <pt x="365" y="460" on="0"/>
        <pt x="314" y="460" on="1"/>
        <pt x="271" y="460" on="0"/>
        <pt x="219" y="432" on="0"/>
        <pt x="192" y="396" on="0"/>
        <pt x="183" y="368" on="0"/>
        <pt x="183" y="368" on="1"/>
        <pt x="91" y="368" on="1"/>
        <pt x="91" y="368" on="0"/>
        <pt x="101" y="403" on="0"/>
        <pt x="129" y="454" on="0"/>
        <pt x="179" y="505" on="0"/>
        <pt x="259" y="540" on="0"/>
        <pt x="317" y="540" on="1"/>
        <pt x="391" y="540" on="0"/>
        <pt x="485" y="479" on="0"/>
        <pt x="522" y="379" on="0"/>
        <pt x="509" y="320" on="1"/>
        <pt x="441" y="0" on="1"/>
        <pt x="346" y="0" on="1"/>
        <pt x="360" y="64" on="1"/>
      </contour>
      <contour>
        <pt x="123" y="142" on="1"/>
        <pt x="123" y="101" on="0"/>
        <pt x="184" y="65" on="0"/>
        <pt x="221" y="65" on="1"/>
        <pt x="262" y="65" on="0"/>
        <pt x="334" y="103" on="0"/>
        <pt x="384" y="171" on="0"/>
        <pt x="393" y="215" on="1"/>
        <pt x="398" y="238" on="1"/>
        <pt x="249" y="231" on="1"/>
        <pt x="186" y="228" on="0"/>
        <pt x="123" y="180" on="0"/>
      </contour>
    </TTGlyph>
    <TTGlyph name="acircumflex" xMin="49" yMin="-10" xMax="623" yMax="773">
      <contour>
        <pt x="222" y="606" on="1"/>
        <pt x="378" y="773" on="1"/>
        <pt x="459" y="773" on="1"/>
        <pt x="545" y="606" on="1"/>
        <pt x="465" y="606" on="1"/>
        <pt x="412" y="713" on="1"/>
        <pt x="314" y="606" on="1"/>
      </contour>
      <contour>
        <pt x="330" y="540" on="1"/>
        <pt x="383" y="540" on="0"/>
        <pt x="453" y="507" on="0"/>
        <pt x="493" y="460" on="0"/>
        <pt x="501" y="438" on="1"/>
        <pt x="507" y="438" on="1"/>
        <pt x="527" y="530" on="1"/>
        <pt x="623" y="530" on="1"/>
        <pt x="509" y="0" on="1"/>
        <pt x="413" y="0" on="1"/>
        <pt x="429" y="75" on="1"/>
        <pt x="424" y="75" on="1"/>
        <pt x="424" y="75" on="0"/>
        <pt x="405" y="49" on="0"/>
        <pt x="364" y="16" on="0"/>
        <pt x="300" y="-10" on="0"/>
        <pt x="255" y="-10" on="1"/>
        <pt x="187" y="-10" on="0"/>
        <pt x="95" y="56" on="0"/>
        <pt x="49" y="163" on="0"/>
        <pt x="49" y="224" on="1"/>
        <pt x="49" y="280" on="0"/>
        <pt x="86" y="392" on="0"/>
        <pt x="158" y="484" on="0"/>
        <pt x="263" y="540" on="0"/>
      </contour>
      <contour>
        <pt x="335" y="459" on="1"/>
        <pt x="290" y="459" on="0"/>
        <pt x="218" y="417" on="0"/>
        <pt x="168" y="348" on="0"/>
        <pt x="142" y="265" on="0"/>
        <pt x="142" y="224" on="1"/>
        <pt x="142" y="184" on="0"/>
        <pt x="170" y="114" on="0"/>
        <pt x="228" y="71" on="0"/>
        <pt x="274" y="71" on="1"/>
        <pt x="319" y="71" on="0"/>
        <pt x="390" y="113" on="0"/>
        <pt x="440" y="182" on="0"/>
        <pt x="466" y="265" on="0"/>
        <pt x="466" y="306" on="1"/>
        <pt x="466" y="347" on="0"/>
        <pt x="438" y="417" on="0"/>
        <pt x="381" y="459" on="0"/>
      </contour>
    </TTGlyph>
    <TTGlyph name="acircumflex.ss01" xMin="29" yMin="-10" xMax="522" yMax="773">
      <contour>
        <pt x="187" y="606" on="1"/>
        <pt x="343" y="773" on="1"/>
        <pt x="424" y="773" on="1"/>
        <pt x="510" y="606" on="1"/>
        <pt x="430" y="606" on="1"/>
        <pt x="377" y="713" on="1"/>
        <pt x="279" y="606" on="1"/>
      </contour>
      <contour>
        <pt x="352" y="64" on="1"/>
        <pt x="352" y="64" on="0"/>
        <pt x="334" y="42" on="0"/>
        <pt x="296" y="12" on="0"/>
        <pt x="236" y="-10" on="0"/>
        <pt x="194" y="-10" on="1"/>
        <pt x="116" y="-10" on="0"/>
        <pt x="29" y="74" on="0"/>
        <pt x="29" y="136" on="1"/>
        <pt x="29" y="179" on="0"/>
        <pt x="74" y="254" on="0"/>
        <pt x="171" y="303" on="0"/>
        <pt x="248" y="306" on="1"/>
        <pt x="413" y="312" on="1"/>
        <pt x="417" y="333" on="1"/>
        <pt x="423" y="362" on="0"/>
        <pt x="413" y="420" on="0"/>
        <pt x="365" y="460" on="0"/>
        <pt x="314" y="460" on="1"/>
        <pt x="271" y="460" on="0"/>
        <pt x="219" y="432" on="0"/>
        <pt x="192" y="396" on="0"/>
        <pt x="183" y="368" on="0"/>
        <pt x="183" y="368" on="1"/>
        <pt x="91" y="368" on="1"/>
        <pt x="91" y="368" on="0"/>
        <pt x="101" y="403" on="0"/>
        <pt x="129" y="454" on="0"/>
        <pt x="179" y="505" on="0"/>
        <pt x="259" y="540" on="0"/>
        <pt x="317" y="540" on="1"/>
        <pt x="391" y="540" on="0"/>
        <pt x="485" y="479" on="0"/>
        <pt x="522" y="379" on="0"/>
        <pt x="509" y="320" on="1"/>
        <pt x="441" y="0" on="1"/>
        <pt x="346" y="0" on="1"/>
        <pt x="360" y="64" on="1"/>
      </contour>
      <contour>
        <pt x="123" y="142" on="1"/>
        <pt x="123" y="101" on="0"/>
        <pt x="184" y="65" on="0"/>
        <pt x="221" y="65" on="1"/>
        <pt x="262" y="65" on="0"/>
        <pt x="334" y="103" on="0"/>
        <pt x="384" y="171" on="0"/>
        <pt x="393" y="215" on="1"/>
        <pt x="398" y="238" on="1"/>
        <pt x="249" y="231" on="1"/>
        <pt x="186" y="228" on="0"/>
        <pt x="123" y="180" on="0"/>
      </contour>
    </TTGlyph>
    <TTGlyph name="acute" xMin="91" yMin="610" xMax="279" yMax="791">
      <contour>
        <pt x="169" y="610" on="1"/>
        <pt x="91" y="611" on="1"/>
        <pt x="184" y="791" on="1"/>
        <pt x="279" y="791" on="1"/>
      </contour>
    </TTGlyph>
    <TTGlyph name="acutecomb" xMin="121" yMin="610" xMax="309" yMax="791">
      <contour>
        <pt x="199" y="610" on="1"/>
        <pt x="121" y="611" on="1"/>
        <pt x="214" y="791" on="1"/>
        <pt x="309" y="791" on="1"/>
      </contour>
    </TTGlyph>
    <TTGlyph name="adieresis" xMin="49" yMin="-10" xMax="623" yMax="734">
      <contour>
        <pt x="492" y="611" on="1"/>
        <pt x="465" y="611" on="0"/>
        <pt x="430" y="647" on="0"/>
        <pt x="430" y="672" on="1"/>
        <pt x="430" y="698" on="0"/>
        <pt x="465" y="734" on="0"/>
        <pt x="492" y="734" on="1"/>
        <pt x="518" y="734" on="0"/>
        <pt x="554" y="698" on="0"/>
        <pt x="554" y="672" on="1"/>
        <pt x="554" y="647" on="0"/>
        <pt x="518" y="611" on="0"/>
      </contour>
      <contour>
        <pt x="302" y="611" on="1"/>
        <pt x="275" y="611" on="0"/>
        <pt x="240" y="647" on="0"/>
        <pt x="240" y="672" on="1"/>
        <pt x="240" y="698" on="0"/>
        <pt x="275" y="734" on="0"/>
        <pt x="302" y="734" on="1"/>
        <pt x="328" y="734" on="0"/>
        <pt x="364" y="698" on="0"/>
        <pt x="364" y="672" on="1"/>
        <pt x="364" y="647" on="0"/>
        <pt x="328" y="611" on="0"/>
      </contour>
      <contour>
        <pt x="330" y="540" on="1"/>
        <pt x="383" y="540" on="0"/>
        <pt x="453" y="507" on="0"/>
        <pt x="493" y="460" on="0"/>
        <pt x="501" y="438" on="1"/>
        <pt x="507" y="438" on="1"/>
        <pt x="527" y="530" on="1"/>
        <pt x="623" y="530" on="1"/>
        <pt x="509" y="0" on="1"/>
        <pt x="413" y="0" on="1"/>
        <pt x="429" y="75" on="1"/>
        <pt x="424" y="75" on="1"/>
        <pt x="424" y="75" on="0"/>
        <pt x="405" y="49" on="0"/>
        <pt x="364" y="16" on="0"/>
        <pt x="300" y="-10" on="0"/>
        <pt x="255" y="-10" on="1"/>
        <pt x="187" y="-10" on="0"/>
        <pt x="95" y="56" on="0"/>
        <pt x="49" y="163" on="0"/>
        <pt x="49" y="224" on="1"/>
        <pt x="49" y="280" on="0"/>
        <pt x="86" y="392" on="0"/>
        <pt x="158" y="484" on="0"/>
        <pt x="263" y="540" on="0"/>
      </contour>
      <contour>
        <pt x="335" y="459" on="1"/>
        <pt x="290" y="459" on="0"/>
        <pt x="218" y="417" on="0"/>
        <pt x="168" y="348" on="0"/>
        <pt x="142" y="265" on="0"/>
        <pt x="142" y="224" on="1"/>
        <pt x="142" y="184" on="0"/>
        <pt x="170" y="114" on="0"/>
        <pt x="228" y="71" on="0"/>
        <pt x="274" y="71" on="1"/>
        <pt x="319" y="71" on="0"/>
        <pt x="390" y="113" on="0"/>
        <pt x="440" y="182" on="0"/>
        <pt x="466" y="265" on="0"/>
        <pt x="466" y="306" on="1"/>
        <pt x="466" y="347" on="0"/>
        <pt x="438" y="417" on="0"/>
        <pt x="381" y="459" on="0"/>
      </contour>
    </TTGlyph>
    <TTGlyph name="adieresis.ss01" xMin="29" yMin="-10" xMax="522" yMax="734">
      <contour>
        <pt x="457" y="611" on="1"/>
        <pt x="430" y="611" on="0"/>
        <pt x="395" y="647" on="0"/>
        <pt x="395" y="672" on="1"/>
        <pt x="395" y="698" on="0"/>
        <pt x="430" y="734" on="0"/>
        <pt x="457" y="734" on="1"/>
        <pt x="483" y="734" on="0"/>
        <pt x="519" y="698" on="0"/>
        <pt x="519" y="672" on="1"/>
        <pt x="519" y="647" on="0"/>
        <pt x="483" y="611" on="0"/>
      </contour>
      <contour>
        <pt x="267" y="611" on="1"/>
        <pt x="240" y="611" on="0"/>
        <pt x="205" y="647" on="0"/>
        <pt x="205" y="672" on="1"/>
        <pt x="205" y="698" on="0"/>
        <pt x="240" y="734" on="0"/>
        <pt x="267" y="734" on="1"/>
        <pt x="293" y="734" on="0"/>
        <pt x="329" y="698" on="0"/>
        <pt x="329" y="672" on="1"/>
        <pt x="329" y="647" on="0"/>
        <pt x="293" y="611" on="0"/>
      </contour>
      <contour>
        <pt x="352" y="64" on="1"/>
        <pt x="352" y="64" on="0"/>
        <pt x="334" y="42" on="0"/>
        <pt x="296" y="12" on="0"/>
        <pt x="236" y="-10" on="0"/>
        <pt x="194" y="-10" on="1"/>
        <pt x="116" y="-10" on="0"/>
        <pt x="29" y="74" on="0"/>
        <pt x="29" y="136" on="1"/>
        <pt x="29" y="179" on="0"/>
        <pt x="74" y="254" on="0"/>
        <pt x="171" y="303" on="0"/>
        <pt x="248" y="306" on="1"/>
        <pt x="413" y="312" on="1"/>
        <pt x="417" y="333" on="1"/>
        <pt x="423" y="362" on="0"/>
        <pt x="413" y="420" on="0"/>
        <pt x="365" y="460" on="0"/>
        <pt x="314" y="460" on="1"/>
        <pt x="271" y="460" on="0"/>
        <pt x="219" y="432" on="0"/>
        <pt x="192" y="396" on="0"/>
        <pt x="183" y="368" on="0"/>
        <pt x="183" y="368" on="1"/>
        <pt x="91" y="368" on="1"/>
        <pt x="91" y="368" on="0"/>
        <pt x="101" y="403" on="0"/>
        <pt x="129" y="454" on="0"/>
        <pt x="179" y="505" on="0"/>
        <pt x="259" y="540" on="0"/>
        <pt x="317" y="540" on="1"/>
        <pt x="391" y="540" on="0"/>
        <pt x="485" y="479" on="0"/>
        <pt x="522" y="379" on="0"/>
        <pt x="509" y="320" on="1"/>
        <pt x="441" y="0" on="1"/>
        <pt x="346" y="0" on="1"/>
        <pt x="360" y="64" on="1"/>
      </contour>
      <contour>
        <pt x="123" y="142" on="1"/>
        <pt x="123" y="101" on="0"/>
        <pt x="184" y="65" on="0"/>
        <pt x="221" y="65" on="1"/>
        <pt x="262" y="65" on="0"/>
        <pt x="334" y="103" on="0"/>
        <pt x="384" y="171" on="0"/>
        <pt x="393" y="215" on="1"/>
        <pt x="398" y="238" on="1"/>
        <pt x="249" y="231" on="1"/>
        <pt x="186" y="228" on="0"/>
        <pt x="123" y="180" on="0"/>
      </contour>
    </TTGlyph>
    <TTGlyph name="ae" xMin="31" yMin="-10" xMax="903" yMax="540">
      <contour>
        <pt x="205" y="-10" on="1"/>
        <pt x="120" y="-10" on="0"/>
        <pt x="31" y="74" on="0"/>
        <pt x="31" y="137" on="1"/>
        <pt x="31" y="180" on="0"/>
        <pt x="76" y="254" on="0"/>
        <pt x="173" y="303" on="0"/>
        <pt x="250" y="306" on="1"/>
        <pt x="415" y="312" on="1"/>
        <pt x="419" y="333" on="1"/>
        <pt x="426" y="366" on="0"/>
        <pt x="412" y="424" on="0"/>
        <pt x="363" y="460" on="0"/>
        <pt x="316" y="460" on="1"/>
        <pt x="273" y="460" on="0"/>
        <pt x="221" y="432" on="0"/>
        <pt x="194" y="396" on="0"/>
        <pt x="185" y="368" on="0"/>
        <pt x="185" y="368" on="1"/>
        <pt x="93" y="368" on="1"/>
        <pt x="93" y="368" on="0"/>
        <pt x="103" y="403" on="0"/>
        <pt x="131" y="454" on="0"/>
        <pt x="181" y="505" on="0"/>
        <pt x="261" y="540" on="0"/>
        <pt x="319" y="540" on="1"/>
        <pt x="381" y="540" on="0"/>
        <pt x="467" y="491" on="0"/>
        <pt x="489" y="445" on="1"/>
        <pt x="495" y="445" on="1"/>
        <pt x="532" y="490" on="0"/>
        <pt x="633" y="540" on="0"/>
        <pt x="694" y="540" on="1"/>
        <pt x="761" y="540" on="0"/>
        <pt x="848" y="486" on="0"/>
        <pt x="894" y="399" on="0"/>
        <pt x="903" y="298" on="0"/>
        <pt x="891" y="252" on="1"/>
        <pt x="887" y="236" on="1"/>
        <pt x="496" y="236" on="1"/>
        <pt x="496" y="191" on="0"/>
        <pt x="525" y="116" on="0"/>
        <pt x="586" y="71" on="0"/>
        <pt x="635" y="71" on="1"/>
        <pt x="676" y="71" on="0"/>
        <pt x="729" y="98" on="0"/>
        <pt x="761" y="134" on="0"/>
        <pt x="774" y="161" on="0"/>
        <pt x="774" y="161" on="1"/>
        <pt x="864" y="161" on="1"/>
        <pt x="864" y="161" on="0"/>
        <pt x="851" y="126" on="0"/>
        <pt x="819" y="76" on="0"/>
        <pt x="764" y="25" on="0"/>
        <pt x="683" y="-10" on="0"/>
        <pt x="626" y="-10" on="1"/>
        <pt x="547" y="-10" on="0"/>
        <pt x="447" y="61" on="0"/>
        <pt x="424" y="116" on="1"/>
        <pt x="418" y="116" on="1"/>
        <pt x="418" y="116" on="0"/>
        <pt x="396" y="78" on="0"/>
        <pt x="347" y="28" on="0"/>
        <pt x="265" y="-10" on="0"/>
      </contour>
      <contour>
        <pt x="510" y="310" on="1"/>
        <pt x="809" y="310" on="1"/>
        <pt x="815" y="347" on="0"/>
        <pt x="792" y="415" on="0"/>
        <pt x="735" y="459" on="0"/>
        <pt x="688" y="459" on="1"/>
        <pt x="644" y="459" on="0"/>
        <pt x="573" y="418" on="0"/>
        <pt x="523" y="350" on="0"/>
      </contour>
      <contour>
        <pt x="223" y="65" on="1"/>
        <pt x="287" y="65" on="0"/>
        <pt x="381" y="151" on="0"/>
        <pt x="395" y="215" on="1"/>
        <pt x="400" y="238" on="1"/>
        <pt x="251" y="231" on="1"/>
        <pt x="188" y="228" on="0"/>
        <pt x="125" y="180" on="0"/>
        <pt x="125" y="142" on="1"/>
        <pt x="125" y="101" on="0"/>
        <pt x="186" y="65" on="0"/>
      </contour>
    </TTGlyph>
    <TTGlyph name="agrave" xMin="49" yMin="-10" xMax="623" yMax="791">
      <contour>
        <pt x="336" y="610" on="1"/>
        <pt x="253" y="791" on="1"/>
        <pt x="346" y="791" on="1"/>
        <pt x="412" y="611" on="1"/>
      </contour>
      <contour>
        <pt x="330" y="540" on="1"/>
        <pt x="383" y="540" on="0"/>
        <pt x="453" y="507" on="0"/>
        <pt x="493" y="460" on="0"/>
        <pt x="501" y="438" on="1"/>
        <pt x="507" y="438" on="1"/>
        <pt x="527" y="530" on="1"/>
        <pt x="623" y="530" on="1"/>
        <pt x="509" y="0" on="1"/>
        <pt x="413" y="0" on="1"/>
        <pt x="429" y="75" on="1"/>
        <pt x="424" y="75" on="1"/>
        <pt x="424" y="75" on="0"/>
        <pt x="405" y="49" on="0"/>
        <pt x="364" y="16" on="0"/>
        <pt x="300" y="-10" on="0"/>
        <pt x="255" y="-10" on="1"/>
        <pt x="187" y="-10" on="0"/>
        <pt x="95" y="56" on="0"/>
        <pt x="49" y="163" on="0"/>
        <pt x="49" y="224" on="1"/>
        <pt x="49" y="280" on="0"/>
        <pt x="86" y="392" on="0"/>
        <pt x="158" y="484" on="0"/>
        <pt x="263" y="540" on="0"/>
      </contour>
      <contour>
        <pt x="335" y="459" on="1"/>
        <pt x="290" y="459" on="0"/>
        <pt x="218" y="417" on="0"/>
        <pt x="168" y="348" on="0"/>
        <pt x="142" y="265" on="0"/>
        <pt x="142" y="224" on="1"/>
        <pt x="142" y="184" on="0"/>
        <pt x="170" y="114" on="0"/>
        <pt x="228" y="71" on="0"/>
        <pt x="274" y="71" on="1"/>
        <pt x="319" y="71" on="0"/>
        <pt x="390" y="113" on="0"/>
        <pt x="440" y="182" on="0"/>
        <pt x="466" y="265" on="0"/>
        <pt x="466" y="306" on="1"/>
        <pt x="466" y="347" on="0"/>
        <pt x="438" y="417" on="0"/>
        <pt x="381" y="459" on="0"/>
      </contour>
    </TTGlyph>
    <TTGlyph name="agrave.ss01" xMin="29" yMin="-10" xMax="522" yMax="791">
      <contour>
        <pt x="301" y="610" on="1"/>
        <pt x="218" y="791" on="1"/>
        <pt x="311" y="791" on="1"/>
        <pt x="377" y="611" on="1"/>
      </contour>
      <contour>
        <pt x="352" y="64" on="1"/>
        <pt x="352" y="64" on="0"/>
        <pt x="334" y="42" on="0"/>
        <pt x="296" y="12" on="0"/>
        <pt x="236" y="-10" on="0"/>
        <pt x="194" y="-10" on="1"/>
        <pt x="116" y="-10" on="0"/>
        <pt x="29" y="74" on="0"/>
        <pt x="29" y="136" on="1"/>
        <pt x="29" y="179" on="0"/>
        <pt x="74" y="254" on="0"/>
        <pt x="171" y="303" on="0"/>
        <pt x="248" y="306" on="1"/>
        <pt x="413" y="312" on="1"/>
        <pt x="417" y="333" on="1"/>
        <pt x="423" y="362" on="0"/>
        <pt x="413" y="420" on="0"/>
        <pt x="365" y="460" on="0"/>
        <pt x="314" y="460" on="1"/>
        <pt x="271" y="460" on="0"/>
        <pt x="219" y="432" on="0"/>
        <pt x="192" y="396" on="0"/>
        <pt x="183" y="368" on="0"/>
        <pt x="183" y="368" on="1"/>
        <pt x="91" y="368" on="1"/>
        <pt x="91" y="368" on="0"/>
        <pt x="101" y="403" on="0"/>
        <pt x="129" y="454" on="0"/>
        <pt x="179" y="505" on="0"/>
        <pt x="259" y="540" on="0"/>
        <pt x="317" y="540" on="1"/>
        <pt x="391" y="540" on="0"/>
        <pt x="485" y="479" on="0"/>
        <pt x="522" y="379" on="0"/>
        <pt x="509" y="320" on="1"/>
        <pt x="441" y="0" on="1"/>
        <pt x="346" y="0" on="1"/>
        <pt x="360" y="64" on="1"/>
      </contour>
      <contour>
        <pt x="123" y="142" on="1"/>
        <pt x="123" y="101" on="0"/>
        <pt x="184" y="65" on="0"/>
        <pt x="221" y="65" on="1"/>
        <pt x="262" y="65" on="0"/>
        <pt x="334" y="103" on="0"/>
        <pt x="384" y="171" on="0"/>
        <pt x="393" y="215" on="1"/>
        <pt x="398" y="238" on="1"/>
        <pt x="249" y="231" on="1"/>
        <pt x="186" y="228" on="0"/>
        <pt x="123" y="180" on="0"/>
      </contour>
    </TTGlyph>
    <TTGlyph name="amacron" xMin="49" yMin="-10" xMax="623" yMax="713">
      <contour>
        <pt x="238" y="641" on="1"/>
        <pt x="254" y="713" on="1"/>
        <pt x="558" y="713" on="1"/>
        <pt x="542" y="641" on="1"/>
      </contour>
      <contour>
        <pt x="330" y="540" on="1"/>
        <pt x="383" y="540" on="0"/>
        <pt x="453" y="507" on="0"/>
        <pt x="493" y="460" on="0"/>
        <pt x="501" y="438" on="1"/>
        <pt x="507" y="438" on="1"/>
        <pt x="527" y="530" on="1"/>
        <pt x="623" y="530" on="1"/>
        <pt x="509" y="0" on="1"/>
        <pt x="413" y="0" on="1"/>
        <pt x="429" y="75" on="1"/>
        <pt x="424" y="75" on="1"/>
        <pt x="424" y="75" on="0"/>
        <pt x="405" y="49" on="0"/>
        <pt x="364" y="16" on="0"/>
        <pt x="300" y="-10" on="0"/>
        <pt x="255" y="-10" on="1"/>
        <pt x="187" y="-10" on="0"/>
        <pt x="95" y="56" on="0"/>
        <pt x="49" y="163" on="0"/>
        <pt x="49" y="224" on="1"/>
        <pt x="49" y="280" on="0"/>
        <pt x="86" y="392" on="0"/>
        <pt x="158" y="484" on="0"/>
        <pt x="263" y="540" on="0"/>
      </contour>
      <contour>
        <pt x="335" y="459" on="1"/>
        <pt x="290" y="459" on="0"/>
        <pt x="218" y="417" on="0"/>
        <pt x="168" y="348" on="0"/>
        <pt x="142" y="265" on="0"/>
        <pt x="142" y="224" on="1"/>
        <pt x="142" y="184" on="0"/>
        <pt x="170" y="114" on="0"/>
        <pt x="228" y="71" on="0"/>
        <pt x="274" y="71" on="1"/>
        <pt x="319" y="71" on="0"/>
        <pt x="390" y="113" on="0"/>
        <pt x="440" y="182" on="0"/>
        <pt x="466" y="265" on="0"/>
        <pt x="466" y="306" on="1"/>
        <pt x="466" y="347" on="0"/>
        <pt x="438" y="417" on="0"/>
        <pt x="381" y="459" on="0"/>
      </contour>
    </TTGlyph>
    <TTGlyph name="amacron.ss01" xMin="29" yMin="-10" xMax="523" yMax="713">
      <contour>
        <pt x="203" y="641" on="1"/>
        <pt x="219" y="713" on="1"/>
        <pt x="523" y="713" on="1"/>
        <pt x="507" y="641" on="1"/>
      </contour>
      <contour>
        <pt x="352" y="64" on="1"/>
        <pt x="352" y="64" on="0"/>
        <pt x="334" y="42" on="0"/>
        <pt x="296" y="12" on="0"/>
        <pt x="236" y="-10" on="0"/>
        <pt x="194" y="-10" on="1"/>
        <pt x="116" y="-10" on="0"/>
        <pt x="29" y="74" on="0"/>
        <pt x="29" y="136" on="1"/>
        <pt x="29" y="179" on="0"/>
        <pt x="74" y="254" on="0"/>
        <pt x="171" y="303" on="0"/>
        <pt x="248" y="306" on="1"/>
        <pt x="413" y="312" on="1"/>
        <pt x="417" y="333" on="1"/>
        <pt x="423" y="362" on="0"/>
        <pt x="413" y="420" on="0"/>
        <pt x="365" y="460" on="0"/>
        <pt x="314" y="460" on="1"/>
        <pt x="271" y="460" on="0"/>
        <pt x="219" y="432" on="0"/>
        <pt x="192" y="396" on="0"/>
        <pt x="183" y="368" on="0"/>
        <pt x="183" y="368" on="1"/>
        <pt x="91" y="368" on="1"/>
        <pt x="91" y="368" on="0"/>
        <pt x="101" y="403" on="0"/>
        <pt x="129" y="454" on="0"/>
        <pt x="179" y="505" on="0"/>
        <pt x="259" y="540" on="0"/>
        <pt x="317" y="540" on="1"/>
        <pt x="391" y="540" on="0"/>
        <pt x="485" y="479" on="0"/>
        <pt x="522" y="379" on="0"/>
        <pt x="509" y="320" on="1"/>
        <pt x="441" y="0" on="1"/>
        <pt x="346" y="0" on="1"/>
        <pt x="360" y="64" on="1"/>
      </contour>
      <contour>
        <pt x="123" y="142" on="1"/>
        <pt x="123" y="101" on="0"/>
        <pt x="184" y="65" on="0"/>
        <pt x="221" y="65" on="1"/>
        <pt x="262" y="65" on="0"/>
        <pt x="334" y="103" on="0"/>
        <pt x="384" y="171" on="0"/>
        <pt x="393" y="215" on="1"/>
        <pt x="398" y="238" on="1"/>
        <pt x="249" y="231" on="1"/>
        <pt x="186" y="228" on="0"/>
        <pt x="123" y="180" on="0"/>
      </contour>
    </TTGlyph>
    <TTGlyph name="ampersand" xMin="6" yMin="-10" xMax="618" yMax="750">
      <contour>
        <pt x="240" y="-10" on="1"/>
        <pt x="173" y="-10" on="0"/>
        <pt x="67" y="40" on="0"/>
        <pt x="6" y="131" on="0"/>
        <pt x="6" y="190" on="1"/>
        <pt x="6" y="250" on="0"/>
        <pt x="64" y="337" on="0"/>
        <pt x="155" y="399" on="0"/>
        <pt x="207" y="421" on="1"/>
        <pt x="183" y="459" on="0"/>
        <pt x="155" y="534" on="0"/>
        <pt x="155" y="574" on="1"/>
        <pt x="155" y="631" on="0"/>
        <pt x="208" y="709" on="0"/>
        <pt x="292" y="750" on="0"/>
        <pt x="339" y="750" on="1"/>
        <pt x="383" y="750" on="0"/>
        <pt x="463" y="714" on="0"/>
        <pt x="514" y="645" on="0"/>
        <pt x="514" y="595" on="1"/>
        <pt x="514" y="540" on="0"/>
        <pt x="456" y="463" on="0"/>
        <pt x="370" y="411" on="0"/>
        <pt x="328" y="394" on="1"/>
        <pt x="329" y="392" on="0"/>
        <pt x="332" y="388" on="1"/>
        <pt x="461" y="210" on="1"/>
        <pt x="484" y="251" on="0"/>
        <pt x="521" y="359" on="0"/>
        <pt x="534" y="426" on="1"/>
        <pt x="618" y="426" on="1"/>
        <pt x="602" y="335" on="0"/>
        <pt x="547" y="193" on="0"/>
        <pt x="510" y="141" on="1"/>
        <pt x="612" y="0" on="1"/>
        <pt x="500" y="0" on="1"/>
        <pt x="450" y="72" on="1"/>
        <pt x="403" y="30" on="0"/>
        <pt x="297" y="-10" on="0"/>
      </contour>
      <contour>
        <pt x="239" y="577" on="1"/>
        <pt x="239" y="547" on="0"/>
        <pt x="265" y="486" on="0"/>
        <pt x="287" y="452" on="1"/>
        <pt x="291" y="454" on="1"/>
        <pt x="309" y="461" on="0"/>
        <pt x="356" y="483" on="0"/>
        <pt x="402" y="516" on="0"/>
        <pt x="432" y="562" on="0"/>
        <pt x="432" y="592" on="1"/>
        <pt x="432" y="634" on="0"/>
        <pt x="375" y="676" on="0"/>
        <pt x="340" y="676" on="1"/>
        <pt x="303" y="676" on="0"/>
        <pt x="239" y="627" on="0"/>
      </contour>
      <contour>
        <pt x="98" y="202" on="1"/>
        <pt x="98" y="143" on="0"/>
        <pt x="184" y="70" on="0"/>
        <pt x="252" y="70" on="1"/>
        <pt x="339" y="70" on="0"/>
        <pt x="405" y="135" on="1"/>
        <pt x="283" y="309" on="1"/>
        <pt x="273" y="323" on="0"/>
        <pt x="255" y="349" on="0"/>
        <pt x="246" y="361" on="1"/>
        <pt x="209" y="346" on="0"/>
        <pt x="141" y="305" on="0"/>
        <pt x="98" y="245" on="0"/>
      </contour>
    </TTGlyph>
    <TTGlyph name="aogonek" xMin="49" yMin="-167" xMax="623" yMax="540">
      <contour>
        <pt x="467" y="-167" on="1"/>
        <pt x="418" y="-167" on="0"/>
        <pt x="366" y="-124" on="0"/>
        <pt x="366" y="-90" on="1"/>
        <pt x="366" y="-56" on="0"/>
        <pt x="407" y="-12" on="0"/>
        <pt x="430" y="0" on="1"/>
        <pt x="413" y="0" on="1"/>
        <pt x="429" y="75" on="1"/>
        <pt x="424" y="75" on="1"/>
        <pt x="424" y="75" on="0"/>
        <pt x="405" y="49" on="0"/>
        <pt x="364" y="16" on="0"/>
        <pt x="300" y="-10" on="0"/>
        <pt x="255" y="-10" on="1"/>
        <pt x="187" y="-10" on="0"/>
        <pt x="95" y="56" on="0"/>
        <pt x="49" y="163" on="0"/>
        <pt x="49" y="224" on="1"/>
        <pt x="49" y="280" on="0"/>
        <pt x="86" y="392" on="0"/>
        <pt x="158" y="484" on="0"/>
        <pt x="263" y="540" on="0"/>
        <pt x="330" y="540" on="1"/>
        <pt x="383" y="540" on="0"/>
        <pt x="453" y="507" on="0"/>
        <pt x="493" y="460" on="0"/>
        <pt x="501" y="438" on="1"/>
        <pt x="507" y="438" on="1"/>
        <pt x="527" y="530" on="1"/>
        <pt x="623" y="530" on="1"/>
        <pt x="509" y="0" on="1"/>
        <pt x="509" y="0" on="0"/>
        <pt x="488" y="-9" on="0"/>
        <pt x="460" y="-27" on="0"/>
        <pt x="439" y="-54" on="0"/>
        <pt x="439" y="-72" on="1"/>
        <pt x="439" y="-108" on="0"/>
        <pt x="489" y="-108" on="1"/>
        <pt x="503" y="-108" on="0"/>
        <pt x="526" y="-103" on="0"/>
        <pt x="526" y="-103" on="1"/>
        <pt x="514" y="-161" on="1"/>
        <pt x="514" y="-161" on="0"/>
        <pt x="488" y="-167" on="0"/>
      </contour>
      <contour>
        <pt x="335" y="459" on="1"/>
        <pt x="290" y="459" on="0"/>
        <pt x="218" y="417" on="0"/>
        <pt x="168" y="348" on="0"/>
        <pt x="142" y="265" on="0"/>
        <pt x="142" y="224" on="1"/>
        <pt x="142" y="184" on="0"/>
        <pt x="170" y="114" on="0"/>
        <pt x="228" y="71" on="0"/>
        <pt x="274" y="71" on="1"/>
        <pt x="319" y="71" on="0"/>
        <pt x="390" y="113" on="0"/>
        <pt x="440" y="182" on="0"/>
        <pt x="466" y="265" on="0"/>
        <pt x="466" y="306" on="1"/>
        <pt x="466" y="347" on="0"/>
        <pt x="438" y="417" on="0"/>
        <pt x="381" y="459" on="0"/>
      </contour>
    </TTGlyph>
    <TTGlyph name="aogonek.ss01" xMin="29" yMin="-167" xMax="522" yMax="540">
      <contour>
        <pt x="399" y="-167" on="1"/>
        <pt x="350" y="-167" on="0"/>
        <pt x="298" y="-124" on="0"/>
        <pt x="298" y="-90" on="1"/>
        <pt x="298" y="-56" on="0"/>
        <pt x="339" y="-12" on="0"/>
        <pt x="362" y="0" on="1"/>
        <pt x="346" y="0" on="1"/>
        <pt x="360" y="64" on="1"/>
        <pt x="352" y="64" on="1"/>
        <pt x="352" y="64" on="0"/>
        <pt x="334" y="42" on="0"/>
        <pt x="296" y="12" on="0"/>
        <pt x="236" y="-10" on="0"/>
        <pt x="194" y="-10" on="1"/>
        <pt x="116" y="-10" on="0"/>
        <pt x="29" y="74" on="0"/>
        <pt x="29" y="136" on="1"/>
        <pt x="29" y="179" on="0"/>
        <pt x="74" y="254" on="0"/>
        <pt x="171" y="303" on="0"/>
        <pt x="248" y="306" on="1"/>
        <pt x="413" y="312" on="1"/>
        <pt x="417" y="333" on="1"/>
        <pt x="423" y="362" on="0"/>
        <pt x="413" y="420" on="0"/>
        <pt x="365" y="460" on="0"/>
        <pt x="314" y="460" on="1"/>
        <pt x="271" y="460" on="0"/>
        <pt x="219" y="432" on="0"/>
        <pt x="192" y="396" on="0"/>
        <pt x="183" y="368" on="0"/>
        <pt x="183" y="368" on="1"/>
        <pt x="91" y="368" on="1"/>
        <pt x="91" y="368" on="0"/>
        <pt x="101" y="403" on="0"/>
        <pt x="129" y="454" on="0"/>
        <pt x="179" y="505" on="0"/>
        <pt x="259" y="540" on="0"/>
        <pt x="317" y="540" on="1"/>
        <pt x="391" y="540" on="0"/>
        <pt x="485" y="479" on="0"/>
        <pt x="522" y="379" on="0"/>
        <pt x="509" y="320" on="1"/>
        <pt x="441" y="0" on="1"/>
        <pt x="441" y="0" on="0"/>
        <pt x="420" y="-9" on="0"/>
        <pt x="392" y="-27" on="0"/>
        <pt x="371" y="-54" on="0"/>
        <pt x="371" y="-72" on="1"/>
        <pt x="371" y="-108" on="0"/>
        <pt x="421" y="-108" on="1"/>
        <pt x="435" y="-108" on="0"/>
        <pt x="458" y="-103" on="0"/>
        <pt x="458" y="-103" on="1"/>
        <pt x="446" y="-161" on="1"/>
        <pt x="446" y="-161" on="0"/>
        <pt x="420" y="-167" on="0"/>
      </contour>
      <contour>
        <pt x="123" y="142" on="1"/>
        <pt x="123" y="101" on="0"/>
        <pt x="184" y="65" on="0"/>
        <pt x="221" y="65" on="1"/>
        <pt x="262" y="65" on="0"/>
        <pt x="334" y="103" on="0"/>
        <pt x="384" y="171" on="0"/>
        <pt x="393" y="215" on="1"/>
        <pt x="398" y="238" on="1"/>
        <pt x="249" y="231" on="1"/>
        <pt x="186" y="228" on="0"/>
        <pt x="123" y="180" on="0"/>
      </contour>
    </TTGlyph>
    <TTGlyph name="approxequal" xMin="123" yMin="162" xMax="444" yMax="504">
      <contour>
        <pt x="346" y="372" on="1"/>
        <pt x="321" y="372" on="0"/>
        <pt x="286" y="394" on="0"/>
        <pt x="260" y="423" on="0"/>
        <pt x="236" y="445" on="0"/>
        <pt x="221" y="445" on="1"/>
        <pt x="205" y="445" on="0"/>
        <pt x="184" y="410" on="0"/>
        <pt x="179" y="378" on="1"/>
        <pt x="123" y="378" on="1"/>
        <pt x="130" y="412" on="0"/>
        <pt x="152" y="469" on="0"/>
        <pt x="191" y="504" on="0"/>
        <pt x="222" y="504" on="1"/>
        <pt x="248" y="504" on="0"/>
        <pt x="284" y="482" on="0"/>
        <pt x="309" y="454" on="0"/>
        <pt x="333" y="432" on="0"/>
        <pt x="347" y="432" on="1"/>
        <pt x="364" y="432" on="0"/>
        <pt x="383" y="468" on="0"/>
        <pt x="388" y="499" on="1"/>
        <pt x="444" y="499" on="1"/>
        <pt x="438" y="466" on="0"/>
        <pt x="415" y="408" on="0"/>
        <pt x="377" y="372" on="0"/>
      </contour>
      <contour>
        <pt x="346" y="162" on="1"/>
        <pt x="321" y="162" on="0"/>
        <pt x="286" y="184" on="0"/>
        <pt x="260" y="213" on="0"/>
        <pt x="236" y="235" on="0"/>
        <pt x="221" y="235" on="1"/>
        <pt x="205" y="235" on="0"/>
        <pt x="184" y="200" on="0"/>
        <pt x="179" y="168" on="1"/>
        <pt x="123" y="168" on="1"/>
        <pt x="130" y="202" on="0"/>
        <pt x="152" y="259" on="0"/>
        <pt x="191" y="294" on="0"/>
        <pt x="222" y="294" on="1"/>
        <pt x="248" y="294" on="0"/>
        <pt x="284" y="272" on="0"/>
        <pt x="309" y="244" on="0"/>
        <pt x="333" y="222" on="0"/>
        <pt x="347" y="222" on="1"/>
        <pt x="364" y="222" on="0"/>
        <pt x="383" y="258" on="0"/>
        <pt x="388" y="289" on="1"/>
        <pt x="444" y="289" on="1"/>
        <pt x="438" y="256" on="0"/>
        <pt x="415" y="198" on="0"/>
        <pt x="377" y="162" on="0"/>
      </contour>
    </TTGlyph>
    <TTGlyph name="aring" xMin="49" yMin="-10" xMax="623" yMax="858">
      <contour>
        <pt x="367" y="602" on="1"/>
        <pt x="332" y="602" on="0"/>
        <pt x="273" y="636" on="0"/>
        <pt x="238" y="695" on="0"/>
        <pt x="238" y="730" on="1"/>
        <pt x="238" y="766" on="0"/>
        <pt x="273" y="824" on="0"/>
        <pt x="332" y="858" on="0"/>
        <pt x="367" y="858" on="1"/>
        <pt x="402" y="858" on="0"/>
        <pt x="460" y="824" on="0"/>
        <pt x="495" y="766" on="0"/>
        <pt x="495" y="730" on="1"/>
        <pt x="495" y="695" on="0"/>
        <pt x="460" y="636" on="0"/>
        <pt x="402" y="602" on="0"/>
      </contour>
      <contour>
        <pt x="367" y="670" on="1"/>
        <pt x="392" y="670" on="0"/>
        <pt x="427" y="705" on="0"/>
        <pt x="427" y="730" on="1"/>
        <pt x="427" y="755" on="0"/>
        <pt x="392" y="790" on="0"/>
        <pt x="367" y="790" on="1"/>
        <pt x="342" y="790" on="0"/>
        <pt x="306" y="755" on="0"/>
        <pt x="306" y="730" on="1"/>
        <pt x="306" y="705" on="0"/>
        <pt x="342" y="670" on="0"/>
      </contour>
      <contour>
        <pt x="330" y="540" on="1"/>
        <pt x="383" y="540" on="0"/>
        <pt x="453" y="507" on="0"/>
        <pt x="493" y="460" on="0"/>
        <pt x="501" y="438" on="1"/>
        <pt x="507" y="438" on="1"/>
        <pt x="527" y="530" on="1"/>
        <pt x="623" y="530" on="1"/>
        <pt x="509" y="0" on="1"/>
        <pt x="413" y="0" on="1"/>
        <pt x="429" y="75" on="1"/>
        <pt x="424" y="75" on="1"/>
        <pt x="424" y="75" on="0"/>
        <pt x="405" y="49" on="0"/>
        <pt x="364" y="16" on="0"/>
        <pt x="300" y="-10" on="0"/>
        <pt x="255" y="-10" on="1"/>
        <pt x="187" y="-10" on="0"/>
        <pt x="95" y="56" on="0"/>
        <pt x="49" y="163" on="0"/>
        <pt x="49" y="224" on="1"/>
        <pt x="49" y="280" on="0"/>
        <pt x="86" y="392" on="0"/>
        <pt x="158" y="484" on="0"/>
        <pt x="263" y="540" on="0"/>
      </contour>
      <contour>
        <pt x="335" y="459" on="1"/>
        <pt x="290" y="459" on="0"/>
        <pt x="218" y="417" on="0"/>
        <pt x="168" y="348" on="0"/>
        <pt x="142" y="265" on="0"/>
        <pt x="142" y="224" on="1"/>
        <pt x="142" y="184" on="0"/>
        <pt x="170" y="114" on="0"/>
        <pt x="228" y="71" on="0"/>
        <pt x="274" y="71" on="1"/>
        <pt x="319" y="71" on="0"/>
        <pt x="390" y="113" on="0"/>
        <pt x="440" y="182" on="0"/>
        <pt x="466" y="265" on="0"/>
        <pt x="466" y="306" on="1"/>
        <pt x="466" y="347" on="0"/>
        <pt x="438" y="417" on="0"/>
        <pt x="381" y="459" on="0"/>
      </contour>
    </TTGlyph>
    <TTGlyph name="aring.ss01" xMin="29" yMin="-10" xMax="522" yMax="858">
      <contour>
        <pt x="332" y="602" on="1"/>
        <pt x="297" y="602" on="0"/>
        <pt x="238" y="636" on="0"/>
        <pt x="203" y="695" on="0"/>
        <pt x="203" y="730" on="1"/>
        <pt x="203" y="766" on="0"/>
        <pt x="238" y="824" on="0"/>
        <pt x="297" y="858" on="0"/>
        <pt x="332" y="858" on="1"/>
        <pt x="367" y="858" on="0"/>
        <pt x="425" y="824" on="0"/>
        <pt x="460" y="766" on="0"/>
        <pt x="460" y="730" on="1"/>
        <pt x="460" y="695" on="0"/>
        <pt x="425" y="636" on="0"/>
        <pt x="367" y="602" on="0"/>
      </contour>
      <contour>
        <pt x="332" y="670" on="1"/>
        <pt x="357" y="670" on="0"/>
        <pt x="392" y="705" on="0"/>
        <pt x="392" y="730" on="1"/>
        <pt x="392" y="755" on="0"/>
        <pt x="357" y="790" on="0"/>
        <pt x="332" y="790" on="1"/>
        <pt x="307" y="790" on="0"/>
        <pt x="271" y="755" on="0"/>
        <pt x="271" y="730" on="1"/>
        <pt x="271" y="705" on="0"/>
        <pt x="307" y="670" on="0"/>
      </contour>
      <contour>
        <pt x="352" y="64" on="1"/>
        <pt x="352" y="64" on="0"/>
        <pt x="334" y="42" on="0"/>
        <pt x="296" y="12" on="0"/>
        <pt x="236" y="-10" on="0"/>
        <pt x="194" y="-10" on="1"/>
        <pt x="116" y="-10" on="0"/>
        <pt x="29" y="74" on="0"/>
        <pt x="29" y="136" on="1"/>
        <pt x="29" y="179" on="0"/>
        <pt x="74" y="254" on="0"/>
        <pt x="171" y="303" on="0"/>
        <pt x="248" y="306" on="1"/>
        <pt x="413" y="312" on="1"/>
        <pt x="417" y="333" on="1"/>
        <pt x="423" y="362" on="0"/>
        <pt x="413" y="420" on="0"/>
        <pt x="365" y="460" on="0"/>
        <pt x="314" y="460" on="1"/>
        <pt x="271" y="460" on="0"/>
        <pt x="219" y="432" on="0"/>
        <pt x="192" y="396" on="0"/>
        <pt x="183" y="368" on="0"/>
        <pt x="183" y="368" on="1"/>
        <pt x="91" y="368" on="1"/>
        <pt x="91" y="368" on="0"/>
        <pt x="101" y="403" on="0"/>
        <pt x="129" y="454" on="0"/>
        <pt x="179" y="505" on="0"/>
        <pt x="259" y="540" on="0"/>
        <pt x="317" y="540" on="1"/>
        <pt x="391" y="540" on="0"/>
        <pt x="485" y="479" on="0"/>
        <pt x="522" y="379" on="0"/>
        <pt x="509" y="320" on="1"/>
        <pt x="441" y="0" on="1"/>
        <pt x="346" y="0" on="1"/>
        <pt x="360" y="64" on="1"/>
      </contour>
      <contour>
        <pt x="123" y="142" on="1"/>
        <pt x="123" y="101" on="0"/>
        <pt x="184" y="65" on="0"/>
        <pt x="221" y="65" on="1"/>
        <pt x="262" y="65" on="0"/>
        <pt x="334" y="103" on="0"/>
        <pt x="384" y="171" on="0"/>
        <pt x="393" y="215" on="1"/>
        <pt x="398" y="238" on="1"/>
        <pt x="249" y="231" on="1"/>
        <pt x="186" y="228" on="0"/>
        <pt x="123" y="180" on="0"/>
      </contour>
    </TTGlyph>
    <TTGlyph name="asciicircum" xMin="164" yMin="573" xMax="487" yMax="740">
      <contour>
        <pt x="164" y="573" on="1"/>
        <pt x="320" y="740" on="1"/>
        <pt x="401" y="740" on="1"/>
        <pt x="487" y="573" on="1"/>
        <pt x="407" y="573" on="1"/>
        <pt x="354" y="680" on="1"/>
        <pt x="256" y="573" on="1"/>
      </contour>
    </TTGlyph>
    <TTGlyph name="asciitilde" xMin="101" yMin="318" xMax="422" yMax="450">
      <contour>
        <pt x="324" y="318" on="1"/>
        <pt x="299" y="318" on="0"/>
        <pt x="264" y="340" on="0"/>
        <pt x="238" y="369" on="0"/>
        <pt x="214" y="391" on="0"/>
        <pt x="199" y="391" on="1"/>
        <pt x="183" y="391" on="0"/>
        <pt x="162" y="356" on="0"/>
        <pt x="157" y="324" on="1"/>
        <pt x="101" y="324" on="1"/>
        <pt x="108" y="358" on="0"/>
        <pt x="130" y="415" on="0"/>
        <pt x="169" y="450" on="0"/>
        <pt x="200" y="450" on="1"/>
        <pt x="226" y="450" on="0"/>
        <pt x="262" y="428" on="0"/>
        <pt x="287" y="400" on="0"/>
        <pt x="311" y="378" on="0"/>
        <pt x="325" y="378" on="1"/>
        <pt x="342" y="378" on="0"/>
        <pt x="361" y="414" on="0"/>
        <pt x="366" y="445" on="1"/>
        <pt x="422" y="445" on="1"/>
        <pt x="416" y="412" on="0"/>
        <pt x="393" y="354" on="0"/>
        <pt x="355" y="318" on="0"/>
      </contour>
    </TTGlyph>
    <TTGlyph name="asterisk" xMin="103" yMin="344" xMax="520" yMax="740">
      <contour>
        <pt x="221" y="344" on="1"/>
        <pt x="159" y="388" on="1"/>
        <pt x="253" y="514" on="1"/>
        <pt x="103" y="561" on="1"/>
        <pt x="126" y="634" on="1"/>
        <pt x="275" y="583" on="1"/>
        <pt x="273" y="740" on="1"/>
        <pt x="349" y="740" on="1"/>
        <pt x="348" y="583" on="1"/>
        <pt x="497" y="634" on="1"/>
        <pt x="520" y="561" on="1"/>
        <pt x="371" y="514" on="1"/>
        <pt x="464" y="388" on="1"/>
        <pt x="402" y="344" on="1"/>
        <pt x="311" y="471" on="1"/>
      </contour>
    </TTGlyph>
    <TTGlyph name="at" xMin="51" yMin="-126" xMax="936" yMax="755">
      <contour>
        <pt x="477" y="-126" on="1"/>
        <pt x="368" y="-126" on="0"/>
        <pt x="207" y="-59" on="0"/>
        <pt x="102" y="57" on="0"/>
        <pt x="51" y="203" on="0"/>
        <pt x="51" y="281" on="1"/>
        <pt x="51" y="367" on="0"/>
        <pt x="112" y="536" on="0"/>
        <pt x="232" y="673" on="0"/>
        <pt x="411" y="755" on="0"/>
        <pt x="528" y="755" on="1"/>
        <pt x="635" y="755" on="0"/>
        <pt x="789" y="687" on="0"/>
        <pt x="888" y="575" on="0"/>
        <pt x="936" y="439" on="0"/>
        <pt x="936" y="371" on="1"/>
        <pt x="936" y="298" on="0"/>
        <pt x="884" y="168" on="0"/>
        <pt x="788" y="88" on="0"/>
        <pt x="720" y="88" on="1"/>
        <pt x="678" y="88" on="0"/>
        <pt x="627" y="115" on="0"/>
        <pt x="601" y="151" on="0"/>
        <pt x="593" y="178" on="0"/>
        <pt x="593" y="178" on="1"/>
        <pt x="587" y="178" on="1"/>
        <pt x="587" y="178" on="0"/>
        <pt x="570" y="151" on="0"/>
        <pt x="533" y="115" on="0"/>
        <pt x="474" y="88" on="0"/>
        <pt x="433" y="88" on="1"/>
        <pt x="378" y="88" on="0"/>
        <pt x="306" y="140" on="0"/>
        <pt x="271" y="225" on="0"/>
        <pt x="271" y="273" on="1"/>
        <pt x="271" y="318" on="0"/>
        <pt x="300" y="409" on="0"/>
        <pt x="355" y="483" on="0"/>
        <pt x="434" y="528" on="0"/>
        <pt x="484" y="528" on="1"/>
        <pt x="522" y="528" on="0"/>
        <pt x="572" y="504" on="0"/>
        <pt x="602" y="474" on="0"/>
        <pt x="614" y="450" on="0"/>
        <pt x="614" y="450" on="1"/>
        <pt x="619" y="450" on="1"/>
        <pt x="634" y="520" on="1"/>
        <pt x="722" y="520" on="1"/>
        <pt x="679" y="317" on="1"/>
        <pt x="671" y="277" on="0"/>
        <pt x="667" y="206" on="0"/>
        <pt x="692" y="162" on="0"/>
        <pt x="725" y="162" on="1"/>
        <pt x="762" y="162" on="0"/>
        <pt x="818" y="220" on="0"/>
        <pt x="851" y="315" on="0"/>
        <pt x="851" y="370" on="1"/>
        <pt x="851" y="424" on="0"/>
        <pt x="815" y="531" on="0"/>
        <pt x="738" y="621" on="0"/>
        <pt x="615" y="675" on="0"/>
        <pt x="529" y="675" on="1"/>
        <pt x="430" y="675" on="0"/>
        <pt x="283" y="606" on="0"/>
        <pt x="185" y="492" on="0"/>
        <pt x="137" y="353" on="0"/>
        <pt x="137" y="283" on="1"/>
        <pt x="137" y="219" on="0"/>
        <pt x="178" y="101" on="0"/>
        <pt x="261" y="8" on="0"/>
        <pt x="389" y="-46" on="0"/>
        <pt x="476" y="-46" on="1"/>
        <pt x="527" y="-46" on="0"/>
        <pt x="615" y="-29" on="0"/>
        <pt x="682" y="-7" on="0"/>
        <pt x="720" y="10" on="0"/>
        <pt x="720" y="10" on="1"/>
        <pt x="748" y="-64" on="1"/>
        <pt x="748" y="-64" on="0"/>
        <pt x="709" y="-83" on="0"/>
        <pt x="637" y="-107" on="0"/>
        <pt x="537" y="-126" on="0"/>
      </contour>
      <contour>
        <pt x="453" y="161" on="1"/>
        <pt x="496" y="161" on="0"/>
        <pt x="558" y="215" on="0"/>
        <pt x="591" y="297" on="0"/>
        <pt x="591" y="338" on="1"/>
        <pt x="591" y="384" on="0"/>
        <pt x="545" y="454" on="0"/>
        <pt x="495" y="454" on="1"/>
        <pt x="452" y="454" on="0"/>
        <pt x="390" y="400" on="0"/>
        <pt x="357" y="319" on="0"/>
        <pt x="357" y="278" on="1"/>
        <pt x="357" y="232" on="0"/>
        <pt x="404" y="161" on="0"/>
      </contour>
    </TTGlyph>
    <TTGlyph name="atilde" xMin="49" yMin="-10" xMax="623" yMax="753">
      <contour>
        <pt x="465" y="616" on="1"/>
        <pt x="439" y="616" on="0"/>
        <pt x="403" y="637" on="0"/>
        <pt x="376" y="666" on="0"/>
        <pt x="352" y="687" on="0"/>
        <pt x="338" y="687" on="1"/>
        <pt x="322" y="687" on="0"/>
        <pt x="302" y="653" on="0"/>
        <pt x="297" y="622" on="1"/>
        <pt x="235" y="622" on="1"/>
        <pt x="246" y="681" on="0"/>
        <pt x="293" y="753" on="0"/>
        <pt x="339" y="753" on="1"/>
        <pt x="366" y="753" on="0"/>
        <pt x="402" y="732" on="0"/>
        <pt x="429" y="705" on="0"/>
        <pt x="452" y="684" on="0"/>
        <pt x="466" y="684" on="1"/>
        <pt x="483" y="684" on="0"/>
        <pt x="501" y="717" on="0"/>
        <pt x="506" y="748" on="1"/>
        <pt x="568" y="748" on="1"/>
        <pt x="557" y="690" on="0"/>
        <pt x="511" y="616" on="0"/>
      </contour>
      <contour>
        <pt x="330" y="540" on="1"/>
        <pt x="383" y="540" on="0"/>
        <pt x="453" y="507" on="0"/>
        <pt x="493" y="460" on="0"/>
        <pt x="501" y="438" on="1"/>
        <pt x="507" y="438" on="1"/>
        <pt x="527" y="530" on="1"/>
        <pt x="623" y="530" on="1"/>
        <pt x="509" y="0" on="1"/>
        <pt x="413" y="0" on="1"/>
        <pt x="429" y="75" on="1"/>
        <pt x="424" y="75" on="1"/>
        <pt x="424" y="75" on="0"/>
        <pt x="405" y="49" on="0"/>
        <pt x="364" y="16" on="0"/>
        <pt x="300" y="-10" on="0"/>
        <pt x="255" y="-10" on="1"/>
        <pt x="187" y="-10" on="0"/>
        <pt x="95" y="56" on="0"/>
        <pt x="49" y="163" on="0"/>
        <pt x="49" y="224" on="1"/>
        <pt x="49" y="280" on="0"/>
        <pt x="86" y="392" on="0"/>
        <pt x="158" y="484" on="0"/>
        <pt x="263" y="540" on="0"/>
      </contour>
      <contour>
        <pt x="335" y="459" on="1"/>
        <pt x="290" y="459" on="0"/>
        <pt x="218" y="417" on="0"/>
        <pt x="168" y="348" on="0"/>
        <pt x="142" y="265" on="0"/>
        <pt x="142" y="224" on="1"/>
        <pt x="142" y="184" on="0"/>
        <pt x="170" y="114" on="0"/>
        <pt x="228" y="71" on="0"/>
        <pt x="274" y="71" on="1"/>
        <pt x="319" y="71" on="0"/>
        <pt x="390" y="113" on="0"/>
        <pt x="440" y="182" on="0"/>
        <pt x="466" y="265" on="0"/>
        <pt x="466" y="306" on="1"/>
        <pt x="466" y="347" on="0"/>
        <pt x="438" y="417" on="0"/>
        <pt x="381" y="459" on="0"/>
      </contour>
    </TTGlyph>
    <TTGlyph name="atilde.ss01" xMin="29" yMin="-10" xMax="533" yMax="753">
      <contour>
        <pt x="430" y="616" on="1"/>
        <pt x="404" y="616" on="0"/>
        <pt x="368" y="637" on="0"/>
        <pt x="341" y="666" on="0"/>
        <pt x="317" y="687" on="0"/>
        <pt x="303" y="687" on="1"/>
        <pt x="287" y="687" on="0"/>
        <pt x="267" y="653" on="0"/>
        <pt x="262" y="622" on="1"/>
        <pt x="200" y="622" on="1"/>
        <pt x="211" y="681" on="0"/>
        <pt x="258" y="753" on="0"/>
        <pt x="304" y="753" on="1"/>
        <pt x="331" y="753" on="0"/>
        <pt x="367" y="732" on="0"/>
        <pt x="394" y="705" on="0"/>
        <pt x="417" y="684" on="0"/>
        <pt x="431" y="684" on="1"/>
        <pt x="448" y="684" on="0"/>
        <pt x="466" y="717" on="0"/>
        <pt x="471" y="748" on="1"/>
        <pt x="533" y="748" on="1"/>
        <pt x="522" y="690" on="0"/>
        <pt x="476" y="616" on="0"/>
      </contour>
      <contour>
        <pt x="352" y="64" on="1"/>
        <pt x="352" y="64" on="0"/>
        <pt x="334" y="42" on="0"/>
        <pt x="296" y="12" on="0"/>
        <pt x="236" y="-10" on="0"/>
        <pt x="194" y="-10" on="1"/>
        <pt x="116" y="-10" on="0"/>
        <pt x="29" y="74" on="0"/>
        <pt x="29" y="136" on="1"/>
        <pt x="29" y="179" on="0"/>
        <pt x="74" y="254" on="0"/>
        <pt x="171" y="303" on="0"/>
        <pt x="248" y="306" on="1"/>
        <pt x="413" y="312" on="1"/>
        <pt x="417" y="333" on="1"/>
        <pt x="423" y="362" on="0"/>
        <pt x="413" y="420" on="0"/>
        <pt x="365" y="460" on="0"/>
        <pt x="314" y="460" on="1"/>
        <pt x="271" y="460" on="0"/>
        <pt x="219" y="432" on="0"/>
        <pt x="192" y="396" on="0"/>
        <pt x="183" y="368" on="0"/>
        <pt x="183" y="368" on="1"/>
        <pt x="91" y="368" on="1"/>
        <pt x="91" y="368" on="0"/>
        <pt x="101" y="403" on="0"/>
        <pt x="129" y="454" on="0"/>
        <pt x="179" y="505" on="0"/>
        <pt x="259" y="540" on="0"/>
        <pt x="317" y="540" on="1"/>
        <pt x="391" y="540" on="0"/>
        <pt x="485" y="479" on="0"/>
        <pt x="522" y="379" on="0"/>
        <pt x="509" y="320" on="1"/>
        <pt x="441" y="0" on="1"/>
        <pt x="346" y="0" on="1"/>
        <pt x="360" y="64" on="1"/>
      </contour>
      <contour>
        <pt x="123" y="142" on="1"/>
        <pt x="123" y="101" on="0"/>
        <pt x="184" y="65" on="0"/>
        <pt x="221" y="65" on="1"/>
        <pt x="262" y="65" on="0"/>
        <pt x="334" y="103" on="0"/>
        <pt x="384" y="171" on="0"/>
        <pt x="393" y="215" on="1"/>
        <pt x="398" y="238" on="1"/>
        <pt x="249" y="231" on="1"/>
        <pt x="186" y="228" on="0"/>
        <pt x="123" y="180" on="0"/>
      </contour>
    </TTGlyph>
    <TTGlyph name="b" xMin="29" yMin="-10" xMax="603" yMax="760">
      <contour>
        <pt x="322" y="-10" on="1"/>
        <pt x="269" y="-10" on="0"/>
        <pt x="199" y="23" on="0"/>
        <pt x="160" y="70" on="0"/>
        <pt x="151" y="92" on="1"/>
        <pt x="145" y="92" on="1"/>
        <pt x="125" y="0" on="1"/>
        <pt x="29" y="0" on="1"/>
        <pt x="193" y="760" on="1"/>
        <pt x="289" y="760" on="1"/>
        <pt x="223" y="455" on="1"/>
        <pt x="228" y="455" on="1"/>
        <pt x="228" y="455" on="0"/>
        <pt x="247" y="481" on="0"/>
        <pt x="288" y="514" on="0"/>
        <pt x="352" y="540" on="0"/>
        <pt x="397" y="540" on="1"/>
        <pt x="466" y="540" on="0"/>
        <pt x="557" y="474" on="0"/>
        <pt x="603" y="368" on="0"/>
        <pt x="603" y="306" on="1"/>
        <pt x="603" y="250" on="0"/>
        <pt x="566" y="138" on="0"/>
        <pt x="494" y="46" on="0"/>
        <pt x="390" y="-10" on="0"/>
      </contour>
      <contour>
        <pt x="317" y="71" on="1"/>
        <pt x="362" y="71" on="0"/>
        <pt x="434" y="113" on="0"/>
        <pt x="484" y="182" on="0"/>
        <pt x="510" y="265" on="0"/>
        <pt x="510" y="306" on="1"/>
        <pt x="510" y="347" on="0"/>
        <pt x="482" y="416" on="0"/>
        <pt x="424" y="459" on="0"/>
        <pt x="378" y="459" on="1"/>
        <pt x="333" y="459" on="0"/>
        <pt x="262" y="417" on="0"/>
        <pt x="212" y="348" on="0"/>
        <pt x="186" y="265" on="0"/>
        <pt x="186" y="224" on="1"/>
        <pt x="186" y="183" on="0"/>
        <pt x="214" y="113" on="0"/>
        <pt x="272" y="71" on="0"/>
      </contour>
    </TTGlyph>
    <TTGlyph name="backslash" xMin="136" yMin="-151" xMax="363" yMax="824">
      <contour>
        <pt x="363" y="-151" on="1"/>
        <pt x="276" y="-151" on="1"/>
        <pt x="136" y="824" on="1"/>
        <pt x="223" y="824" on="1"/>
      </contour>
    </TTGlyph>
    <TTGlyph name="bar" xMin="63" yMin="-222" xMax="400" yMax="950">
      <contour>
        <pt x="63" y="-222" on="1"/>
        <pt x="312" y="950" on="1"/>
        <pt x="400" y="950" on="1"/>
        <pt x="151" y="-222" on="1"/>
      </contour>
    </TTGlyph>
</ttFont>
